<?xml version="1.0" encoding="UTF-8"?>
<svg xmlns="http://www.w3.org/2000/svg" xmlns:xlink="http://www.w3.org/1999/xlink" width="504pt" height="360pt" viewBox="0 0 504 360">
<defs>
<g>
<g id="glyph-0-0">
<path d="M 10.105469 -13.511719 L 12.613281 -13.511719 C 12.292969 -12.644531 11.585938 -10.667969 10.484375 -7.582031 C 9.660156 -5.261719 8.96875 -3.367188 8.414062 -1.90625 C 7.101562 1.542969 6.175781 3.644531 5.640625 4.402344 C 5.101562 5.160156 4.175781 5.539062 2.863281 5.539062 C 2.542969 5.539062 2.296875 5.523438 2.125 5.5 C 1.953125 5.476562 1.742188 5.429688 1.488281 5.359375 L 1.488281 3.292969 C 1.882812 3.402344 2.167969 3.46875 2.347656 3.496094 C 2.523438 3.519531 2.679688 3.53125 2.8125 3.53125 C 3.234375 3.53125 3.542969 3.460938 3.742188 3.324219 C 3.9375 3.183594 4.105469 3.015625 4.238281 2.8125 C 4.28125 2.746094 4.433594 2.402344 4.691406 1.777344 C 4.953125 1.15625 5.144531 0.695312 5.261719 0.390625 L 0.265625 -13.511719 L 2.839844 -13.511719 L 6.457031 -2.511719 Z M 10.105469 -13.511719 "/>
</g>
<g id="glyph-0-1">
<path d="M 3.9375 -13.511719 L 3.9375 -4.542969 C 3.9375 -3.851562 4.046875 -3.289062 4.265625 -2.851562 C 4.667969 -2.042969 5.421875 -1.640625 6.523438 -1.640625 C 8.101562 -1.640625 9.179688 -2.347656 9.75 -3.757812 C 10.0625 -4.515625 10.21875 -5.554688 10.21875 -6.875 L 10.21875 -13.511719 L 12.488281 -13.511719 L 12.488281 0 L 10.34375 0 L 10.371094 -1.992188 C 10.074219 -1.480469 9.710938 -1.046875 9.273438 -0.695312 C 8.40625 0.0117188 7.355469 0.367188 6.117188 0.367188 C 4.191406 0.367188 2.878906 -0.277344 2.183594 -1.5625 C 1.804688 -2.253906 1.613281 -3.175781 1.613281 -4.328125 L 1.613281 -13.511719 Z M 3.9375 -13.511719 "/>
</g>
<g id="glyph-0-2">
<path d="M 0.65625 -1.792969 L 8.667969 -11.480469 L 1.25 -11.480469 L 1.25 -13.511719 L 11.71875 -13.511719 L 11.71875 -11.65625 L 3.757812 -2.03125 L 11.957031 -2.03125 L 11.957031 0 L 0.65625 0 Z M 0.65625 -1.792969 "/>
</g>
<g id="glyph-0-3">
<path d="M 0.378906 -13.511719 L 3.316406 -13.511719 L 6.421875 -8.753906 L 9.5625 -13.511719 L 12.324219 -13.449219 L 7.769531 -6.925781 L 12.527344 0 L 9.625 0 L 6.269531 -5.070312 L 3.015625 0 L 0.140625 0 L 4.894531 -6.925781 Z M 0.378906 -13.511719 "/>
</g>
<g id="glyph-1-0">
<path d="M 1.234375 -6.394531 L 1.234375 -7.265625 C 2.054688 -7.34375 2.628906 -7.480469 2.953125 -7.667969 C 3.277344 -7.855469 3.515625 -8.296875 3.675781 -8.992188 L 4.574219 -8.992188 L 4.574219 0 L 3.363281 0 L 3.363281 -6.394531 Z M 1.234375 -6.394531 "/>
</g>
<g id="glyph-1-1">
<path d="M 0.402344 0 C 0.445312 -0.777344 0.605469 -1.453125 0.886719 -2.03125 C 1.164062 -2.605469 1.710938 -3.128906 2.523438 -3.601562 L 3.734375 -4.300781 C 4.277344 -4.617188 4.65625 -4.886719 4.875 -5.109375 C 5.21875 -5.457031 5.394531 -5.855469 5.394531 -6.308594 C 5.394531 -6.832031 5.234375 -7.25 4.917969 -7.558594 C 4.605469 -7.867188 4.183594 -8.023438 3.65625 -8.023438 C 2.878906 -8.023438 2.34375 -7.726562 2.042969 -7.140625 C 1.882812 -6.824219 1.796875 -6.386719 1.777344 -5.828125 L 0.625 -5.828125 C 0.636719 -6.613281 0.78125 -7.253906 1.058594 -7.75 C 1.550781 -8.625 2.417969 -9.0625 3.664062 -9.0625 C 4.699219 -9.0625 5.453125 -8.785156 5.933594 -8.222656 C 6.410156 -7.664062 6.648438 -7.042969 6.648438 -6.359375 C 6.648438 -5.636719 6.394531 -5.015625 5.882812 -4.503906 C 5.589844 -4.203125 5.0625 -3.84375 4.300781 -3.417969 L 3.4375 -2.9375 C 3.023438 -2.710938 2.703125 -2.496094 2.464844 -2.289062 C 2.046875 -1.921875 1.78125 -1.519531 1.671875 -1.070312 L 6.605469 -1.070312 L 6.605469 0 Z M 0.402344 0 "/>
</g>
<g id="glyph-1-2">
<path d="M 3.355469 0.246094 C 2.289062 0.246094 1.511719 -0.046875 1.03125 -0.632812 C 0.550781 -1.21875 0.308594 -1.933594 0.308594 -2.773438 L 1.496094 -2.773438 C 1.546875 -2.191406 1.65625 -1.765625 1.824219 -1.5 C 2.117188 -1.027344 2.648438 -0.789062 3.417969 -0.789062 C 4.015625 -0.789062 4.496094 -0.949219 4.855469 -1.269531 C 5.21875 -1.589844 5.398438 -2 5.398438 -2.503906 C 5.398438 -3.125 5.207031 -3.5625 4.828125 -3.808594 C 4.449219 -4.058594 3.917969 -4.179688 3.242188 -4.179688 C 3.167969 -4.179688 3.089844 -4.179688 3.011719 -4.179688 C 2.933594 -4.175781 2.855469 -4.171875 2.773438 -4.167969 L 2.773438 -5.171875 C 2.890625 -5.160156 2.992188 -5.152344 3.070312 -5.148438 C 3.152344 -5.144531 3.238281 -5.140625 3.332031 -5.140625 C 3.753906 -5.140625 4.105469 -5.207031 4.378906 -5.34375 C 4.855469 -5.578125 5.097656 -6 5.097656 -6.605469 C 5.097656 -7.054688 4.9375 -7.398438 4.617188 -7.644531 C 4.296875 -7.886719 3.925781 -8.011719 3.5 -8.011719 C 2.742188 -8.011719 2.21875 -7.757812 1.929688 -7.253906 C 1.769531 -6.976562 1.679688 -6.582031 1.660156 -6.066406 L 0.535156 -6.066406 C 0.535156 -6.738281 0.671875 -7.3125 0.941406 -7.78125 C 1.402344 -8.625 2.214844 -9.042969 3.378906 -9.042969 C 4.300781 -9.042969 5.015625 -8.839844 5.519531 -8.429688 C 6.023438 -8.019531 6.277344 -7.425781 6.277344 -6.648438 C 6.277344 -6.09375 6.125 -5.644531 5.828125 -5.296875 C 5.644531 -5.082031 5.402344 -4.914062 5.109375 -4.792969 C 5.585938 -4.664062 5.953125 -4.410156 6.222656 -4.039062 C 6.488281 -3.667969 6.621094 -3.210938 6.621094 -2.675781 C 6.621094 -1.8125 6.339844 -1.109375 5.769531 -0.566406 C 5.203125 -0.0234375 4.398438 0.246094 3.355469 0.246094 Z M 3.355469 0.246094 "/>
</g>
</g>
</defs>
<rect x="-50.4" y="-36" width="604.8" height="432" fill="rgb(100%, 100%, 100%)" fill-opacity="1"/>
<path fill-rule="nonzero" fill="rgb(100%, 64.705882%, 0%)" fill-opacity="1" stroke-width="0.75" stroke-linecap="round" stroke-linejoin="round" stroke="rgb(0%, 0%, 0%)" stroke-opacity="1" stroke-miterlimit="10" d="M 9.691406 145.441406 L 53.019531 145.441406 L 53.019531 113.945312 L 9.691406 113.945312 Z M 9.691406 145.441406 "/>
<path fill-rule="nonzero" fill="rgb(100%, 64.705882%, 0%)" fill-opacity="1" stroke-width="0.75" stroke-linecap="round" stroke-linejoin="round" stroke="rgb(0%, 0%, 0%)" stroke-opacity="1" stroke-miterlimit="10" d="M 99.554688 145.441406 L 142.882812 145.441406 L 142.882812 113.945312 L 99.554688 113.945312 Z M 99.554688 145.441406 "/>
<path fill-rule="nonzero" fill="rgb(100%, 64.705882%, 0%)" fill-opacity="1" stroke-width="0.75" stroke-linecap="round" stroke-linejoin="round" stroke="rgb(0%, 0%, 0%)" stroke-opacity="1" stroke-miterlimit="10" d="M 189.417969 145.441406 L 232.746094 145.441406 L 232.746094 113.945312 L 189.417969 113.945312 Z M 189.417969 145.441406 "/>
<path fill-rule="nonzero" fill="rgb(100%, 64.705882%, 0%)" fill-opacity="1" stroke-width="0.75" stroke-linecap="round" stroke-linejoin="round" stroke="rgb(0%, 0%, 0%)" stroke-opacity="1" stroke-miterlimit="10" d="M 231.140625 43.074219 L 274.46875 43.074219 L 274.46875 11.578125 L 231.140625 11.578125 Z M 231.140625 43.074219 "/>
<path fill-rule="nonzero" fill="rgb(100%, 64.705882%, 0%)" fill-opacity="1" stroke-width="0.75" stroke-linecap="round" stroke-linejoin="round" stroke="rgb(0%, 0%, 0%)" stroke-opacity="1" stroke-miterlimit="10" d="M 321 43.074219 L 364.328125 43.074219 L 364.328125 11.578125 L 321 11.578125 Z M 321 43.074219 "/>
<path fill-rule="nonzero" fill="rgb(100%, 64.705882%, 0%)" fill-opacity="1" stroke-width="0.75" stroke-linecap="round" stroke-linejoin="round" stroke="rgb(0%, 0%, 0%)" stroke-opacity="1" stroke-miterlimit="10" d="M 410.863281 43.074219 L 454.191406 43.074219 L 454.191406 11.578125 L 410.863281 11.578125 Z M 410.863281 43.074219 "/>
<path fill-rule="nonzero" fill="rgb(67.843137%, 84.705882%, 90.196078%)" fill-opacity="1" stroke-width="0.75" stroke-linecap="round" stroke-linejoin="round" stroke="rgb(0%, 0%, 0%)" stroke-opacity="1" stroke-miterlimit="10" d="M 298.535156 348.425781 L 341.863281 348.425781 L 341.863281 316.929688 L 298.535156 316.929688 Z M 298.535156 348.425781 "/>
<path fill-rule="nonzero" fill="rgb(60.392157%, 80.392157%, 19.607843%)" fill-opacity="1" stroke-width="0.75" stroke-linecap="round" stroke-linejoin="round" stroke="rgb(0%, 0%, 0%)" stroke-opacity="1" stroke-miterlimit="10" d="M 211.082031 246.933594 L 209.71875 246.902344 L 208.367188 246.808594 L 207.019531 246.652344 L 205.691406 246.4375 L 204.386719 246.160156 L 203.105469 245.828125 L 201.855469 245.433594 L 200.644531 244.984375 L 199.472656 244.480469 L 198.347656 243.925781 L 197.273438 243.320312 L 196.25 242.664062 L 195.289062 241.964844 L 194.386719 241.222656 L 193.554688 240.441406 L 192.789062 239.621094 L 192.097656 238.769531 L 191.480469 237.890625 L 190.9375 236.980469 L 190.476562 236.050781 L 190.097656 235.101562 L 189.800781 234.136719 L 189.589844 233.15625 L 189.460938 232.171875 L 189.417969 231.183594 L 189.460938 230.195312 L 189.589844 229.210938 L 189.800781 228.234375 L 190.097656 227.265625 L 190.476562 226.316406 L 190.9375 225.386719 L 191.480469 224.476562 L 192.097656 223.597656 L 192.789062 222.746094 L 193.554688 221.925781 L 194.386719 221.144531 L 195.289062 220.402344 L 196.25 219.703125 L 197.273438 219.050781 L 198.347656 218.441406 L 199.472656 217.886719 L 200.644531 217.382812 L 201.855469 216.933594 L 203.105469 216.539062 L 204.386719 216.207031 L 205.691406 215.929688 L 207.019531 215.714844 L 208.367188 215.558594 L 209.71875 215.464844 L 211.082031 215.433594 L 212.441406 215.464844 L 213.796875 215.558594 L 215.140625 215.714844 L 216.46875 215.929688 L 217.773438 216.207031 L 219.054688 216.539062 L 220.304688 216.933594 L 221.515625 217.382812 L 222.6875 217.886719 L 223.8125 218.441406 L 224.890625 219.050781 L 225.910156 219.703125 L 226.871094 220.402344 L 227.773438 221.144531 L 228.605469 221.925781 L 229.371094 222.746094 L 230.0625 223.597656 L 230.683594 224.476562 L 231.222656 225.386719 L 231.683594 226.316406 L 232.0625 227.265625 L 232.359375 228.234375 L 232.574219 229.210938 L 232.699219 230.195312 L 232.742188 231.183594 L 232.699219 232.171875 L 232.574219 233.15625 L 232.359375 234.136719 L 232.0625 235.101562 L 231.683594 236.050781 L 231.222656 236.980469 L 230.683594 237.890625 L 230.0625 238.769531 L 229.371094 239.621094 L 228.605469 240.441406 L 227.773438 241.222656 L 226.871094 241.964844 L 225.910156 242.664062 L 224.890625 243.320312 L 223.8125 243.925781 L 222.6875 244.480469 L 221.515625 244.984375 L 220.304688 245.433594 L 219.054688 245.828125 L 217.773438 246.160156 L 216.46875 246.4375 L 215.140625 246.652344 L 213.796875 246.808594 L 212.441406 246.902344 Z M 211.082031 246.933594 "/>
<path fill-rule="nonzero" fill="rgb(60.392157%, 80.392157%, 19.607843%)" fill-opacity="1" stroke-width="0.75" stroke-linecap="round" stroke-linejoin="round" stroke="rgb(0%, 0%, 0%)" stroke-opacity="1" stroke-miterlimit="10" d="M 342.664062 145.441406 L 341.304688 145.410156 L 339.949219 145.316406 L 338.605469 145.160156 L 337.277344 144.945312 L 335.96875 144.667969 L 334.691406 144.335938 L 333.441406 143.941406 L 332.226562 143.492188 L 331.058594 142.988281 L 329.929688 142.433594 L 328.855469 141.824219 L 327.835938 141.171875 L 326.871094 140.472656 L 325.972656 139.730469 L 325.140625 138.949219 L 324.375 138.128906 L 323.679688 137.277344 L 323.0625 136.398438 L 322.523438 135.488281 L 322.0625 134.558594 L 321.683594 133.609375 L 321.386719 132.640625 L 321.171875 131.664062 L 321.042969 130.679688 L 321 129.691406 L 321.042969 128.703125 L 321.171875 127.71875 L 321.386719 126.738281 L 321.683594 125.773438 L 322.0625 124.824219 L 322.523438 123.894531 L 323.0625 122.984375 L 323.679688 122.105469 L 324.375 121.253906 L 325.140625 120.433594 L 325.972656 119.652344 L 326.871094 118.910156 L 327.835938 118.210938 L 328.855469 117.554688 L 329.929688 116.949219 L 331.058594 116.394531 L 332.226562 115.890625 L 333.441406 115.441406 L 334.691406 115.046875 L 335.96875 114.714844 L 337.277344 114.4375 L 338.605469 114.222656 L 339.949219 114.066406 L 341.304688 113.972656 L 342.664062 113.941406 L 344.023438 113.972656 L 345.378906 114.066406 L 346.722656 114.222656 L 348.050781 114.4375 L 349.359375 114.714844 L 350.640625 115.046875 L 351.886719 115.441406 L 353.101562 115.890625 L 354.273438 116.394531 L 355.398438 116.949219 L 356.472656 117.554688 L 357.496094 118.210938 L 358.457031 118.910156 L 359.355469 119.652344 L 360.191406 120.433594 L 360.957031 121.253906 L 361.648438 122.105469 L 362.265625 122.984375 L 362.808594 123.894531 L 363.269531 124.824219 L 363.648438 125.773438 L 363.945312 126.738281 L 364.15625 127.71875 L 364.285156 128.703125 L 364.328125 129.691406 L 364.285156 130.679688 L 364.15625 131.664062 L 363.945312 132.640625 L 363.648438 133.609375 L 363.269531 134.558594 L 362.808594 135.488281 L 362.265625 136.398438 L 361.648438 137.277344 L 360.957031 138.128906 L 360.191406 138.949219 L 359.355469 139.730469 L 358.457031 140.472656 L 357.496094 141.171875 L 356.472656 141.824219 L 355.398438 142.433594 L 354.273438 142.988281 L 353.101562 143.492188 L 351.886719 143.941406 L 350.640625 144.335938 L 349.359375 144.667969 L 348.050781 144.945312 L 346.722656 145.160156 L 345.378906 145.316406 L 344.023438 145.410156 Z M 342.664062 145.441406 "/>
<g fill="rgb(0%, 0%, 54.509804%)" fill-opacity="1">
<use xlink:href="#glyph-0-0" x="21.355469" y="133.584961"/>
</g>
<g fill="rgb(0%, 0%, 54.509804%)" fill-opacity="1">
<use xlink:href="#glyph-1-0" x="34.355469" y="138.536133"/>
</g>
<g fill="rgb(0%, 0%, 54.509804%)" fill-opacity="1">
<use xlink:href="#glyph-0-0" x="111.21875" y="133.584961"/>
</g>
<g fill="rgb(0%, 0%, 54.509804%)" fill-opacity="1">
<use xlink:href="#glyph-1-1" x="124.21875" y="138.536133"/>
</g>
<g fill="rgb(0%, 0%, 54.509804%)" fill-opacity="1">
<use xlink:href="#glyph-0-0" x="201.082031" y="133.584961"/>
</g>
<g fill="rgb(0%, 0%, 54.509804%)" fill-opacity="1">
<use xlink:href="#glyph-1-2" x="214.082031" y="138.536133"/>
</g>
<g fill="rgb(0%, 0%, 54.509804%)" fill-opacity="1">
<use xlink:href="#glyph-0-1" x="200.582031" y="235.62793"/>
</g>
<g fill="rgb(0%, 0%, 54.509804%)" fill-opacity="1">
<use xlink:href="#glyph-1-0" x="214.582031" y="240.579102"/>
</g>
<g fill="rgb(0%, 0%, 54.509804%)" fill-opacity="1">
<use xlink:href="#glyph-0-2" x="242.800781" y="31.768555"/>
</g>
<g fill="rgb(0%, 0%, 54.509804%)" fill-opacity="1">
<use xlink:href="#glyph-1-0" x="255.800781" y="36.719727"/>
</g>
<g fill="rgb(0%, 0%, 54.509804%)" fill-opacity="1">
<use xlink:href="#glyph-0-2" x="332.664062" y="31.768555"/>
</g>
<g fill="rgb(0%, 0%, 54.509804%)" fill-opacity="1">
<use xlink:href="#glyph-1-1" x="345.664062" y="36.719727"/>
</g>
<g fill="rgb(0%, 0%, 54.509804%)" fill-opacity="1">
<use xlink:href="#glyph-0-2" x="422.527344" y="31.268555"/>
</g>
<g fill="rgb(0%, 0%, 54.509804%)" fill-opacity="1">
<use xlink:href="#glyph-1-2" x="435.527344" y="36.219727"/>
</g>
<g fill="rgb(0%, 0%, 54.509804%)" fill-opacity="1">
<use xlink:href="#glyph-0-1" x="332.164062" y="134.135742"/>
</g>
<g fill="rgb(0%, 0%, 54.509804%)" fill-opacity="1">
<use xlink:href="#glyph-1-1" x="346.164062" y="139.086914"/>
</g>
<g fill="rgb(0%, 0%, 54.509804%)" fill-opacity="1">
<use xlink:href="#glyph-0-3" x="313.699219" y="337.120117"/>
</g>
<path fill="none" stroke-width="0.75" stroke-linecap="round" stroke-linejoin="round" stroke="rgb(0%, 0%, 0%)" stroke-opacity="1" stroke-miterlimit="10" d="M 188.613281 230.308594 L 177.886719 230.101562 L 165.65625 229.386719 L 152.25 228.015625 L 137.996094 225.855469 L 123.222656 222.761719 L 108.257812 218.589844 L 93.429688 213.203125 L 79.058594 206.453125 L 65.480469 198.203125 L 53.019531 188.3125 "/>
<path fill="none" stroke-width="0.75" stroke-linecap="round" stroke-linejoin="round" stroke="rgb(0%, 0%, 0%)" stroke-opacity="1" stroke-miterlimit="10" d="M 53.019531 188.3125 L 49.8125 184.703125 L 46.925781 180.746094 L 44.339844 176.515625 L 42.03125 172.085938 L 39.980469 167.53125 L 38.171875 162.925781 L 36.585938 158.339844 L 35.199219 153.847656 L 34 149.523438 L 32.960938 145.441406 "/>
<path fill="none" stroke-width="0.75" stroke-linecap="round" stroke-linejoin="round" stroke="rgb(0%, 0%, 0%)" stroke-opacity="1" stroke-miterlimit="10" d="M 34 149.523438 L 32.960938 145.441406 "/>
<path fill="none" stroke-width="0.75" stroke-linecap="round" stroke-linejoin="round" stroke="rgb(0%, 0%, 0%)" stroke-opacity="1" stroke-miterlimit="10" d="M 37.238281 149.828125 L 32.960938 145.441406 L 31.296875 151.339844 "/>
<path fill="none" stroke-width="0.75" stroke-linecap="round" stroke-linejoin="round" stroke="rgb(0%, 0%, 0%)" stroke-opacity="1" stroke-miterlimit="10" d="M 191.023438 224.183594 L 185.765625 222.1875 L 180.179688 219.867188 L 174.363281 217.207031 L 168.414062 214.203125 L 162.4375 210.839844 L 156.535156 207.113281 L 150.804688 203.003906 L 145.347656 198.511719 L 140.265625 193.617188 L 135.660156 188.3125 "/>
<path fill="none" stroke-width="0.75" stroke-linecap="round" stroke-linejoin="round" stroke="rgb(0%, 0%, 0%)" stroke-opacity="1" stroke-miterlimit="10" d="M 135.660156 188.3125 L 133.15625 184.464844 L 130.929688 180.324219 L 128.972656 175.964844 L 127.277344 171.457031 L 125.832031 166.875 L 124.625 162.292969 L 123.652344 157.785156 L 122.898438 153.425781 L 122.359375 149.285156 L 122.019531 145.441406 "/>
<path fill="none" stroke-width="0.75" stroke-linecap="round" stroke-linejoin="round" stroke="rgb(0%, 0%, 0%)" stroke-opacity="1" stroke-miterlimit="10" d="M 122.359375 149.285156 L 122.019531 145.441406 "/>
<path fill="none" stroke-width="0.75" stroke-linecap="round" stroke-linejoin="round" stroke="rgb(0%, 0%, 0%)" stroke-opacity="1" stroke-miterlimit="10" d="M 125.539062 150.460938 L 122.019531 145.441406 L 119.433594 150.996094 "/>
<path fill="none" stroke-width="0.75" stroke-linecap="round" stroke-linejoin="round" stroke="rgb(0%, 0%, 0%)" stroke-opacity="1" stroke-miterlimit="10" d="M 211.082031 214.558594 L 211.082031 145.441406 "/>
<path fill="none" stroke-width="0.75" stroke-linecap="round" stroke-linejoin="round" stroke="rgb(0%, 0%, 0%)" stroke-opacity="1" stroke-miterlimit="10" d="M 211.082031 151.34375 L 211.082031 145.441406 "/>
<path fill="none" stroke-width="0.75" stroke-linecap="round" stroke-linejoin="round" stroke="rgb(0%, 0%, 0%)" stroke-opacity="1" stroke-miterlimit="10" d="M 214.144531 150.75 L 211.082031 145.441406 L 208.015625 150.75 "/>
<path fill="none" stroke-width="0.75" stroke-linecap="round" stroke-linejoin="round" stroke="rgb(0%, 0%, 0%)" stroke-opacity="1" stroke-miterlimit="10" d="M 227.929688 221.558594 L 232.707031 219.070312 L 237.847656 216.335938 L 243.273438 213.386719 L 248.917969 210.234375 L 254.707031 206.90625 L 260.570312 203.417969 L 266.429688 199.792969 L 272.21875 196.054688 L 277.863281 192.21875 L 283.292969 188.3125 "/>
<path fill="none" stroke-width="0.75" stroke-linecap="round" stroke-linejoin="round" stroke="rgb(0%, 0%, 0%)" stroke-opacity="1" stroke-miterlimit="10" d="M 283.292969 188.3125 L 286.566406 185.527344 L 290.519531 181.984375 L 295.011719 177.824219 L 299.902344 173.179688 L 305.054688 168.1875 L 310.328125 162.988281 L 315.582031 157.714844 L 320.675781 152.503906 L 325.46875 147.492188 L 329.828125 142.816406 "/>
<path fill="none" stroke-width="0.75" stroke-linecap="round" stroke-linejoin="round" stroke="rgb(0%, 0%, 0%)" stroke-opacity="1" stroke-miterlimit="10" d="M 325.46875 147.492188 L 329.828125 142.816406 "/>
<path fill="none" stroke-width="0.75" stroke-linecap="round" stroke-linejoin="round" stroke="rgb(0%, 0%, 0%)" stroke-opacity="1" stroke-miterlimit="10" d="M 328.449219 148.789062 L 329.828125 142.816406 L 323.964844 144.609375 "/>
<path fill="none" stroke-width="0.75" stroke-linecap="round" stroke-linejoin="round" stroke="rgb(0%, 0%, 0%)" stroke-opacity="1" stroke-miterlimit="10" d="M 322.605469 122.691406 L 317.351562 120.695312 L 311.765625 118.367188 L 305.945312 115.691406 L 300 112.65625 L 294.023438 109.238281 L 288.117188 105.429688 L 282.386719 101.210938 L 276.929688 96.570312 L 271.847656 91.484375 L 267.246094 85.945312 "/>
<path fill="none" stroke-width="0.75" stroke-linecap="round" stroke-linejoin="round" stroke="rgb(0%, 0%, 0%)" stroke-opacity="1" stroke-miterlimit="10" d="M 267.246094 85.945312 L 264.738281 82.097656 L 262.515625 77.957031 L 260.558594 73.597656 L 258.863281 69.089844 L 257.414062 64.507812 L 256.210938 59.925781 L 255.238281 55.417969 L 254.484375 51.058594 L 253.941406 46.917969 L 253.605469 43.074219 "/>
<path fill="none" stroke-width="0.75" stroke-linecap="round" stroke-linejoin="round" stroke="rgb(0%, 0%, 0%)" stroke-opacity="1" stroke-miterlimit="10" d="M 253.941406 46.917969 L 253.605469 43.074219 "/>
<path fill="none" stroke-width="0.75" stroke-linecap="round" stroke-linejoin="round" stroke="rgb(0%, 0%, 0%)" stroke-opacity="1" stroke-miterlimit="10" d="M 257.125 48.089844 L 253.605469 43.074219 L 251.015625 48.628906 "/>
<path fill="none" stroke-width="0.75" stroke-linecap="round" stroke-linejoin="round" stroke="rgb(0%, 0%, 0%)" stroke-opacity="1" stroke-miterlimit="10" d="M 342.664062 113.066406 L 342.664062 43.074219 "/>
<path fill="none" stroke-width="0.75" stroke-linecap="round" stroke-linejoin="round" stroke="rgb(0%, 0%, 0%)" stroke-opacity="1" stroke-miterlimit="10" d="M 342.664062 49.214844 L 342.664062 43.074219 "/>
<path fill="none" stroke-width="0.75" stroke-linecap="round" stroke-linejoin="round" stroke="rgb(0%, 0%, 0%)" stroke-opacity="1" stroke-miterlimit="10" d="M 345.730469 48.378906 L 342.664062 43.074219 L 339.601562 48.378906 "/>
<path fill="none" stroke-width="0.75" stroke-linecap="round" stroke-linejoin="round" stroke="rgb(0%, 0%, 0%)" stroke-opacity="1" stroke-miterlimit="10" d="M 361.117188 121.816406 L 366.328125 119.820312 L 371.792969 117.496094 L 377.429688 114.839844 L 383.160156 111.835938 L 388.898438 108.472656 L 394.566406 104.746094 L 400.078125 100.636719 L 405.355469 96.140625 L 410.316406 91.25 L 414.875 85.945312 "/>
<path fill="none" stroke-width="0.75" stroke-linecap="round" stroke-linejoin="round" stroke="rgb(0%, 0%, 0%)" stroke-opacity="1" stroke-miterlimit="10" d="M 414.875 85.945312 L 417.402344 82.097656 L 419.695312 77.957031 L 421.757812 73.597656 L 423.59375 69.089844 L 425.207031 64.507812 L 426.601562 59.925781 L 427.789062 55.417969 L 428.765625 51.058594 L 429.542969 46.917969 L 430.121094 43.074219 "/>
<path fill="none" stroke-width="0.75" stroke-linecap="round" stroke-linejoin="round" stroke="rgb(0%, 0%, 0%)" stroke-opacity="1" stroke-miterlimit="10" d="M 429.542969 46.917969 L 430.121094 43.074219 "/>
<path fill="none" stroke-width="0.75" stroke-linecap="round" stroke-linejoin="round" stroke="rgb(0%, 0%, 0%)" stroke-opacity="1" stroke-miterlimit="10" d="M 432.363281 48.777344 L 430.121094 43.074219 L 426.300781 47.867188 "/>
<path fill="none" stroke-width="0.75" stroke-linecap="round" stroke-linejoin="round" stroke="rgb(0%, 0%, 0%)" stroke-opacity="1" stroke-miterlimit="10" d="M 303.351562 316.925781 L 296.402344 310.476562 L 288.695312 303.320312 L 280.429688 295.652344 L 271.808594 287.65625 L 263.03125 279.523438 L 254.304688 271.445312 L 245.828125 263.605469 L 237.800781 256.199219 L 230.429688 249.414062 L 223.917969 243.433594 "/>
<path fill="none" stroke-width="0.75" stroke-linecap="round" stroke-linejoin="round" stroke="rgb(0%, 0%, 0%)" stroke-opacity="1" stroke-miterlimit="10" d="M 230.429688 249.414062 L 223.917969 243.433594 "/>
<path fill="none" stroke-width="0.75" stroke-linecap="round" stroke-linejoin="round" stroke="rgb(0%, 0%, 0%)" stroke-opacity="1" stroke-miterlimit="10" d="M 229.902344 244.765625 L 223.917969 243.433594 L 225.753906 249.28125 "/>
<path fill="none" stroke-width="0.75" stroke-linecap="round" stroke-linejoin="round" stroke="rgb(0%, 0%, 0%)" stroke-opacity="1" stroke-miterlimit="10" d="M 331.433594 316.050781 L 332.898438 313.875 L 334.402344 311.558594 L 335.9375 309.117188 L 337.492188 306.5625 L 339.054688 303.914062 L 340.617188 301.1875 L 342.171875 298.394531 L 343.703125 295.558594 L 345.210938 292.6875 L 346.675781 289.804688 "/>
<path fill="none" stroke-width="0.75" stroke-linecap="round" stroke-linejoin="round" stroke="rgb(0%, 0%, 0%)" stroke-opacity="1" stroke-miterlimit="10" d="M 346.675781 289.804688 L 351.535156 277.796875 L 355.59375 267.238281 L 358.96875 257.738281 L 361.773438 248.914062 L 364.128906 240.371094 L 366.144531 231.722656 L 367.941406 222.582031 L 369.628906 212.558594 L 371.328125 201.265625 L 373.152344 188.3125 "/>
<path fill="none" stroke-width="0.75" stroke-linecap="round" stroke-linejoin="round" stroke="rgb(0%, 0%, 0%)" stroke-opacity="1" stroke-miterlimit="10" d="M 373.152344 188.3125 L 373.390625 186.335938 L 373.617188 184.574219 L 373.8125 182.980469 L 373.960938 181.507812 L 374.054688 180.109375 L 374.078125 178.738281 L 374.011719 177.34375 L 373.847656 175.878906 L 373.566406 174.304688 L 373.152344 172.5625 "/>
<path fill="none" stroke-width="0.75" stroke-linecap="round" stroke-linejoin="round" stroke="rgb(0%, 0%, 0%)" stroke-opacity="1" stroke-miterlimit="10" d="M 373.152344 172.5625 L 371.835938 169.179688 L 370.308594 165.859375 L 368.613281 162.609375 L 366.773438 159.445312 L 364.828125 156.375 L 362.8125 153.414062 L 360.757812 150.5625 L 358.699219 147.839844 L 356.667969 145.253906 L 354.699219 142.816406 "/>
<path fill="none" stroke-width="0.75" stroke-linecap="round" stroke-linejoin="round" stroke="rgb(0%, 0%, 0%)" stroke-opacity="1" stroke-miterlimit="10" d="M 356.667969 145.253906 L 354.699219 142.816406 "/>
<path fill="none" stroke-width="0.75" stroke-linecap="round" stroke-linejoin="round" stroke="rgb(0%, 0%, 0%)" stroke-opacity="1" stroke-miterlimit="10" d="M 360.417969 145.023438 L 354.699219 142.816406 L 355.648438 148.871094 "/>
</svg>
