<?xml version="1.0" encoding="UTF-8"?>
<svg xmlns="http://www.w3.org/2000/svg" xmlns:xlink="http://www.w3.org/1999/xlink" width="504pt" height="360pt" viewBox="0 0 504 360">
<defs>
<g>
<g id="glyph-0-0">
<path d="M 3.40625 -3.75 L 0.546875 -3.75 L 0.546875 -2.875 L 3.40625 -2.875 Z M 3.40625 -3.75 "/>
</g>
<g id="glyph-0-1">
<path d="M 3.109375 -6.1875 L 3.109375 0 L 4.15625 0 L 4.15625 -8.671875 L 3.46875 -8.671875 C 3.09375 -7.34375 2.859375 -7.15625 1.21875 -6.953125 L 1.21875 -6.1875 Z M 3.109375 -6.1875 "/>
</g>
<g id="glyph-0-2">
<path d="M 2.296875 -1.25 L 1.046875 -1.25 L 1.046875 0 L 2.296875 0 Z M 2.296875 -1.25 "/>
</g>
<g id="glyph-0-3">
<path d="M 3.296875 -8.671875 C 2.515625 -8.671875 1.78125 -8.3125 1.34375 -7.734375 C 0.796875 -6.953125 0.515625 -5.8125 0.515625 -4.203125 C 0.515625 -1.265625 1.46875 0.28125 3.296875 0.28125 C 5.09375 0.28125 6.078125 -1.265625 6.078125 -4.125 C 6.078125 -5.8125 5.8125 -6.9375 5.25 -7.734375 C 4.8125 -8.328125 4.109375 -8.671875 3.296875 -8.671875 Z M 3.296875 -7.734375 C 4.4375 -7.734375 5 -6.578125 5 -4.21875 C 5 -1.75 4.453125 -0.59375 3.28125 -0.59375 C 2.15625 -0.59375 1.59375 -1.796875 1.59375 -4.1875 C 1.59375 -6.578125 2.15625 -7.734375 3.296875 -7.734375 Z M 3.296875 -7.734375 "/>
</g>
<g id="glyph-0-4">
<path d="M 5.71875 -8.515625 L 1.3125 -8.515625 L 0.6875 -3.875 L 1.65625 -3.875 C 2.140625 -4.46875 2.5625 -4.671875 3.234375 -4.671875 C 4.375 -4.671875 5.078125 -3.890625 5.078125 -2.625 C 5.078125 -1.40625 4.375 -0.65625 3.21875 -0.65625 C 2.296875 -0.65625 1.734375 -1.125 1.46875 -2.09375 L 0.421875 -2.09375 C 0.5625 -1.390625 0.6875 -1.0625 0.9375 -0.75 C 1.421875 -0.09375 2.28125 0.28125 3.234375 0.28125 C 4.953125 0.28125 6.15625 -0.96875 6.15625 -2.765625 C 6.15625 -4.453125 5.046875 -5.609375 3.40625 -5.609375 C 2.8125 -5.609375 2.328125 -5.453125 1.84375 -5.09375 L 2.171875 -7.46875 L 5.71875 -7.46875 Z M 5.71875 -8.515625 "/>
</g>
<g id="glyph-0-5">
<path d="M 3.5 -3.25 L 5.609375 -6.28125 L 4.484375 -6.28125 L 2.96875 -4.015625 L 1.46875 -6.28125 L 0.328125 -6.28125 L 2.421875 -3.203125 L 0.203125 0 L 1.34375 0 L 2.9375 -2.40625 L 4.515625 0 L 5.671875 0 Z M 3.5 -3.25 "/>
</g>
<g id="glyph-1-0">
<path d="M -3.75 -3.40625 L -3.75 -0.546875 L -2.875 -0.546875 L -2.875 -3.40625 Z M -3.75 -3.40625 "/>
</g>
<g id="glyph-1-1">
<path d="M -1.046875 -6.078125 L -1.046875 -1.59375 C -1.765625 -1.703125 -2.21875 -2.09375 -2.859375 -3.125 L -3.53125 -4.328125 C -4.1875 -5.515625 -5.078125 -6.125 -6.140625 -6.125 C -6.859375 -6.125 -7.53125 -5.84375 -8 -5.34375 C -8.453125 -4.84375 -8.671875 -4.21875 -8.671875 -3.40625 C -8.671875 -2.328125 -8.296875 -1.53125 -7.546875 -1.0625 C -7.09375 -0.75 -6.546875 -0.625 -5.671875 -0.59375 L -5.671875 -1.65625 C -6.265625 -1.6875 -6.609375 -1.765625 -6.90625 -1.90625 C -7.421875 -2.1875 -7.75 -2.734375 -7.75 -3.375 C -7.75 -4.328125 -7.0625 -5.046875 -6.125 -5.046875 C -5.421875 -5.046875 -4.828125 -4.65625 -4.390625 -3.90625 L -3.75 -2.796875 C -2.71875 -1.015625 -1.90625 -0.5 -0.015625 -0.40625 L -0.015625 -6.078125 Z M -1.046875 -6.078125 "/>
</g>
<g id="glyph-1-2">
<path d="M -1.25 -2.296875 L -1.25 -1.046875 L 0 -1.046875 L 0 -2.296875 Z M -1.25 -2.296875 "/>
</g>
<g id="glyph-1-3">
<path d="M -8.515625 -5.71875 L -8.515625 -1.3125 L -3.875 -0.6875 L -3.875 -1.65625 C -4.46875 -2.140625 -4.671875 -2.5625 -4.671875 -3.234375 C -4.671875 -4.375 -3.890625 -5.078125 -2.625 -5.078125 C -1.40625 -5.078125 -0.65625 -4.375 -0.65625 -3.21875 C -0.65625 -2.296875 -1.125 -1.734375 -2.09375 -1.46875 L -2.09375 -0.421875 C -1.390625 -0.5625 -1.0625 -0.6875 -0.75 -0.9375 C -0.09375 -1.421875 0.28125 -2.28125 0.28125 -3.234375 C 0.28125 -4.953125 -0.96875 -6.15625 -2.765625 -6.15625 C -4.453125 -6.15625 -5.609375 -5.046875 -5.609375 -3.40625 C -5.609375 -2.8125 -5.453125 -2.328125 -5.09375 -1.84375 L -7.46875 -2.171875 L -7.46875 -5.71875 Z M -8.515625 -5.71875 "/>
</g>
<g id="glyph-1-4">
<path d="M -8.671875 -3.296875 C -8.671875 -2.515625 -8.3125 -1.78125 -7.734375 -1.34375 C -6.953125 -0.796875 -5.8125 -0.515625 -4.203125 -0.515625 C -1.265625 -0.515625 0.28125 -1.46875 0.28125 -3.296875 C 0.28125 -5.09375 -1.265625 -6.078125 -4.125 -6.078125 C -5.8125 -6.078125 -6.9375 -5.8125 -7.734375 -5.25 C -8.328125 -4.8125 -8.671875 -4.109375 -8.671875 -3.296875 Z M -7.734375 -3.296875 C -7.734375 -4.4375 -6.578125 -5 -4.21875 -5 C -1.75 -5 -0.59375 -4.453125 -0.59375 -3.28125 C -0.59375 -2.15625 -1.796875 -1.59375 -4.1875 -1.59375 C -6.578125 -1.59375 -7.734375 -2.15625 -7.734375 -3.296875 Z M -7.734375 -3.296875 "/>
</g>
<g id="glyph-1-5">
<path d="M -6.1875 -3.109375 L 0 -3.109375 L 0 -4.15625 L -8.671875 -4.15625 L -8.671875 -3.46875 C -7.34375 -3.09375 -7.15625 -2.859375 -6.953125 -1.21875 L -6.1875 -1.21875 Z M -6.1875 -3.109375 "/>
</g>
<g id="glyph-1-6">
<path d="M -6.28125 -3.09375 L -6.28125 -2.046875 L -7.265625 -2.046875 C -7.6875 -2.046875 -7.90625 -2.28125 -7.90625 -2.75 C -7.90625 -2.828125 -7.90625 -2.875 -7.890625 -3.09375 L -8.71875 -3.09375 C -8.765625 -2.875 -8.78125 -2.734375 -8.78125 -2.53125 C -8.78125 -1.609375 -8.25 -1.0625 -7.359375 -1.0625 L -6.28125 -1.0625 L -6.28125 -0.21875 L -5.46875 -0.21875 L -5.46875 -1.0625 L 0 -1.0625 L 0 -2.046875 L -5.46875 -2.046875 L -5.46875 -3.09375 Z M -6.28125 -3.09375 "/>
</g>
<g id="glyph-1-7">
<path d="M -8.75 -2.828125 C -7.171875 -1.625 -4.984375 -0.875 -3.109375 -0.875 C -1.21875 -0.875 0.96875 -1.625 2.546875 -2.828125 L 2.546875 -3.484375 C 0.828125 -2.4375 -1.1875 -1.84375 -3.109375 -1.84375 C -5.015625 -1.84375 -7.046875 -2.4375 -8.75 -3.484375 Z M -8.75 -2.828125 "/>
</g>
<g id="glyph-1-8">
<path d="M -3.25 -3.5 L -6.28125 -5.609375 L -6.28125 -4.484375 L -4.015625 -2.96875 L -6.28125 -1.46875 L -6.28125 -0.328125 L -3.203125 -2.421875 L 0 -0.203125 L 0 -1.34375 L -2.40625 -2.9375 L 0 -4.515625 L 0 -5.671875 Z M -3.25 -3.5 "/>
</g>
<g id="glyph-1-9">
<path d="M 2.546875 -1.109375 C 0.96875 -2.3125 -1.21875 -3.078125 -3.09375 -3.078125 C -4.984375 -3.078125 -7.171875 -2.3125 -8.75 -1.109375 L -8.75 -0.453125 C -7.03125 -1.515625 -5.015625 -2.09375 -3.09375 -2.09375 C -1.1875 -2.09375 0.84375 -1.515625 2.546875 -0.453125 Z M 2.546875 -1.109375 "/>
</g>
</g>
<clipPath id="clip-0">
<path clip-rule="nonzero" d="M 74 59.039062 L 459 59.039062 L 459 286.558594 L 74 286.558594 Z M 74 59.039062 "/>
</clipPath>
</defs>
<rect x="-50.4" y="-36" width="604.8" height="432" fill="rgb(100%, 100%, 100%)" fill-opacity="1"/>
<path fill="none" stroke-width="0.75" stroke-linecap="round" stroke-linejoin="round" stroke="rgb(0%, 0%, 0%)" stroke-opacity="1" stroke-miterlimit="10" d="M 74.398438 278.132812 L 78.277344 274.023438 L 82.15625 269.957031 L 86.035156 265.929688 L 89.914062 261.945312 L 93.792969 257.996094 L 97.671875 254.089844 L 101.550781 250.226562 L 105.429688 246.402344 L 109.308594 242.617188 L 113.1875 238.871094 L 117.066406 235.167969 L 120.945312 231.503906 L 124.824219 227.882812 L 128.703125 224.296875 L 132.582031 220.757812 L 136.460938 217.253906 L 140.339844 213.792969 L 144.21875 210.371094 L 148.097656 206.992188 L 151.976562 203.652344 L 155.855469 200.351562 L 159.734375 197.09375 L 163.613281 193.875 L 167.492188 190.695312 L 171.371094 187.554688 L 175.25 184.457031 L 179.128906 181.402344 L 183.007812 178.382812 L 186.886719 175.40625 L 190.761719 172.472656 L 194.640625 169.574219 L 198.519531 166.722656 L 202.398438 163.90625 L 206.277344 161.132812 L 210.15625 158.398438 L 214.035156 155.703125 L 217.914062 153.050781 L 221.792969 150.4375 L 225.671875 147.863281 L 229.550781 145.332031 L 233.429688 142.839844 L 237.308594 140.390625 L 241.1875 137.980469 L 245.066406 135.609375 L 248.945312 133.277344 L 252.824219 130.988281 L 256.703125 128.738281 L 260.582031 126.53125 L 264.460938 124.363281 L 268.339844 122.234375 L 272.21875 120.148438 L 276.097656 118.101562 L 279.976562 116.09375 L 283.855469 114.128906 L 287.734375 112.203125 L 291.613281 110.316406 L 295.492188 108.472656 L 299.371094 106.667969 L 303.25 104.902344 L 307.128906 103.179688 L 311.007812 101.496094 L 314.886719 99.851562 L 318.761719 98.25 L 322.640625 96.6875 L 326.519531 95.164062 L 330.398438 93.683594 L 334.277344 92.242188 L 338.15625 90.84375 L 342.035156 89.480469 L 345.914062 88.160156 L 349.792969 86.882812 L 353.671875 85.644531 L 357.550781 84.445312 L 361.429688 83.285156 L 365.308594 82.167969 L 369.1875 81.09375 L 373.066406 80.054688 L 376.945312 79.058594 L 380.824219 78.101562 L 384.703125 77.1875 L 388.582031 76.3125 L 392.460938 75.476562 L 396.339844 74.683594 L 400.21875 73.929688 L 404.097656 73.214844 L 407.976562 72.542969 L 411.855469 71.910156 L 415.734375 71.316406 L 419.613281 70.765625 L 423.492188 70.253906 L 427.371094 69.78125 L 431.25 69.351562 L 435.128906 68.960938 L 439.007812 68.609375 L 442.886719 68.300781 L 446.761719 68.03125 L 450.640625 67.804688 L 454.519531 67.613281 L 458.398438 67.464844 "/>
<path fill="none" stroke-width="0.75" stroke-linecap="round" stroke-linejoin="round" stroke="rgb(0%, 0%, 0%)" stroke-opacity="1" stroke-miterlimit="10" d="M 74.398438 286.558594 L 458.398438 286.558594 "/>
<path fill="none" stroke-width="0.75" stroke-linecap="round" stroke-linejoin="round" stroke="rgb(0%, 0%, 0%)" stroke-opacity="1" stroke-miterlimit="10" d="M 74.398438 286.558594 L 74.398438 293.761719 "/>
<path fill="none" stroke-width="0.75" stroke-linecap="round" stroke-linejoin="round" stroke="rgb(0%, 0%, 0%)" stroke-opacity="1" stroke-miterlimit="10" d="M 170.398438 286.558594 L 170.398438 293.761719 "/>
<path fill="none" stroke-width="0.75" stroke-linecap="round" stroke-linejoin="round" stroke="rgb(0%, 0%, 0%)" stroke-opacity="1" stroke-miterlimit="10" d="M 266.398438 286.558594 L 266.398438 293.761719 "/>
<path fill="none" stroke-width="0.75" stroke-linecap="round" stroke-linejoin="round" stroke="rgb(0%, 0%, 0%)" stroke-opacity="1" stroke-miterlimit="10" d="M 362.398438 286.558594 L 362.398438 293.761719 "/>
<path fill="none" stroke-width="0.75" stroke-linecap="round" stroke-linejoin="round" stroke="rgb(0%, 0%, 0%)" stroke-opacity="1" stroke-miterlimit="10" d="M 458.398438 286.558594 L 458.398438 293.761719 "/>
<g fill="rgb(0%, 0%, 0%)" fill-opacity="1">
<use xlink:href="#glyph-0-0" x="64.058594" y="312.480469"/>
<use xlink:href="#glyph-0-1" x="68.054594" y="312.480469"/>
<use xlink:href="#glyph-0-2" x="74.726594" y="312.480469"/>
<use xlink:href="#glyph-0-3" x="78.062594" y="312.480469"/>
</g>
<g fill="rgb(0%, 0%, 0%)" fill-opacity="1">
<use xlink:href="#glyph-0-0" x="160.058594" y="312.480469"/>
<use xlink:href="#glyph-0-3" x="164.054594" y="312.480469"/>
<use xlink:href="#glyph-0-2" x="170.726594" y="312.480469"/>
<use xlink:href="#glyph-0-4" x="174.062594" y="312.480469"/>
</g>
<g fill="rgb(0%, 0%, 0%)" fill-opacity="1">
<use xlink:href="#glyph-0-3" x="258.058594" y="312.480469"/>
<use xlink:href="#glyph-0-2" x="264.730594" y="312.480469"/>
<use xlink:href="#glyph-0-3" x="268.066594" y="312.480469"/>
</g>
<g fill="rgb(0%, 0%, 0%)" fill-opacity="1">
<use xlink:href="#glyph-0-3" x="354.058594" y="312.480469"/>
<use xlink:href="#glyph-0-2" x="360.730594" y="312.480469"/>
<use xlink:href="#glyph-0-4" x="364.066594" y="312.480469"/>
</g>
<g fill="rgb(0%, 0%, 0%)" fill-opacity="1">
<use xlink:href="#glyph-0-1" x="450.058594" y="312.480469"/>
<use xlink:href="#glyph-0-2" x="456.730594" y="312.480469"/>
<use xlink:href="#glyph-0-3" x="460.066594" y="312.480469"/>
</g>
<path fill="none" stroke-width="0.75" stroke-linecap="round" stroke-linejoin="round" stroke="rgb(0%, 0%, 0%)" stroke-opacity="1" stroke-miterlimit="10" d="M 59.039062 268.28125 L 59.039062 110.902344 "/>
<path fill="none" stroke-width="0.75" stroke-linecap="round" stroke-linejoin="round" stroke="rgb(0%, 0%, 0%)" stroke-opacity="1" stroke-miterlimit="10" d="M 59.039062 268.28125 L 51.839844 268.28125 "/>
<path fill="none" stroke-width="0.75" stroke-linecap="round" stroke-linejoin="round" stroke="rgb(0%, 0%, 0%)" stroke-opacity="1" stroke-miterlimit="10" d="M 59.039062 215.824219 L 51.839844 215.824219 "/>
<path fill="none" stroke-width="0.75" stroke-linecap="round" stroke-linejoin="round" stroke="rgb(0%, 0%, 0%)" stroke-opacity="1" stroke-miterlimit="10" d="M 59.039062 163.363281 L 51.839844 163.363281 "/>
<path fill="none" stroke-width="0.75" stroke-linecap="round" stroke-linejoin="round" stroke="rgb(0%, 0%, 0%)" stroke-opacity="1" stroke-miterlimit="10" d="M 59.039062 110.902344 L 51.839844 110.902344 "/>
<g fill="rgb(0%, 0%, 0%)" fill-opacity="1">
<use xlink:href="#glyph-1-0" x="41.761719" y="278.621094"/>
<use xlink:href="#glyph-1-1" x="41.761719" y="274.625094"/>
<use xlink:href="#glyph-1-2" x="41.761719" y="267.953094"/>
<use xlink:href="#glyph-1-3" x="41.761719" y="264.617094"/>
</g>
<g fill="rgb(0%, 0%, 0%)" fill-opacity="1">
<use xlink:href="#glyph-1-0" x="41.761719" y="226.164062"/>
<use xlink:href="#glyph-1-1" x="41.761719" y="222.168062"/>
<use xlink:href="#glyph-1-2" x="41.761719" y="215.496062"/>
<use xlink:href="#glyph-1-4" x="41.761719" y="212.160062"/>
</g>
<g fill="rgb(0%, 0%, 0%)" fill-opacity="1">
<use xlink:href="#glyph-1-0" x="41.761719" y="173.703125"/>
<use xlink:href="#glyph-1-5" x="41.761719" y="169.707125"/>
<use xlink:href="#glyph-1-2" x="41.761719" y="163.035125"/>
<use xlink:href="#glyph-1-3" x="41.761719" y="159.699125"/>
</g>
<g fill="rgb(0%, 0%, 0%)" fill-opacity="1">
<use xlink:href="#glyph-1-0" x="41.761719" y="121.242188"/>
<use xlink:href="#glyph-1-5" x="41.761719" y="117.246188"/>
<use xlink:href="#glyph-1-2" x="41.761719" y="110.574188"/>
<use xlink:href="#glyph-1-4" x="41.761719" y="107.238188"/>
</g>
<path fill="none" stroke-width="0.75" stroke-linecap="round" stroke-linejoin="round" stroke="rgb(0%, 0%, 0%)" stroke-opacity="1" stroke-miterlimit="10" d="M 59.039062 286.558594 L 473.761719 286.558594 L 473.761719 59.039062 L 59.039062 59.039062 Z M 59.039062 286.558594 "/>
<g fill="rgb(0%, 0%, 0%)" fill-opacity="1">
<use xlink:href="#glyph-0-5" x="263.398438" y="341.28125"/>
</g>
<g fill="rgb(0%, 0%, 0%)" fill-opacity="1">
<use xlink:href="#glyph-1-6" x="12.960938" y="181.464844"/>
<use xlink:href="#glyph-1-7" x="12.960938" y="178.128844"/>
<use xlink:href="#glyph-1-8" x="12.960938" y="174.132844"/>
<use xlink:href="#glyph-1-9" x="12.960938" y="168.132844"/>
</g>
<g clip-path="url(#clip-0)">
<path fill-rule="nonzero" fill="rgb(0%, 0%, 0%)" fill-opacity="0.2" d="M 74.398438 311.195312 L 78.277344 306.621094 L 82.15625 302.109375 L 86.035156 297.652344 L 89.914062 293.257812 L 93.792969 288.917969 L 97.671875 284.636719 L 101.550781 280.414062 L 105.429688 276.253906 L 109.308594 272.144531 L 113.1875 268.097656 L 117.066406 264.109375 L 120.945312 260.175781 L 124.824219 256.304688 L 128.703125 252.488281 L 132.582031 248.726562 L 136.460938 245.023438 L 140.339844 241.378906 L 144.21875 237.789062 L 148.097656 234.257812 L 151.976562 230.78125 L 155.855469 227.359375 L 159.734375 223.992188 L 163.613281 220.679688 L 167.492188 217.421875 L 171.371094 214.214844 L 175.25 211.066406 L 179.128906 207.964844 L 183.007812 204.921875 L 186.886719 201.925781 L 190.761719 198.984375 L 194.640625 196.089844 L 198.519531 193.25 L 202.398438 190.457031 L 206.277344 187.714844 L 210.15625 185.019531 L 214.035156 182.375 L 217.914062 179.777344 L 221.792969 177.226562 L 225.671875 174.726562 L 229.550781 172.269531 L 233.429688 169.855469 L 237.308594 167.492188 L 241.1875 165.171875 L 245.066406 162.898438 L 248.945312 160.667969 L 252.824219 158.480469 L 256.703125 156.335938 L 260.582031 154.238281 L 264.460938 152.179688 L 268.339844 150.167969 L 272.21875 148.195312 L 276.097656 146.265625 L 279.976562 144.378906 L 283.855469 142.53125 L 287.734375 140.726562 L 291.613281 138.960938 L 295.492188 137.238281 L 299.371094 135.558594 L 303.25 133.914062 L 307.128906 132.3125 L 311.007812 130.753906 L 314.886719 129.230469 L 318.761719 127.75 L 322.640625 126.308594 L 326.519531 124.90625 L 330.398438 123.542969 L 334.277344 122.222656 L 338.15625 120.9375 L 342.035156 119.695312 L 345.914062 118.488281 L 349.792969 117.324219 L 353.671875 116.195312 L 357.550781 115.109375 L 361.429688 114.058594 L 365.308594 113.050781 L 369.1875 112.082031 L 373.066406 111.148438 L 376.945312 110.257812 L 380.824219 109.402344 L 384.703125 108.589844 L 388.582031 107.816406 L 392.460938 107.082031 L 396.339844 106.386719 L 400.21875 105.730469 L 404.097656 105.113281 L 407.976562 104.535156 L 411.855469 103.996094 L 415.734375 103.5 L 419.613281 103.042969 L 423.492188 102.625 L 427.371094 102.246094 L 431.25 101.910156 L 435.128906 101.613281 L 439.007812 101.355469 L 442.886719 101.140625 L 446.761719 100.964844 L 450.640625 100.832031 L 454.519531 100.738281 L 458.398438 100.6875 L 458.398438 34.246094 L 454.519531 34.488281 L 450.640625 34.773438 L 446.761719 35.097656 L 442.886719 35.460938 L 439.007812 35.863281 L 435.128906 36.308594 L 431.25 36.792969 L 427.371094 37.316406 L 423.492188 37.882812 L 419.613281 38.488281 L 415.734375 39.132812 L 411.855469 39.820312 L 407.976562 40.546875 L 404.097656 41.316406 L 400.21875 42.128906 L 396.339844 42.980469 L 392.460938 43.871094 L 388.582031 44.808594 L 384.703125 45.785156 L 380.824219 46.800781 L 376.945312 47.859375 L 373.066406 48.960938 L 369.1875 50.105469 L 365.308594 51.289062 L 361.429688 52.515625 L 357.550781 53.78125 L 353.671875 55.089844 L 349.792969 56.441406 L 345.914062 57.835938 L 342.035156 59.269531 L 338.15625 60.746094 L 334.277344 62.265625 L 330.398438 63.824219 L 326.519531 65.421875 L 322.640625 67.066406 L 318.761719 68.746094 L 314.886719 70.472656 L 311.007812 72.238281 L 307.128906 74.042969 L 303.25 75.886719 L 299.371094 77.773438 L 295.492188 79.703125 L 291.613281 81.667969 L 287.734375 83.675781 L 283.855469 85.722656 L 279.976562 87.808594 L 276.097656 89.9375 L 272.21875 92.101562 L 268.339844 94.304688 L 264.460938 96.546875 L 260.582031 98.824219 L 256.703125 101.144531 L 252.824219 103.5 L 248.945312 105.890625 L 245.066406 108.320312 L 241.1875 110.785156 L 237.308594 113.289062 L 233.429688 115.824219 L 229.550781 118.398438 L 225.671875 121.003906 L 221.792969 123.648438 L 217.914062 126.324219 L 214.035156 129.03125 L 210.15625 131.773438 L 206.277344 134.546875 L 202.398438 137.355469 L 198.519531 140.191406 L 194.640625 143.0625 L 190.761719 145.960938 L 186.886719 148.890625 L 183.007812 151.847656 L 179.128906 154.835938 L 175.25 157.851562 L 171.371094 160.898438 L 167.492188 163.96875 L 163.613281 167.066406 L 159.734375 170.195312 L 155.855469 173.34375 L 151.976562 176.523438 L 148.097656 179.726562 L 144.21875 182.953125 L 140.339844 186.207031 L 136.460938 189.484375 L 132.582031 192.785156 L 128.703125 196.109375 L 124.824219 199.460938 L 120.945312 202.832031 L 117.066406 206.226562 L 113.1875 209.644531 L 109.308594 213.085938 L 105.429688 216.550781 L 101.550781 220.035156 L 97.671875 223.546875 L 93.792969 227.078125 L 89.914062 230.628906 L 86.035156 234.207031 L 82.15625 237.804688 L 78.277344 241.429688 L 74.398438 245.074219 Z M 74.398438 311.195312 "/>
</g>
</svg>
