<?xml version="1.0" encoding="UTF-8"?>
<svg xmlns="http://www.w3.org/2000/svg" xmlns:xlink="http://www.w3.org/1999/xlink" width="525pt" height="324pt" viewBox="0 0 525 324">
<defs>
<g>
<g id="glyph-0-0">
<path d="M 2.640625 -6.9375 C 2 -6.9375 1.421875 -6.65625 1.078125 -6.171875 C 0.640625 -5.5625 0.40625 -4.640625 0.40625 -3.359375 C 0.40625 -1.015625 1.1875 0.21875 2.640625 0.21875 C 4.078125 0.21875 4.859375 -1.015625 4.859375 -3.296875 C 4.859375 -4.640625 4.65625 -5.546875 4.203125 -6.171875 C 3.84375 -6.65625 3.28125 -6.9375 2.640625 -6.9375 Z M 2.640625 -6.1875 C 3.546875 -6.1875 4 -5.25 4 -3.375 C 4 -1.40625 3.5625 -0.484375 2.625 -0.484375 C 1.734375 -0.484375 1.28125 -1.4375 1.28125 -3.34375 C 1.28125 -5.25 1.734375 -6.1875 2.640625 -6.1875 Z M 2.640625 -6.1875 "/>
</g>
<g id="glyph-0-1">
<path d="M 1.828125 -1 L 0.828125 -1 L 0.828125 0 L 1.828125 0 Z M 1.828125 -1 "/>
</g>
<g id="glyph-0-2">
<path d="M 4.5625 -6.796875 L 1.0625 -6.796875 L 0.546875 -3.09375 L 1.328125 -3.09375 C 1.71875 -3.5625 2.046875 -3.734375 2.578125 -3.734375 C 3.484375 -3.734375 4.0625 -3.109375 4.0625 -2.09375 C 4.0625 -1.125 3.484375 -0.53125 2.578125 -0.53125 C 1.828125 -0.53125 1.375 -0.90625 1.1875 -1.671875 L 0.328125 -1.671875 C 0.453125 -1.109375 0.546875 -0.84375 0.75 -0.59375 C 1.125 -0.078125 1.828125 0.21875 2.59375 0.21875 C 3.96875 0.21875 4.921875 -0.78125 4.921875 -2.21875 C 4.921875 -3.5625 4.03125 -4.484375 2.71875 -4.484375 C 2.25 -4.484375 1.859375 -4.359375 1.46875 -4.0625 L 1.734375 -5.96875 L 4.5625 -5.96875 Z M 4.5625 -6.796875 "/>
</g>
<g id="glyph-0-3">
<path d="M 2.125 -3.1875 L 2.578125 -3.1875 C 3.5 -3.1875 3.984375 -2.765625 3.984375 -1.921875 C 3.984375 -1.0625 3.46875 -0.53125 2.59375 -0.53125 C 1.65625 -0.53125 1.203125 -1 1.15625 -2.015625 L 0.3125 -2.015625 C 0.34375 -1.453125 0.4375 -1.09375 0.609375 -0.78125 C 0.953125 -0.109375 1.625 0.21875 2.546875 0.21875 C 3.953125 0.21875 4.859375 -0.625 4.859375 -1.9375 C 4.859375 -2.828125 4.515625 -3.296875 3.703125 -3.59375 C 4.34375 -3.84375 4.65625 -4.328125 4.65625 -5.03125 C 4.65625 -6.21875 3.875 -6.9375 2.578125 -6.9375 C 1.203125 -6.9375 0.484375 -6.171875 0.453125 -4.703125 L 1.296875 -4.703125 C 1.3125 -5.125 1.34375 -5.359375 1.453125 -5.578125 C 1.640625 -5.96875 2.0625 -6.203125 2.59375 -6.203125 C 3.34375 -6.203125 3.796875 -5.75 3.796875 -5 C 3.796875 -4.515625 3.609375 -4.21875 3.25 -4.046875 C 3.015625 -3.953125 2.703125 -3.921875 2.125 -3.90625 Z M 2.125 -3.1875 "/>
</g>
<g id="glyph-0-4">
</g>
<g id="glyph-0-5">
<path d="M 2.265625 -7 C 1.3125 -5.734375 0.703125 -3.984375 0.703125 -2.484375 C 0.703125 -0.96875 1.3125 0.78125 2.265625 2.03125 L 2.796875 2.03125 C 1.953125 0.65625 1.484375 -0.953125 1.484375 -2.484375 C 1.484375 -4.015625 1.953125 -5.625 2.796875 -7 Z M 2.265625 -7 "/>
</g>
<g id="glyph-0-6">
<path d="M 3.140625 -1.671875 L 3.140625 0 L 3.984375 0 L 3.984375 -1.671875 L 4.984375 -1.671875 L 4.984375 -2.4375 L 3.984375 -2.4375 L 3.984375 -6.9375 L 3.359375 -6.9375 L 0.265625 -2.578125 L 0.265625 -1.671875 Z M 3.140625 -2.4375 L 1 -2.4375 L 3.140625 -5.5 Z M 3.140625 -2.4375 "/>
</g>
<g id="glyph-0-7">
<path d="M 0.515625 -1.578125 C 0.671875 -0.453125 1.40625 0.21875 2.4375 0.21875 C 3.1875 0.21875 3.859375 -0.140625 4.265625 -0.765625 C 4.6875 -1.453125 4.890625 -2.296875 4.890625 -3.546875 C 4.890625 -4.71875 4.703125 -5.453125 4.3125 -6.078125 C 3.9375 -6.640625 3.34375 -6.9375 2.59375 -6.9375 C 1.296875 -6.9375 0.359375 -5.96875 0.359375 -4.625 C 0.359375 -3.34375 1.234375 -2.453125 2.453125 -2.453125 C 3.09375 -2.453125 3.578125 -2.671875 4.015625 -3.203125 C 4 -1.484375 3.46875 -0.53125 2.5 -0.53125 C 1.90625 -0.53125 1.484375 -0.90625 1.359375 -1.578125 Z M 2.578125 -6.203125 C 3.375 -6.203125 3.96875 -5.53125 3.96875 -4.640625 C 3.96875 -3.796875 3.390625 -3.1875 2.546875 -3.1875 C 1.734375 -3.1875 1.234375 -3.765625 1.234375 -4.6875 C 1.234375 -5.5625 1.796875 -6.203125 2.578125 -6.203125 Z M 2.578125 -6.203125 "/>
</g>
<g id="glyph-0-8">
<path d="M 2.0625 -5.03125 L 1.0625 -5.03125 L 1.0625 -4.03125 L 2.0625 -4.03125 Z M 1.0625 -1 L 1.0625 0 L 1.625 0 L 1.625 0.171875 C 1.625 0.828125 1.5 1.03125 1.0625 1.046875 L 1.0625 1.40625 C 1.6875 1.421875 2.0625 0.96875 2.0625 0.15625 L 2.0625 -1 Z M 1.0625 -1 "/>
</g>
<g id="glyph-0-9">
<path d="M 3.75 -3.65625 C 4.46875 -4.09375 4.6875 -4.4375 4.6875 -5.078125 C 4.6875 -6.171875 3.84375 -6.9375 2.640625 -6.9375 C 1.4375 -6.9375 0.59375 -6.171875 0.59375 -5.09375 C 0.59375 -4.4375 0.8125 -4.09375 1.515625 -3.65625 C 0.734375 -3.265625 0.359375 -2.703125 0.359375 -1.921875 C 0.359375 -0.65625 1.28125 0.21875 2.640625 0.21875 C 3.984375 0.21875 4.921875 -0.65625 4.921875 -1.921875 C 4.921875 -2.703125 4.53125 -3.265625 3.75 -3.65625 Z M 2.640625 -6.1875 C 3.359375 -6.1875 3.8125 -5.75 3.8125 -5.0625 C 3.8125 -4.40625 3.34375 -3.984375 2.640625 -3.984375 C 1.921875 -3.984375 1.453125 -4.40625 1.453125 -5.078125 C 1.453125 -5.75 1.921875 -6.1875 2.640625 -6.1875 Z M 2.640625 -3.265625 C 3.484375 -3.265625 4.0625 -2.71875 4.0625 -1.90625 C 4.0625 -1.078125 3.484375 -0.53125 2.625 -0.53125 C 1.796875 -0.53125 1.21875 -1.09375 1.21875 -1.90625 C 1.21875 -2.71875 1.78125 -3.265625 2.640625 -3.265625 Z M 2.640625 -3.265625 "/>
</g>
<g id="glyph-0-10">
<path d="M 0.890625 2.03125 C 1.859375 0.78125 2.453125 -0.96875 2.453125 -2.46875 C 2.453125 -3.984375 1.859375 -5.734375 0.890625 -7 L 0.359375 -7 C 1.203125 -5.625 1.671875 -4.015625 1.671875 -2.46875 C 1.671875 -0.953125 1.203125 0.671875 0.359375 2.03125 Z M 0.890625 2.03125 "/>
</g>
<g id="glyph-0-11">
<path d="M 4.78125 -5.125 C 4.609375 -6.265625 3.890625 -6.9375 2.84375 -6.9375 C 2.09375 -6.9375 1.421875 -6.578125 1.03125 -5.953125 C 0.59375 -5.265625 0.40625 -4.421875 0.40625 -3.171875 C 0.40625 -2 0.578125 -1.25 0.984375 -0.640625 C 1.359375 -0.078125 1.953125 0.21875 2.703125 0.21875 C 3.984375 0.21875 4.921875 -0.75 4.921875 -2.09375 C 4.921875 -3.375 4.0625 -4.28125 2.84375 -4.28125 C 2.171875 -4.28125 1.640625 -4.03125 1.28125 -3.515625 C 1.28125 -5.234375 1.828125 -6.1875 2.796875 -6.1875 C 3.390625 -6.1875 3.796875 -5.796875 3.9375 -5.125 Z M 2.734375 -3.53125 C 3.546875 -3.53125 4.0625 -2.953125 4.0625 -2.03125 C 4.0625 -1.15625 3.484375 -0.53125 2.703125 -0.53125 C 1.921875 -0.53125 1.328125 -1.1875 1.328125 -2.078125 C 1.328125 -2.9375 1.90625 -3.53125 2.734375 -3.53125 Z M 2.734375 -3.53125 "/>
</g>
<g id="glyph-0-12">
<path d="M 2.484375 -4.9375 L 2.484375 0 L 3.328125 0 L 3.328125 -6.9375 L 2.765625 -6.9375 C 2.46875 -5.875 2.28125 -5.734375 0.984375 -5.5625 L 0.984375 -4.9375 Z M 2.484375 -4.9375 "/>
</g>
<g id="glyph-1-0">
<path d="M 3.296875 -8.671875 C 2.515625 -8.671875 1.78125 -8.3125 1.34375 -7.734375 C 0.796875 -6.953125 0.515625 -5.8125 0.515625 -4.203125 C 0.515625 -1.265625 1.46875 0.28125 3.296875 0.28125 C 5.09375 0.28125 6.078125 -1.265625 6.078125 -4.125 C 6.078125 -5.8125 5.8125 -6.9375 5.25 -7.734375 C 4.8125 -8.328125 4.109375 -8.671875 3.296875 -8.671875 Z M 3.296875 -7.734375 C 4.4375 -7.734375 5 -6.578125 5 -4.21875 C 5 -1.75 4.453125 -0.59375 3.28125 -0.59375 C 2.15625 -0.59375 1.59375 -1.796875 1.59375 -4.1875 C 1.59375 -6.578125 2.15625 -7.734375 3.296875 -7.734375 Z M 3.296875 -7.734375 "/>
</g>
<g id="glyph-1-1">
<path d="M 2.296875 -1.25 L 1.046875 -1.25 L 1.046875 0 L 2.296875 0 Z M 2.296875 -1.25 "/>
</g>
<g id="glyph-1-2">
<path d="M 3.921875 -2.09375 L 3.921875 0 L 4.984375 0 L 4.984375 -2.09375 L 6.234375 -2.09375 L 6.234375 -3.046875 L 4.984375 -3.046875 L 4.984375 -8.671875 L 4.203125 -8.671875 L 0.34375 -3.21875 L 0.34375 -2.09375 Z M 3.921875 -3.046875 L 1.265625 -3.046875 L 3.921875 -6.875 Z M 3.921875 -3.046875 "/>
</g>
<g id="glyph-1-3">
<path d="M 5.71875 -8.515625 L 1.3125 -8.515625 L 0.6875 -3.875 L 1.65625 -3.875 C 2.140625 -4.46875 2.5625 -4.671875 3.234375 -4.671875 C 4.375 -4.671875 5.078125 -3.890625 5.078125 -2.625 C 5.078125 -1.40625 4.375 -0.65625 3.21875 -0.65625 C 2.296875 -0.65625 1.734375 -1.125 1.46875 -2.09375 L 0.421875 -2.09375 C 0.5625 -1.390625 0.6875 -1.0625 0.9375 -0.75 C 1.421875 -0.09375 2.28125 0.28125 3.234375 0.28125 C 4.953125 0.28125 6.15625 -0.96875 6.15625 -2.765625 C 6.15625 -4.453125 5.046875 -5.609375 3.40625 -5.609375 C 2.8125 -5.609375 2.328125 -5.453125 1.84375 -5.09375 L 2.171875 -7.46875 L 5.71875 -7.46875 Z M 5.71875 -8.515625 "/>
</g>
<g id="glyph-1-4">
<path d="M 5.96875 -6.421875 C 5.765625 -7.84375 4.859375 -8.671875 3.5625 -8.671875 C 2.625 -8.671875 1.78125 -8.21875 1.28125 -7.4375 C 0.75 -6.59375 0.515625 -5.53125 0.515625 -3.953125 C 0.515625 -2.5 0.71875 -1.578125 1.234375 -0.796875 C 1.6875 -0.09375 2.4375 0.28125 3.375 0.28125 C 4.984375 0.28125 6.15625 -0.9375 6.15625 -2.625 C 6.15625 -4.21875 5.078125 -5.359375 3.546875 -5.359375 C 2.71875 -5.359375 2.046875 -5.046875 1.59375 -4.40625 C 1.609375 -6.546875 2.28125 -7.734375 3.484375 -7.734375 C 4.234375 -7.734375 4.75 -7.265625 4.921875 -6.421875 Z M 3.421875 -4.421875 C 4.4375 -4.421875 5.078125 -3.703125 5.078125 -2.546875 C 5.078125 -1.453125 4.359375 -0.65625 3.390625 -0.65625 C 2.40625 -0.65625 1.65625 -1.484375 1.65625 -2.59375 C 1.65625 -3.671875 2.375 -4.421875 3.421875 -4.421875 Z M 3.421875 -4.421875 "/>
</g>
<g id="glyph-1-5">
<path d="M 6.234375 -8.515625 L 0.546875 -8.515625 L 0.546875 -7.46875 L 5.140625 -7.46875 C 3.125 -4.578125 2.296875 -2.796875 1.65625 0 L 2.78125 0 C 3.25 -2.71875 4.3125 -5.0625 6.234375 -7.625 Z M 6.234375 -8.515625 "/>
</g>
<g id="glyph-1-6">
<path d="M 4.65625 -6.28125 L 2.921875 -1.390625 L 1.3125 -6.28125 L 0.234375 -6.28125 L 2.359375 0.03125 L 1.984375 1.015625 C 1.8125 1.46875 1.59375 1.625 1.171875 1.625 C 1.015625 1.625 0.859375 1.609375 0.640625 1.5625 L 0.640625 2.453125 C 0.859375 2.5625 1.0625 2.609375 1.3125 2.609375 C 1.640625 2.609375 1.984375 2.515625 2.25 2.3125 C 2.5625 2.09375 2.75 1.828125 2.9375 1.3125 L 5.734375 -6.28125 Z M 4.65625 -6.28125 "/>
</g>
<g id="glyph-1-7">
<path d="M 6.078125 -1.046875 L 1.59375 -1.046875 C 1.703125 -1.765625 2.09375 -2.21875 3.125 -2.859375 L 4.328125 -3.53125 C 5.515625 -4.1875 6.125 -5.078125 6.125 -6.140625 C 6.125 -6.859375 5.84375 -7.53125 5.34375 -8 C 4.84375 -8.453125 4.21875 -8.671875 3.40625 -8.671875 C 2.328125 -8.671875 1.53125 -8.296875 1.0625 -7.546875 C 0.75 -7.09375 0.625 -6.546875 0.59375 -5.671875 L 1.65625 -5.671875 C 1.6875 -6.265625 1.765625 -6.609375 1.90625 -6.90625 C 2.1875 -7.421875 2.734375 -7.75 3.375 -7.75 C 4.328125 -7.75 5.046875 -7.0625 5.046875 -6.125 C 5.046875 -5.421875 4.65625 -4.828125 3.90625 -4.390625 L 2.796875 -3.75 C 1.015625 -2.71875 0.5 -1.90625 0.40625 -0.015625 L 6.078125 -0.015625 Z M 6.078125 -1.046875 "/>
</g>
<g id="glyph-1-8">
<path d="M 2.5625 -1.25 L 1.3125 -1.25 L 1.3125 0 L 2.5625 0 Z M 2.5625 -6.28125 L 1.3125 -6.28125 L 1.3125 -5.046875 L 2.5625 -5.046875 Z M 2.5625 -6.28125 "/>
</g>
<g id="glyph-1-9">
<path d="M 2.828125 -8.75 C 1.625 -7.171875 0.875 -4.984375 0.875 -3.109375 C 0.875 -1.21875 1.625 0.96875 2.828125 2.546875 L 3.484375 2.546875 C 2.4375 0.828125 1.84375 -1.1875 1.84375 -3.109375 C 1.84375 -5.015625 2.4375 -7.046875 3.484375 -8.75 Z M 2.828125 -8.75 "/>
</g>
<g id="glyph-1-10">
<path d="M 2.328125 -8.75 L 1.203125 -8.75 L 1.203125 0 L 2.328125 0 Z M 2.328125 -8.75 "/>
</g>
<g id="glyph-1-11">
<path d="M 0.84375 -6.28125 L 0.84375 0 L 1.84375 0 L 1.84375 -3.46875 C 1.84375 -4.75 2.515625 -5.59375 3.546875 -5.59375 C 4.34375 -5.59375 4.84375 -5.109375 4.84375 -4.359375 L 4.84375 0 L 5.84375 0 L 5.84375 -4.75 C 5.84375 -5.796875 5.0625 -6.46875 3.859375 -6.46875 C 2.921875 -6.46875 2.3125 -6.109375 1.765625 -5.234375 L 1.765625 -6.28125 Z M 0.84375 -6.28125 "/>
</g>
<g id="glyph-1-12">
<path d="M 3.046875 -6.28125 L 2.015625 -6.28125 L 2.015625 -8.015625 L 1.015625 -8.015625 L 1.015625 -6.28125 L 0.171875 -6.28125 L 0.171875 -5.46875 L 1.015625 -5.46875 L 1.015625 -0.71875 C 1.015625 -0.078125 1.453125 0.28125 2.234375 0.28125 C 2.5 0.28125 2.71875 0.25 3.046875 0.1875 L 3.046875 -0.640625 C 2.90625 -0.609375 2.765625 -0.59375 2.5625 -0.59375 C 2.140625 -0.59375 2.015625 -0.71875 2.015625 -1.15625 L 2.015625 -5.46875 L 3.046875 -5.46875 Z M 3.046875 -6.28125 "/>
</g>
<g id="glyph-1-13">
<path d="M 6.15625 -2.8125 C 6.15625 -3.765625 6.078125 -4.34375 5.90625 -4.8125 C 5.5 -5.84375 4.53125 -6.46875 3.359375 -6.46875 C 1.609375 -6.46875 0.484375 -5.140625 0.484375 -3.0625 C 0.484375 -0.984375 1.5625 0.28125 3.34375 0.28125 C 4.78125 0.28125 5.765625 -0.546875 6.03125 -1.90625 L 5.015625 -1.90625 C 4.734375 -1.078125 4.171875 -0.640625 3.375 -0.640625 C 2.734375 -0.640625 2.203125 -0.9375 1.859375 -1.46875 C 1.625 -1.828125 1.53125 -2.1875 1.53125 -2.8125 Z M 1.546875 -3.625 C 1.625 -4.78125 2.34375 -5.546875 3.34375 -5.546875 C 4.375 -5.546875 5.078125 -4.75 5.078125 -3.625 Z M 1.546875 -3.625 "/>
</g>
<g id="glyph-1-14">
<path d="M 0.828125 -6.28125 L 0.828125 0 L 1.84375 0 L 1.84375 -3.265625 C 1.84375 -4.78125 2.46875 -5.453125 3.859375 -5.40625 L 3.859375 -6.4375 C 3.6875 -6.453125 3.59375 -6.46875 3.46875 -6.46875 C 2.8125 -6.46875 2.328125 -6.078125 1.75 -5.140625 L 1.75 -6.28125 Z M 0.828125 -6.28125 "/>
</g>
<g id="glyph-1-15">
<path d="M 5.65625 -4.171875 C 5.609375 -4.78125 5.46875 -5.1875 5.234375 -5.53125 C 4.796875 -6.125 4.046875 -6.46875 3.171875 -6.46875 C 1.46875 -6.46875 0.375 -5.125 0.375 -3.03125 C 0.375 -1.015625 1.453125 0.28125 3.15625 0.28125 C 4.65625 0.28125 5.609375 -0.625 5.71875 -2.15625 L 4.71875 -2.15625 C 4.546875 -1.15625 4.03125 -0.640625 3.1875 -0.640625 C 2.078125 -0.640625 1.421875 -1.546875 1.421875 -3.03125 C 1.421875 -4.609375 2.0625 -5.546875 3.15625 -5.546875 C 4 -5.546875 4.53125 -5.046875 4.640625 -4.171875 Z M 5.65625 -4.171875 "/>
</g>
<g id="glyph-1-16">
<path d="M 0.640625 2.609375 L 1.65625 2.609375 L 1.65625 -0.65625 C 2.1875 -0.015625 2.765625 0.28125 3.59375 0.28125 C 5.21875 0.28125 6.28125 -1.03125 6.28125 -3.03125 C 6.28125 -5.140625 5.25 -6.46875 3.578125 -6.46875 C 2.71875 -6.46875 2.046875 -6.078125 1.578125 -5.34375 L 1.578125 -6.28125 L 0.640625 -6.28125 Z M 3.40625 -5.53125 C 4.515625 -5.53125 5.234375 -4.5625 5.234375 -3.0625 C 5.234375 -1.625 4.5 -0.65625 3.40625 -0.65625 C 2.34375 -0.65625 1.65625 -1.625 1.65625 -3.09375 C 1.65625 -4.578125 2.34375 -5.53125 3.40625 -5.53125 Z M 3.40625 -5.53125 "/>
</g>
<g id="glyph-1-17">
<path d="M 1.109375 2.546875 C 2.3125 0.96875 3.078125 -1.21875 3.078125 -3.09375 C 3.078125 -4.984375 2.3125 -7.171875 1.109375 -8.75 L 0.453125 -8.75 C 1.515625 -7.03125 2.09375 -5.015625 2.09375 -3.09375 C 2.09375 -1.1875 1.515625 0.84375 0.453125 2.546875 Z M 1.109375 2.546875 "/>
</g>
<g id="glyph-1-18">
<path d="M 3.109375 -6.1875 L 3.109375 0 L 4.15625 0 L 4.15625 -8.671875 L 3.46875 -8.671875 C 3.09375 -7.34375 2.859375 -7.15625 1.21875 -6.953125 L 1.21875 -6.1875 Z M 3.109375 -6.1875 "/>
</g>
</g>
<clipPath id="clip-0">
<path clip-rule="nonzero" d="M 181 14.398438 L 183 14.398438 L 183 266.398438 L 181 266.398438 Z M 181 14.398438 "/>
</clipPath>
</defs>
<g fill="rgb(0%, 0%, 0%)" fill-opacity="1">
<use xlink:href="#glyph-0-0" x="405.8125" y="230.231445"/>
<use xlink:href="#glyph-0-1" x="410.8125" y="230.231445"/>
<use xlink:href="#glyph-0-2" x="413.8125" y="230.231445"/>
<use xlink:href="#glyph-0-3" x="418.8125" y="230.231445"/>
<use xlink:href="#glyph-0-4" x="423.8125" y="230.231445"/>
<use xlink:href="#glyph-0-5" x="426.8125" y="230.231445"/>
<use xlink:href="#glyph-0-0" x="429.8125" y="230.231445"/>
<use xlink:href="#glyph-0-1" x="434.8125" y="230.231445"/>
<use xlink:href="#glyph-0-6" x="437.8125" y="230.231445"/>
<use xlink:href="#glyph-0-7" x="442.8125" y="230.231445"/>
<use xlink:href="#glyph-0-8" x="447.8125" y="230.231445"/>
<use xlink:href="#glyph-0-4" x="450.8125" y="230.231445"/>
<use xlink:href="#glyph-0-0" x="453.8125" y="230.231445"/>
<use xlink:href="#glyph-0-1" x="458.8125" y="230.231445"/>
<use xlink:href="#glyph-0-2" x="461.8125" y="230.231445"/>
<use xlink:href="#glyph-0-9" x="466.8125" y="230.231445"/>
<use xlink:href="#glyph-0-10" x="471.8125" y="230.231445"/>
</g>
<g fill="rgb(0%, 0%, 0%)" fill-opacity="1">
<use xlink:href="#glyph-0-0" x="405.8125" y="171.895508"/>
<use xlink:href="#glyph-0-1" x="410.8125" y="171.895508"/>
<use xlink:href="#glyph-0-11" x="413.8125" y="171.895508"/>
<use xlink:href="#glyph-0-12" x="418.8125" y="171.895508"/>
<use xlink:href="#glyph-0-4" x="423.8125" y="171.895508"/>
<use xlink:href="#glyph-0-5" x="426.8125" y="171.895508"/>
<use xlink:href="#glyph-0-0" x="429.8125" y="171.895508"/>
<use xlink:href="#glyph-0-1" x="434.8125" y="171.895508"/>
<use xlink:href="#glyph-0-2" x="437.8125" y="171.895508"/>
<use xlink:href="#glyph-0-11" x="442.8125" y="171.895508"/>
<use xlink:href="#glyph-0-8" x="447.8125" y="171.895508"/>
<use xlink:href="#glyph-0-4" x="450.8125" y="171.895508"/>
<use xlink:href="#glyph-0-0" x="453.8125" y="171.895508"/>
<use xlink:href="#glyph-0-1" x="458.8125" y="171.895508"/>
<use xlink:href="#glyph-0-11" x="461.8125" y="171.895508"/>
<use xlink:href="#glyph-0-11" x="466.8125" y="171.895508"/>
<use xlink:href="#glyph-0-10" x="471.8125" y="171.895508"/>
</g>
<g fill="rgb(0%, 0%, 0%)" fill-opacity="1">
<use xlink:href="#glyph-0-0" x="405.8125" y="113.563477"/>
<use xlink:href="#glyph-0-1" x="410.8125" y="113.563477"/>
<use xlink:href="#glyph-0-2" x="413.8125" y="113.563477"/>
<use xlink:href="#glyph-0-3" x="418.8125" y="113.563477"/>
<use xlink:href="#glyph-0-4" x="423.8125" y="113.563477"/>
<use xlink:href="#glyph-0-5" x="426.8125" y="113.563477"/>
<use xlink:href="#glyph-0-0" x="429.8125" y="113.563477"/>
<use xlink:href="#glyph-0-1" x="434.8125" y="113.563477"/>
<use xlink:href="#glyph-0-6" x="437.8125" y="113.563477"/>
<use xlink:href="#glyph-0-7" x="442.8125" y="113.563477"/>
<use xlink:href="#glyph-0-8" x="447.8125" y="113.563477"/>
<use xlink:href="#glyph-0-4" x="450.8125" y="113.563477"/>
<use xlink:href="#glyph-0-0" x="453.8125" y="113.563477"/>
<use xlink:href="#glyph-0-1" x="458.8125" y="113.563477"/>
<use xlink:href="#glyph-0-2" x="461.8125" y="113.563477"/>
<use xlink:href="#glyph-0-9" x="466.8125" y="113.563477"/>
<use xlink:href="#glyph-0-10" x="471.8125" y="113.563477"/>
</g>
<g fill="rgb(0%, 0%, 0%)" fill-opacity="1">
<use xlink:href="#glyph-0-0" x="405.8125" y="55.231445"/>
<use xlink:href="#glyph-0-1" x="410.8125" y="55.231445"/>
<use xlink:href="#glyph-0-11" x="413.8125" y="55.231445"/>
<use xlink:href="#glyph-0-12" x="418.8125" y="55.231445"/>
<use xlink:href="#glyph-0-4" x="423.8125" y="55.231445"/>
<use xlink:href="#glyph-0-5" x="426.8125" y="55.231445"/>
<use xlink:href="#glyph-0-0" x="429.8125" y="55.231445"/>
<use xlink:href="#glyph-0-1" x="434.8125" y="55.231445"/>
<use xlink:href="#glyph-0-2" x="437.8125" y="55.231445"/>
<use xlink:href="#glyph-0-11" x="442.8125" y="55.231445"/>
<use xlink:href="#glyph-0-8" x="447.8125" y="55.231445"/>
<use xlink:href="#glyph-0-4" x="450.8125" y="55.231445"/>
<use xlink:href="#glyph-0-0" x="453.8125" y="55.231445"/>
<use xlink:href="#glyph-0-1" x="458.8125" y="55.231445"/>
<use xlink:href="#glyph-0-11" x="461.8125" y="55.231445"/>
<use xlink:href="#glyph-0-11" x="466.8125" y="55.231445"/>
<use xlink:href="#glyph-0-10" x="471.8125" y="55.231445"/>
</g>
<path fill="none" stroke-width="0.75" stroke-linecap="round" stroke-linejoin="round" stroke="rgb(0%, 0%, 0%)" stroke-opacity="1" stroke-miterlimit="10" d="M 136.5625 266.398438 L 363.503906 266.398438 "/>
<path fill="none" stroke-width="0.75" stroke-linecap="round" stroke-linejoin="round" stroke="rgb(0%, 0%, 0%)" stroke-opacity="1" stroke-miterlimit="10" d="M 136.5625 266.398438 L 136.5625 273.601562 "/>
<path fill="none" stroke-width="0.75" stroke-linecap="round" stroke-linejoin="round" stroke="rgb(0%, 0%, 0%)" stroke-opacity="1" stroke-miterlimit="10" d="M 181.953125 266.398438 L 181.953125 273.601562 "/>
<path fill="none" stroke-width="0.75" stroke-linecap="round" stroke-linejoin="round" stroke="rgb(0%, 0%, 0%)" stroke-opacity="1" stroke-miterlimit="10" d="M 227.339844 266.398438 L 227.339844 273.601562 "/>
<path fill="none" stroke-width="0.75" stroke-linecap="round" stroke-linejoin="round" stroke="rgb(0%, 0%, 0%)" stroke-opacity="1" stroke-miterlimit="10" d="M 272.730469 266.398438 L 272.730469 273.601562 "/>
<path fill="none" stroke-width="0.75" stroke-linecap="round" stroke-linejoin="round" stroke="rgb(0%, 0%, 0%)" stroke-opacity="1" stroke-miterlimit="10" d="M 318.117188 266.398438 L 318.117188 273.601562 "/>
<path fill="none" stroke-width="0.75" stroke-linecap="round" stroke-linejoin="round" stroke="rgb(0%, 0%, 0%)" stroke-opacity="1" stroke-miterlimit="10" d="M 363.503906 266.398438 L 363.503906 273.601562 "/>
<g fill="rgb(0%, 0%, 0%)" fill-opacity="1">
<use xlink:href="#glyph-1-0" x="124.5625" y="292.068359"/>
<use xlink:href="#glyph-1-1" x="131.5625" y="292.068359"/>
<use xlink:href="#glyph-1-2" x="134.5625" y="292.068359"/>
<use xlink:href="#glyph-1-3" x="141.5625" y="292.068359"/>
</g>
<g fill="rgb(0%, 0%, 0%)" fill-opacity="1">
<use xlink:href="#glyph-1-0" x="169.953125" y="292.068359"/>
<use xlink:href="#glyph-1-1" x="176.953125" y="292.068359"/>
<use xlink:href="#glyph-1-3" x="179.953125" y="292.068359"/>
<use xlink:href="#glyph-1-0" x="186.953125" y="292.068359"/>
</g>
<g fill="rgb(0%, 0%, 0%)" fill-opacity="1">
<use xlink:href="#glyph-1-0" x="215.339844" y="292.068359"/>
<use xlink:href="#glyph-1-1" x="222.339844" y="292.068359"/>
<use xlink:href="#glyph-1-3" x="225.339844" y="292.068359"/>
<use xlink:href="#glyph-1-3" x="232.339844" y="292.068359"/>
</g>
<g fill="rgb(0%, 0%, 0%)" fill-opacity="1">
<use xlink:href="#glyph-1-0" x="260.730469" y="292.068359"/>
<use xlink:href="#glyph-1-1" x="267.730469" y="292.068359"/>
<use xlink:href="#glyph-1-4" x="270.730469" y="292.068359"/>
<use xlink:href="#glyph-1-0" x="277.730469" y="292.068359"/>
</g>
<g fill="rgb(0%, 0%, 0%)" fill-opacity="1">
<use xlink:href="#glyph-1-0" x="306.117188" y="292.068359"/>
<use xlink:href="#glyph-1-1" x="313.117188" y="292.068359"/>
<use xlink:href="#glyph-1-4" x="316.117188" y="292.068359"/>
<use xlink:href="#glyph-1-3" x="323.117188" y="292.068359"/>
</g>
<g fill="rgb(0%, 0%, 0%)" fill-opacity="1">
<use xlink:href="#glyph-1-0" x="351.503906" y="292.068359"/>
<use xlink:href="#glyph-1-1" x="358.503906" y="292.068359"/>
<use xlink:href="#glyph-1-5" x="361.503906" y="292.068359"/>
<use xlink:href="#glyph-1-0" x="368.503906" y="292.068359"/>
</g>
<g clip-path="url(#clip-0)">
<path fill="none" stroke-width="0.75" stroke-linecap="round" stroke-linejoin="round" stroke="rgb(82.745098%, 82.745098%, 82.745098%)" stroke-opacity="1" stroke-dasharray="3 3" stroke-miterlimit="10" d="M 181.953125 266.398438 L 181.953125 14.398438 "/>
</g>
<path fill="none" stroke-width="0.75" stroke-linecap="round" stroke-linejoin="round" stroke="rgb(0%, 0%, 0%)" stroke-opacity="1" stroke-miterlimit="10" d="M 169.355469 227.898438 L 258.09375 227.898438 "/>
<path fill="none" stroke-width="0.75" stroke-linecap="round" stroke-linejoin="round" stroke="rgb(0%, 0%, 0%)" stroke-opacity="1" stroke-miterlimit="10" d="M 238.417969 169.566406 L 325.195312 169.566406 "/>
<path fill="none" stroke-width="0.75" stroke-linecap="round" stroke-linejoin="round" stroke="rgb(0%, 0%, 0%)" stroke-opacity="1" stroke-miterlimit="10" d="M 169.355469 111.234375 L 258.09375 111.234375 "/>
<path fill="none" stroke-width="0.75" stroke-linecap="round" stroke-linejoin="round" stroke="rgb(0%, 0%, 0%)" stroke-opacity="1" stroke-miterlimit="10" d="M 238.417969 52.898438 L 325.195312 52.898438 "/>
<path fill="none" stroke-width="0.75" stroke-linecap="round" stroke-linejoin="round" stroke="rgb(0%, 0%, 0%)" stroke-opacity="1" stroke-miterlimit="10" d="M 169.355469 231.984375 L 169.355469 223.816406 "/>
<path fill="none" stroke-width="0.75" stroke-linecap="round" stroke-linejoin="round" stroke="rgb(0%, 0%, 0%)" stroke-opacity="1" stroke-miterlimit="10" d="M 238.417969 173.648438 L 238.417969 165.484375 "/>
<path fill="none" stroke-width="0.75" stroke-linecap="round" stroke-linejoin="round" stroke="rgb(0%, 0%, 0%)" stroke-opacity="1" stroke-miterlimit="10" d="M 169.355469 115.316406 L 169.355469 107.148438 "/>
<path fill="none" stroke-width="0.75" stroke-linecap="round" stroke-linejoin="round" stroke="rgb(0%, 0%, 0%)" stroke-opacity="1" stroke-miterlimit="10" d="M 238.417969 56.984375 L 238.417969 48.816406 "/>
<path fill="none" stroke-width="0.75" stroke-linecap="round" stroke-linejoin="round" stroke="rgb(0%, 0%, 0%)" stroke-opacity="1" stroke-miterlimit="10" d="M 258.09375 231.984375 L 258.09375 223.816406 "/>
<path fill="none" stroke-width="0.75" stroke-linecap="round" stroke-linejoin="round" stroke="rgb(0%, 0%, 0%)" stroke-opacity="1" stroke-miterlimit="10" d="M 325.195312 173.648438 L 325.195312 165.484375 "/>
<path fill="none" stroke-width="0.75" stroke-linecap="round" stroke-linejoin="round" stroke="rgb(0%, 0%, 0%)" stroke-opacity="1" stroke-miterlimit="10" d="M 258.09375 115.316406 L 258.09375 107.148438 "/>
<path fill="none" stroke-width="0.75" stroke-linecap="round" stroke-linejoin="round" stroke="rgb(0%, 0%, 0%)" stroke-opacity="1" stroke-miterlimit="10" d="M 325.195312 56.984375 L 325.195312 48.816406 "/>
<path fill-rule="nonzero" fill="rgb(0%, 0%, 0%)" fill-opacity="1" d="M 211.023438 230.601562 L 216.425781 230.601562 L 216.425781 225.199219 L 211.023438 225.199219 Z M 211.023438 230.601562 "/>
<path fill-rule="nonzero" fill="rgb(0%, 0%, 0%)" fill-opacity="1" d="M 279.105469 172.265625 L 284.507812 172.265625 L 284.507812 166.867188 L 279.105469 166.867188 Z M 279.105469 172.265625 "/>
<path fill-rule="nonzero" fill="rgb(0%, 0%, 0%)" fill-opacity="1" d="M 211.023438 113.933594 L 216.425781 113.933594 L 216.425781 108.535156 L 211.023438 108.535156 Z M 211.023438 113.933594 "/>
<path fill-rule="nonzero" fill="rgb(0%, 0%, 0%)" fill-opacity="1" d="M 279.105469 55.601562 L 284.507812 55.601562 L 284.507812 50.199219 L 279.105469 50.199219 Z M 279.105469 55.601562 "/>
<g fill="rgb(0%, 0%, 0%)" fill-opacity="1">
<use xlink:href="#glyph-1-6" x="19.800781" y="232.146484"/>
<use xlink:href="#glyph-1-7" x="25.800781" y="232.146484"/>
<use xlink:href="#glyph-1-8" x="32.800781" y="232.146484"/>
<use xlink:href="#glyph-1-9" x="35.800781" y="232.146484"/>
<use xlink:href="#glyph-1-10" x="39.800781" y="232.146484"/>
<use xlink:href="#glyph-1-11" x="42.800781" y="232.146484"/>
<use xlink:href="#glyph-1-12" x="49.800781" y="232.146484"/>
<use xlink:href="#glyph-1-13" x="52.800781" y="232.146484"/>
<use xlink:href="#glyph-1-14" x="59.800781" y="232.146484"/>
<use xlink:href="#glyph-1-15" x="63.800781" y="232.146484"/>
<use xlink:href="#glyph-1-13" x="69.800781" y="232.146484"/>
<use xlink:href="#glyph-1-16" x="76.800781" y="232.146484"/>
<use xlink:href="#glyph-1-12" x="83.800781" y="232.146484"/>
<use xlink:href="#glyph-1-17" x="86.800781" y="232.146484"/>
<use xlink:href="#glyph-1-1" x="90.800781" y="232.146484"/>
<use xlink:href="#glyph-1-18" x="93.800781" y="232.146484"/>
</g>
<g fill="rgb(0%, 0%, 0%)" fill-opacity="1">
<use xlink:href="#glyph-1-6" x="19.800781" y="173.814453"/>
<use xlink:href="#glyph-1-18" x="25.800781" y="173.814453"/>
<use xlink:href="#glyph-1-8" x="32.800781" y="173.814453"/>
<use xlink:href="#glyph-1-9" x="35.800781" y="173.814453"/>
<use xlink:href="#glyph-1-10" x="39.800781" y="173.814453"/>
<use xlink:href="#glyph-1-11" x="42.800781" y="173.814453"/>
<use xlink:href="#glyph-1-12" x="49.800781" y="173.814453"/>
<use xlink:href="#glyph-1-13" x="52.800781" y="173.814453"/>
<use xlink:href="#glyph-1-14" x="59.800781" y="173.814453"/>
<use xlink:href="#glyph-1-15" x="63.800781" y="173.814453"/>
<use xlink:href="#glyph-1-13" x="69.800781" y="173.814453"/>
<use xlink:href="#glyph-1-16" x="76.800781" y="173.814453"/>
<use xlink:href="#glyph-1-12" x="83.800781" y="173.814453"/>
<use xlink:href="#glyph-1-17" x="86.800781" y="173.814453"/>
<use xlink:href="#glyph-1-1" x="90.800781" y="173.814453"/>
<use xlink:href="#glyph-1-18" x="93.800781" y="173.814453"/>
</g>
<g fill="rgb(0%, 0%, 0%)" fill-opacity="1">
<use xlink:href="#glyph-1-6" x="29.800781" y="115.482422"/>
<use xlink:href="#glyph-1-7" x="35.800781" y="115.482422"/>
<use xlink:href="#glyph-1-8" x="42.800781" y="115.482422"/>
<use xlink:href="#glyph-1-9" x="45.800781" y="115.482422"/>
<use xlink:href="#glyph-1-10" x="49.800781" y="115.482422"/>
<use xlink:href="#glyph-1-11" x="52.800781" y="115.482422"/>
<use xlink:href="#glyph-1-12" x="59.800781" y="115.482422"/>
<use xlink:href="#glyph-1-13" x="62.800781" y="115.482422"/>
<use xlink:href="#glyph-1-14" x="69.800781" y="115.482422"/>
<use xlink:href="#glyph-1-15" x="73.800781" y="115.482422"/>
<use xlink:href="#glyph-1-13" x="79.800781" y="115.482422"/>
<use xlink:href="#glyph-1-16" x="86.800781" y="115.482422"/>
<use xlink:href="#glyph-1-12" x="93.800781" y="115.482422"/>
<use xlink:href="#glyph-1-17" x="96.800781" y="115.482422"/>
</g>
<g fill="rgb(0%, 0%, 0%)" fill-opacity="1">
<use xlink:href="#glyph-1-6" x="29.800781" y="57.146484"/>
<use xlink:href="#glyph-1-18" x="35.800781" y="57.146484"/>
<use xlink:href="#glyph-1-8" x="42.800781" y="57.146484"/>
<use xlink:href="#glyph-1-9" x="45.800781" y="57.146484"/>
<use xlink:href="#glyph-1-10" x="49.800781" y="57.146484"/>
<use xlink:href="#glyph-1-11" x="52.800781" y="57.146484"/>
<use xlink:href="#glyph-1-12" x="59.800781" y="57.146484"/>
<use xlink:href="#glyph-1-13" x="62.800781" y="57.146484"/>
<use xlink:href="#glyph-1-14" x="69.800781" y="57.146484"/>
<use xlink:href="#glyph-1-15" x="73.800781" y="57.146484"/>
<use xlink:href="#glyph-1-13" x="79.800781" y="57.146484"/>
<use xlink:href="#glyph-1-16" x="86.800781" y="57.146484"/>
<use xlink:href="#glyph-1-12" x="93.800781" y="57.146484"/>
<use xlink:href="#glyph-1-17" x="96.800781" y="57.146484"/>
</g>
</svg>
