<?xml version="1.0" encoding="UTF-8"?>
<svg xmlns="http://www.w3.org/2000/svg" xmlns:xlink="http://www.w3.org/1999/xlink" width="525pt" height="324pt" viewBox="0 0 525 324">
<defs>
<g>
<g id="glyph-0-0">
<path d="M 3.40625 -3.75 L 0.546875 -3.75 L 0.546875 -2.875 L 3.40625 -2.875 Z M 3.40625 -3.75 "/>
</g>
<g id="glyph-0-1">
<path d="M 3.921875 -2.09375 L 3.921875 0 L 4.984375 0 L 4.984375 -2.09375 L 6.234375 -2.09375 L 6.234375 -3.046875 L 4.984375 -3.046875 L 4.984375 -8.671875 L 4.203125 -8.671875 L 0.34375 -3.21875 L 0.34375 -2.09375 Z M 3.921875 -3.046875 L 1.265625 -3.046875 L 3.921875 -6.875 Z M 3.921875 -3.046875 "/>
</g>
<g id="glyph-0-2">
<path d="M 6.078125 -1.046875 L 1.59375 -1.046875 C 1.703125 -1.765625 2.09375 -2.21875 3.125 -2.859375 L 4.328125 -3.53125 C 5.515625 -4.1875 6.125 -5.078125 6.125 -6.140625 C 6.125 -6.859375 5.84375 -7.53125 5.34375 -8 C 4.84375 -8.453125 4.21875 -8.671875 3.40625 -8.671875 C 2.328125 -8.671875 1.53125 -8.296875 1.0625 -7.546875 C 0.75 -7.09375 0.625 -6.546875 0.59375 -5.671875 L 1.65625 -5.671875 C 1.6875 -6.265625 1.765625 -6.609375 1.90625 -6.90625 C 2.1875 -7.421875 2.734375 -7.75 3.375 -7.75 C 4.328125 -7.75 5.046875 -7.0625 5.046875 -6.125 C 5.046875 -5.421875 4.65625 -4.828125 3.90625 -4.390625 L 2.796875 -3.75 C 1.015625 -2.71875 0.5 -1.90625 0.40625 -0.015625 L 6.078125 -0.015625 Z M 6.078125 -1.046875 "/>
</g>
<g id="glyph-0-3">
<path d="M 3.296875 -8.671875 C 2.515625 -8.671875 1.78125 -8.3125 1.34375 -7.734375 C 0.796875 -6.953125 0.515625 -5.8125 0.515625 -4.203125 C 0.515625 -1.265625 1.46875 0.28125 3.296875 0.28125 C 5.09375 0.28125 6.078125 -1.265625 6.078125 -4.125 C 6.078125 -5.8125 5.8125 -6.9375 5.25 -7.734375 C 4.8125 -8.328125 4.109375 -8.671875 3.296875 -8.671875 Z M 3.296875 -7.734375 C 4.4375 -7.734375 5 -6.578125 5 -4.21875 C 5 -1.75 4.453125 -0.59375 3.28125 -0.59375 C 2.15625 -0.59375 1.59375 -1.796875 1.59375 -4.1875 C 1.59375 -6.578125 2.15625 -7.734375 3.296875 -7.734375 Z M 3.296875 -7.734375 "/>
</g>
<g id="glyph-0-4">
<path d="M 1.828125 -8.75 L 0.8125 -8.75 L 0.8125 0 L 1.828125 0 Z M 1.828125 -8.75 "/>
</g>
<g id="glyph-0-5">
<path d="M 1.796875 -6.28125 L 0.796875 -6.28125 L 0.796875 0 L 1.796875 0 Z M 1.796875 -8.75 L 0.796875 -8.75 L 0.796875 -7.484375 L 1.796875 -7.484375 Z M 1.796875 -8.75 "/>
</g>
<g id="glyph-0-6">
<path d="M 0.84375 -6.28125 L 0.84375 0 L 1.84375 0 L 1.84375 -3.46875 C 1.84375 -4.75 2.515625 -5.59375 3.546875 -5.59375 C 4.34375 -5.59375 4.84375 -5.109375 4.84375 -4.359375 L 4.84375 0 L 5.84375 0 L 5.84375 -4.75 C 5.84375 -5.796875 5.0625 -6.46875 3.859375 -6.46875 C 2.921875 -6.46875 2.3125 -6.109375 1.765625 -5.234375 L 1.765625 -6.28125 Z M 0.84375 -6.28125 "/>
</g>
<g id="glyph-0-7">
<path d="M 6.15625 -2.8125 C 6.15625 -3.765625 6.078125 -4.34375 5.90625 -4.8125 C 5.5 -5.84375 4.53125 -6.46875 3.359375 -6.46875 C 1.609375 -6.46875 0.484375 -5.140625 0.484375 -3.0625 C 0.484375 -0.984375 1.5625 0.28125 3.34375 0.28125 C 4.78125 0.28125 5.765625 -0.546875 6.03125 -1.90625 L 5.015625 -1.90625 C 4.734375 -1.078125 4.171875 -0.640625 3.375 -0.640625 C 2.734375 -0.640625 2.203125 -0.9375 1.859375 -1.46875 C 1.625 -1.828125 1.53125 -2.1875 1.53125 -2.8125 Z M 1.546875 -3.625 C 1.625 -4.78125 2.34375 -5.546875 3.34375 -5.546875 C 4.375 -5.546875 5.078125 -4.75 5.078125 -3.625 Z M 1.546875 -3.625 "/>
</g>
<g id="glyph-0-8">
<path d="M 6.421875 -0.59375 C 6.3125 -0.5625 6.265625 -0.5625 6.203125 -0.5625 C 5.859375 -0.5625 5.65625 -0.75 5.65625 -1.0625 L 5.65625 -4.75 C 5.65625 -5.875 4.84375 -6.46875 3.296875 -6.46875 C 2.375 -6.46875 1.640625 -6.203125 1.21875 -5.734375 C 0.921875 -5.40625 0.796875 -5.046875 0.78125 -4.421875 L 1.78125 -4.421875 C 1.875 -5.203125 2.328125 -5.546875 3.265625 -5.546875 C 4.171875 -5.546875 4.671875 -5.203125 4.671875 -4.609375 L 4.671875 -4.34375 C 4.65625 -3.90625 4.4375 -3.75 3.625 -3.640625 C 2.203125 -3.46875 1.984375 -3.421875 1.609375 -3.265625 C 0.875 -2.953125 0.5 -2.40625 0.5 -1.578125 C 0.5 -0.4375 1.296875 0.28125 2.5625 0.28125 C 3.359375 0.28125 4 0 4.703125 -0.640625 C 4.78125 0 5.09375 0.28125 5.734375 0.28125 C 5.953125 0.28125 6.078125 0.25 6.421875 0.171875 Z M 4.671875 -1.984375 C 4.671875 -1.640625 4.578125 -1.4375 4.265625 -1.15625 C 3.859375 -0.796875 3.375 -0.59375 2.78125 -0.59375 C 2 -0.59375 1.546875 -0.96875 1.546875 -1.609375 C 1.546875 -2.265625 1.984375 -2.609375 3.0625 -2.765625 C 4.125 -2.90625 4.328125 -2.953125 4.671875 -3.109375 Z M 4.671875 -1.984375 "/>
</g>
<g id="glyph-0-9">
<path d="M 0.828125 -6.28125 L 0.828125 0 L 1.84375 0 L 1.84375 -3.265625 C 1.84375 -4.78125 2.46875 -5.453125 3.859375 -5.40625 L 3.859375 -6.4375 C 3.6875 -6.453125 3.59375 -6.46875 3.46875 -6.46875 C 2.8125 -6.46875 2.328125 -6.078125 1.75 -5.140625 L 1.75 -6.28125 Z M 0.828125 -6.28125 "/>
</g>
<g id="glyph-0-10">
<path d="M 5.9375 2.609375 L 5.9375 -6.28125 L 5.046875 -6.28125 L 5.046875 -5.453125 C 4.578125 -6.109375 3.875 -6.46875 3.046875 -6.46875 C 1.390625 -6.46875 0.3125 -5.109375 0.3125 -3.03125 C 0.3125 -0.984375 1.328125 0.28125 3 0.28125 C 3.875 0.28125 4.46875 -0.03125 4.9375 -0.71875 L 4.9375 2.609375 Z M 3.1875 -5.53125 C 4.265625 -5.53125 4.9375 -4.578125 4.9375 -3.0625 C 4.9375 -1.625 4.25 -0.65625 3.1875 -0.65625 C 2.09375 -0.65625 1.359375 -1.625 1.359375 -3.09375 C 1.359375 -4.5625 2.09375 -5.53125 3.1875 -5.53125 Z M 3.1875 -5.53125 "/>
</g>
<g id="glyph-0-11">
<path d="M 5.78125 0 L 5.78125 -6.28125 L 4.78125 -6.28125 L 4.78125 -2.71875 C 4.78125 -1.4375 4.109375 -0.59375 3.078125 -0.59375 C 2.28125 -0.59375 1.78125 -1.078125 1.78125 -1.84375 L 1.78125 -6.28125 L 0.78125 -6.28125 L 0.78125 -1.4375 C 0.78125 -0.390625 1.5625 0.28125 2.78125 0.28125 C 3.703125 0.28125 4.296875 -0.046875 4.890625 -0.875 L 4.890625 0 Z M 5.78125 0 "/>
</g>
<g id="glyph-0-12">
<path d="M 5.9375 -8.75 L 4.9375 -8.75 L 4.9375 -5.5 C 4.53125 -6.125 3.859375 -6.46875 3.015625 -6.46875 C 1.375 -6.46875 0.3125 -5.15625 0.3125 -3.15625 C 0.3125 -1.03125 1.34375 0.28125 3.046875 0.28125 C 3.90625 0.28125 4.515625 -0.046875 5.046875 -0.828125 L 5.046875 0 L 5.9375 0 Z M 3.1875 -5.53125 C 4.265625 -5.53125 4.9375 -4.578125 4.9375 -3.078125 C 4.9375 -1.625 4.25 -0.65625 3.1875 -0.65625 C 2.09375 -0.65625 1.359375 -1.625 1.359375 -3.09375 C 1.359375 -4.5625 2.09375 -5.53125 3.1875 -5.53125 Z M 3.1875 -5.53125 "/>
</g>
<g id="glyph-0-13">
<path d="M 3.046875 -6.28125 L 2.015625 -6.28125 L 2.015625 -8.015625 L 1.015625 -8.015625 L 1.015625 -6.28125 L 0.171875 -6.28125 L 0.171875 -5.46875 L 1.015625 -5.46875 L 1.015625 -0.71875 C 1.015625 -0.078125 1.453125 0.28125 2.234375 0.28125 C 2.5 0.28125 2.71875 0.25 3.046875 0.1875 L 3.046875 -0.640625 C 2.90625 -0.609375 2.765625 -0.59375 2.5625 -0.59375 C 2.140625 -0.59375 2.015625 -0.71875 2.015625 -1.15625 L 2.015625 -5.46875 L 3.046875 -5.46875 Z M 3.046875 -6.28125 "/>
</g>
<g id="glyph-0-14">
<path d="M 5.65625 -4.171875 C 5.609375 -4.78125 5.46875 -5.1875 5.234375 -5.53125 C 4.796875 -6.125 4.046875 -6.46875 3.171875 -6.46875 C 1.46875 -6.46875 0.375 -5.125 0.375 -3.03125 C 0.375 -1.015625 1.453125 0.28125 3.15625 0.28125 C 4.65625 0.28125 5.609375 -0.625 5.71875 -2.15625 L 4.71875 -2.15625 C 4.546875 -1.15625 4.03125 -0.640625 3.1875 -0.640625 C 2.078125 -0.640625 1.421875 -1.546875 1.421875 -3.03125 C 1.421875 -4.609375 2.0625 -5.546875 3.15625 -5.546875 C 4 -5.546875 4.53125 -5.046875 4.640625 -4.171875 Z M 5.65625 -4.171875 "/>
</g>
<g id="glyph-0-15">
<path d="M 5.25 -4.53125 C 5.25 -5.765625 4.421875 -6.46875 2.96875 -6.46875 C 1.515625 -6.46875 0.5625 -5.71875 0.5625 -4.546875 C 0.5625 -3.5625 1.0625 -3.09375 2.5625 -2.734375 L 3.484375 -2.515625 C 4.1875 -2.34375 4.46875 -2.09375 4.46875 -1.640625 C 4.46875 -1.046875 3.875 -0.640625 3 -0.640625 C 2.453125 -0.640625 2 -0.796875 1.75 -1.0625 C 1.59375 -1.25 1.53125 -1.421875 1.46875 -1.875 L 0.40625 -1.875 C 0.453125 -0.421875 1.265625 0.28125 2.921875 0.28125 C 4.5 0.28125 5.515625 -0.5 5.515625 -1.71875 C 5.515625 -2.65625 4.984375 -3.171875 3.734375 -3.46875 L 2.765625 -3.703125 C 1.953125 -3.890625 1.609375 -4.15625 1.609375 -4.59375 C 1.609375 -5.1875 2.125 -5.546875 2.9375 -5.546875 C 3.75 -5.546875 4.171875 -5.203125 4.203125 -4.53125 Z M 5.25 -4.53125 "/>
</g>
<g id="glyph-0-16">
<path d="M 0.640625 2.609375 L 1.65625 2.609375 L 1.65625 -0.65625 C 2.1875 -0.015625 2.765625 0.28125 3.59375 0.28125 C 5.21875 0.28125 6.28125 -1.03125 6.28125 -3.03125 C 6.28125 -5.140625 5.25 -6.46875 3.578125 -6.46875 C 2.71875 -6.46875 2.046875 -6.078125 1.578125 -5.34375 L 1.578125 -6.28125 L 0.640625 -6.28125 Z M 3.40625 -5.53125 C 4.515625 -5.53125 5.234375 -4.5625 5.234375 -3.0625 C 5.234375 -1.625 4.5 -0.65625 3.40625 -0.65625 C 2.34375 -0.65625 1.65625 -1.625 1.65625 -3.09375 C 1.65625 -4.578125 2.34375 -5.53125 3.40625 -5.53125 Z M 3.40625 -5.53125 "/>
</g>
<g id="glyph-0-17">
<path d="M 2.828125 -8.75 C 1.625 -7.171875 0.875 -4.984375 0.875 -3.109375 C 0.875 -1.21875 1.625 0.96875 2.828125 2.546875 L 3.484375 2.546875 C 2.4375 0.828125 1.84375 -1.1875 1.84375 -3.109375 C 1.84375 -5.015625 2.4375 -7.046875 3.484375 -8.75 Z M 2.828125 -8.75 "/>
</g>
<g id="glyph-0-18">
<path d="M 3.09375 -6.28125 L 2.046875 -6.28125 L 2.046875 -7.265625 C 2.046875 -7.6875 2.28125 -7.90625 2.75 -7.90625 C 2.828125 -7.90625 2.875 -7.90625 3.09375 -7.890625 L 3.09375 -8.71875 C 2.875 -8.765625 2.734375 -8.78125 2.53125 -8.78125 C 1.609375 -8.78125 1.0625 -8.25 1.0625 -7.359375 L 1.0625 -6.28125 L 0.21875 -6.28125 L 0.21875 -5.46875 L 1.0625 -5.46875 L 1.0625 0 L 2.046875 0 L 2.046875 -5.46875 L 3.09375 -5.46875 Z M 3.09375 -6.28125 "/>
</g>
<g id="glyph-0-19">
<path d="M 6.40625 -4.234375 L 0.59375 -4.234375 L 0.59375 -3.390625 L 6.40625 -3.390625 Z M 6.40625 -2.171875 L 0.59375 -2.171875 L 0.59375 -1.328125 L 6.40625 -1.328125 Z M 6.40625 -2.171875 "/>
</g>
<g id="glyph-0-20">
<path d="M 1.109375 2.546875 C 2.3125 0.96875 3.078125 -1.21875 3.078125 -3.09375 C 3.078125 -4.984375 2.3125 -7.171875 1.109375 -8.75 L 0.453125 -8.75 C 1.515625 -7.03125 2.09375 -5.015625 2.09375 -3.09375 C 2.09375 -1.1875 1.515625 0.84375 0.453125 2.546875 Z M 1.109375 2.546875 "/>
</g>
<g id="glyph-0-21">
<path d="M 5.96875 -6.421875 C 5.765625 -7.84375 4.859375 -8.671875 3.5625 -8.671875 C 2.625 -8.671875 1.78125 -8.21875 1.28125 -7.4375 C 0.75 -6.59375 0.515625 -5.53125 0.515625 -3.953125 C 0.515625 -2.5 0.71875 -1.578125 1.234375 -0.796875 C 1.6875 -0.09375 2.4375 0.28125 3.375 0.28125 C 4.984375 0.28125 6.15625 -0.9375 6.15625 -2.625 C 6.15625 -4.21875 5.078125 -5.359375 3.546875 -5.359375 C 2.71875 -5.359375 2.046875 -5.046875 1.59375 -4.40625 C 1.609375 -6.546875 2.28125 -7.734375 3.484375 -7.734375 C 4.234375 -7.734375 4.75 -7.265625 4.921875 -6.421875 Z M 3.421875 -4.421875 C 4.4375 -4.421875 5.078125 -3.703125 5.078125 -2.546875 C 5.078125 -1.453125 4.359375 -0.65625 3.390625 -0.65625 C 2.40625 -0.65625 1.65625 -1.484375 1.65625 -2.59375 C 1.65625 -3.671875 2.375 -4.421875 3.421875 -4.421875 Z M 3.421875 -4.421875 "/>
</g>
<g id="glyph-1-0">
<path d="M -3.75 -3.40625 L -3.75 -0.546875 L -2.875 -0.546875 L -2.875 -3.40625 Z M -3.75 -3.40625 "/>
</g>
<g id="glyph-1-1">
<path d="M -4.578125 -4.6875 C -5.109375 -5.578125 -5.546875 -5.859375 -6.359375 -5.859375 C -7.734375 -5.859375 -8.671875 -4.8125 -8.671875 -3.296875 C -8.671875 -1.796875 -7.734375 -0.75 -6.375 -0.75 C -5.546875 -0.75 -5.125 -1.015625 -4.578125 -1.890625 C -4.078125 -0.921875 -3.375 -0.4375 -2.40625 -0.4375 C -0.828125 -0.4375 0.28125 -1.609375 0.28125 -3.296875 C 0.28125 -4.984375 -0.828125 -6.15625 -2.40625 -6.15625 C -3.375 -6.15625 -4.078125 -5.671875 -4.578125 -4.6875 Z M -7.734375 -3.296875 C -7.734375 -4.203125 -7.203125 -4.78125 -6.34375 -4.78125 C -5.515625 -4.78125 -4.984375 -4.1875 -4.984375 -3.296875 C -4.984375 -2.40625 -5.515625 -1.828125 -6.359375 -1.828125 C -7.203125 -1.828125 -7.734375 -2.40625 -7.734375 -3.296875 Z M -4.09375 -3.296875 C -4.09375 -4.359375 -3.390625 -5.078125 -2.390625 -5.078125 C -1.34375 -5.078125 -0.65625 -4.375 -0.65625 -3.28125 C -0.65625 -2.25 -1.375 -1.53125 -2.375 -1.53125 C -3.40625 -1.53125 -4.09375 -2.234375 -4.09375 -3.296875 Z M -4.09375 -3.296875 "/>
</g>
<g id="glyph-1-2">
<path d="M -6.421875 -5.96875 C -7.84375 -5.765625 -8.671875 -4.859375 -8.671875 -3.5625 C -8.671875 -2.625 -8.21875 -1.78125 -7.4375 -1.28125 C -6.59375 -0.75 -5.53125 -0.515625 -3.953125 -0.515625 C -2.5 -0.515625 -1.578125 -0.71875 -0.796875 -1.234375 C -0.09375 -1.6875 0.28125 -2.4375 0.28125 -3.375 C 0.28125 -4.984375 -0.9375 -6.15625 -2.625 -6.15625 C -4.21875 -6.15625 -5.359375 -5.078125 -5.359375 -3.546875 C -5.359375 -2.71875 -5.046875 -2.046875 -4.40625 -1.59375 C -6.546875 -1.609375 -7.734375 -2.28125 -7.734375 -3.484375 C -7.734375 -4.234375 -7.265625 -4.75 -6.421875 -4.921875 Z M -4.421875 -3.421875 C -4.421875 -4.4375 -3.703125 -5.078125 -2.546875 -5.078125 C -1.453125 -5.078125 -0.65625 -4.359375 -0.65625 -3.390625 C -0.65625 -2.40625 -1.484375 -1.65625 -2.59375 -1.65625 C -3.671875 -1.65625 -4.421875 -2.375 -4.421875 -3.421875 Z M -4.421875 -3.421875 "/>
</g>
<g id="glyph-1-3">
<path d="M -2.09375 -3.921875 L 0 -3.921875 L 0 -4.984375 L -2.09375 -4.984375 L -2.09375 -6.234375 L -3.046875 -6.234375 L -3.046875 -4.984375 L -8.671875 -4.984375 L -8.671875 -4.203125 L -3.21875 -0.34375 L -2.09375 -0.34375 Z M -3.046875 -3.921875 L -3.046875 -1.265625 L -6.875 -3.921875 Z M -3.046875 -3.921875 "/>
</g>
<g id="glyph-1-4">
<path d="M -1.046875 -6.078125 L -1.046875 -1.59375 C -1.765625 -1.703125 -2.21875 -2.09375 -2.859375 -3.125 L -3.53125 -4.328125 C -4.1875 -5.515625 -5.078125 -6.125 -6.140625 -6.125 C -6.859375 -6.125 -7.53125 -5.84375 -8 -5.34375 C -8.453125 -4.84375 -8.671875 -4.21875 -8.671875 -3.40625 C -8.671875 -2.328125 -8.296875 -1.53125 -7.546875 -1.0625 C -7.09375 -0.75 -6.546875 -0.625 -5.671875 -0.59375 L -5.671875 -1.65625 C -6.265625 -1.6875 -6.609375 -1.765625 -6.90625 -1.90625 C -7.421875 -2.1875 -7.75 -2.734375 -7.75 -3.375 C -7.75 -4.328125 -7.0625 -5.046875 -6.125 -5.046875 C -5.421875 -5.046875 -4.828125 -4.65625 -4.390625 -3.90625 L -3.75 -2.796875 C -2.71875 -1.015625 -1.90625 -0.5 -0.015625 -0.40625 L -0.015625 -6.078125 Z M -1.046875 -6.078125 "/>
</g>
<g id="glyph-1-5">
<path d="M -8.671875 -3.296875 C -8.671875 -2.515625 -8.3125 -1.78125 -7.734375 -1.34375 C -6.953125 -0.796875 -5.8125 -0.515625 -4.203125 -0.515625 C -1.265625 -0.515625 0.28125 -1.46875 0.28125 -3.296875 C 0.28125 -5.09375 -1.265625 -6.078125 -4.125 -6.078125 C -5.8125 -6.078125 -6.9375 -5.8125 -7.734375 -5.25 C -8.328125 -4.8125 -8.671875 -4.109375 -8.671875 -3.296875 Z M -7.734375 -3.296875 C -7.734375 -4.4375 -6.578125 -5 -4.21875 -5 C -1.75 -5 -0.59375 -4.453125 -0.59375 -3.28125 C -0.59375 -2.15625 -1.796875 -1.59375 -4.1875 -1.59375 C -6.578125 -1.59375 -7.734375 -2.15625 -7.734375 -3.296875 Z M -7.734375 -3.296875 "/>
</g>
<g id="glyph-2-0">
<path d="M 6.59375 -3.96875 L 6.59375 2.5 L 5.515625 2.5 L 5.515625 -3.921875 C 5.515625 -4.546875 5.390625 -5.007812 5.140625 -5.3125 C 4.898438 -5.625 4.539062 -5.78125 4.0625 -5.78125 C 3.476562 -5.78125 3.015625 -5.59375 2.671875 -5.21875 C 2.335938 -4.851562 2.171875 -4.347656 2.171875 -3.703125 L 2.171875 0 L 1.09375 0 L 1.09375 -6.5625 L 2.171875 -6.5625 L 2.171875 -5.546875 C 2.429688 -5.941406 2.734375 -6.234375 3.078125 -6.421875 C 3.429688 -6.617188 3.835938 -6.71875 4.296875 -6.71875 C 5.046875 -6.71875 5.613281 -6.488281 6 -6.03125 C 6.394531 -5.5625 6.59375 -4.875 6.59375 -3.96875 Z M 6.59375 -3.96875 "/>
</g>
<g id="glyph-3-0">
<path d="M 2.171875 -4.328125 L 2.171875 0 L 2.921875 0 L 2.921875 -6.078125 L 2.421875 -6.078125 C 2.171875 -5.140625 2 -5.015625 0.859375 -4.859375 L 0.859375 -4.328125 Z M 2.171875 -4.328125 "/>
</g>
<g id="glyph-4-0">
<path d="M -3.96875 -6.59375 L 2.5 -6.59375 L 2.5 -5.515625 L -3.921875 -5.515625 C -4.546875 -5.515625 -5.007812 -5.390625 -5.3125 -5.140625 C -5.625 -4.898438 -5.78125 -4.539062 -5.78125 -4.0625 C -5.78125 -3.476562 -5.59375 -3.015625 -5.21875 -2.671875 C -4.851562 -2.335938 -4.347656 -2.171875 -3.703125 -2.171875 L 0 -2.171875 L 0 -1.09375 L -6.5625 -1.09375 L -6.5625 -2.171875 L -5.546875 -2.171875 C -5.941406 -2.429688 -6.234375 -2.734375 -6.421875 -3.078125 C -6.617188 -3.429688 -6.71875 -3.835938 -6.71875 -4.296875 C -6.71875 -5.046875 -6.488281 -5.613281 -6.03125 -6 C -5.5625 -6.394531 -4.875 -6.59375 -3.96875 -6.59375 Z M -3.96875 -6.59375 "/>
</g>
<g id="glyph-5-0">
<path d="M -0.734375 -4.25 L -0.734375 -1.125 C -1.234375 -1.1875 -1.5625 -1.46875 -2 -2.1875 L -2.46875 -3.03125 C -2.9375 -3.859375 -3.5625 -4.296875 -4.296875 -4.296875 C -4.8125 -4.296875 -5.28125 -4.09375 -5.609375 -3.734375 C -5.921875 -3.390625 -6.078125 -2.953125 -6.078125 -2.390625 C -6.078125 -1.625 -5.8125 -1.0625 -5.28125 -0.734375 C -4.96875 -0.53125 -4.59375 -0.4375 -3.96875 -0.421875 L -3.96875 -1.15625 C -4.390625 -1.1875 -4.625 -1.234375 -4.828125 -1.34375 C -5.203125 -1.53125 -5.4375 -1.921875 -5.4375 -2.359375 C -5.4375 -3.03125 -4.9375 -3.53125 -4.28125 -3.53125 C -3.796875 -3.53125 -3.375 -3.265625 -3.078125 -2.734375 L -2.625 -1.953125 C -1.90625 -0.71875 -1.34375 -0.359375 -0.015625 -0.28125 L -0.015625 -4.25 Z M -0.734375 -4.25 "/>
</g>
</g>
<clipPath id="clip-0">
<path clip-rule="nonzero" d="M 73 59.039062 L 481 59.039062 L 481 201 L 73 201 Z M 73 59.039062 "/>
</clipPath>
<clipPath id="clip-1">
<path clip-rule="nonzero" d="M 73 97 L 481 97 L 481 250.558594 L 73 250.558594 Z M 73 97 "/>
</clipPath>
<clipPath id="clip-2">
<path clip-rule="nonzero" d="M 380 178 L 494.757812 178 L 494.757812 250.558594 L 380 250.558594 Z M 380 178 "/>
</clipPath>
</defs>
<path fill-rule="nonzero" fill="rgb(0%, 0%, 0%)" fill-opacity="0.501961" d="M 268.546875 96.34375 C 268.546875 99.941406 263.148438 99.941406 263.148438 96.34375 C 263.148438 92.742188 268.546875 92.742188 268.546875 96.34375 "/>
<path fill-rule="nonzero" fill="rgb(0%, 0%, 0%)" fill-opacity="0.501961" d="M 398.445312 143.179688 C 398.445312 146.78125 393.046875 146.78125 393.046875 143.179688 C 393.046875 139.582031 398.445312 139.582031 398.445312 143.179688 "/>
<path fill-rule="nonzero" fill="rgb(0%, 0%, 0%)" fill-opacity="0.501961" d="M 371.644531 114.476562 C 371.644531 118.078125 366.242188 118.078125 366.242188 114.476562 C 366.242188 110.878906 371.644531 110.878906 371.644531 114.476562 "/>
<path fill-rule="nonzero" fill="rgb(0%, 0%, 0%)" fill-opacity="0.501961" d="M 312.390625 106.988281 C 312.390625 110.589844 306.992188 110.589844 306.992188 106.988281 C 306.992188 103.390625 312.390625 103.390625 312.390625 106.988281 "/>
<path fill-rule="nonzero" fill="rgb(0%, 0%, 0%)" fill-opacity="0.501961" d="M 273.1875 108.492188 C 273.1875 112.09375 267.785156 112.09375 267.785156 108.492188 C 267.785156 104.894531 273.1875 104.894531 273.1875 108.492188 "/>
<path fill-rule="nonzero" fill="rgb(0%, 0%, 0%)" fill-opacity="0.501961" d="M 448.492188 102.824219 C 448.492188 106.421875 443.09375 106.421875 443.09375 102.824219 C 443.09375 99.222656 448.492188 99.222656 448.492188 102.824219 "/>
<path fill-rule="nonzero" fill="rgb(0%, 0%, 0%)" fill-opacity="0.501961" d="M 207.316406 165.742188 C 207.316406 169.339844 201.914062 169.339844 201.914062 165.742188 C 201.914062 162.140625 207.316406 162.140625 207.316406 165.742188 "/>
<path fill-rule="nonzero" fill="rgb(0%, 0%, 0%)" fill-opacity="0.501961" d="M 294.46875 105.5625 C 294.46875 109.164062 289.066406 109.164062 289.066406 105.5625 C 289.066406 101.964844 294.46875 101.964844 294.46875 105.5625 "/>
<path fill-rule="nonzero" fill="rgb(0%, 0%, 0%)" fill-opacity="0.501961" d="M 327.019531 68.074219 C 327.019531 71.675781 321.621094 71.675781 321.621094 68.074219 C 321.621094 64.476562 327.019531 64.476562 327.019531 68.074219 "/>
<path fill-rule="nonzero" fill="rgb(0%, 0%, 0%)" fill-opacity="0.501961" d="M 277.160156 125.839844 C 277.160156 129.4375 271.761719 129.4375 271.761719 125.839844 C 271.761719 122.238281 277.160156 122.238281 277.160156 125.839844 "/>
<path fill-rule="nonzero" fill="rgb(0%, 0%, 0%)" fill-opacity="0.501961" d="M 135.855469 207.121094 C 135.855469 210.71875 130.453125 210.71875 130.453125 207.121094 C 130.453125 203.519531 135.855469 203.519531 135.855469 207.121094 "/>
<path fill-rule="nonzero" fill="rgb(0%, 0%, 0%)" fill-opacity="0.501961" d="M 328.210938 104.074219 C 328.210938 107.675781 322.8125 107.675781 322.8125 104.074219 C 322.8125 100.476562 328.210938 100.476562 328.210938 104.074219 "/>
<path fill-rule="nonzero" fill="rgb(0%, 0%, 0%)" fill-opacity="0.501961" d="M 398.257812 115.933594 C 398.257812 119.535156 392.855469 119.535156 392.855469 115.933594 C 392.855469 112.332031 398.257812 112.332031 398.257812 115.933594 "/>
<path fill-rule="nonzero" fill="rgb(0%, 0%, 0%)" fill-opacity="0.501961" d="M 328.769531 110.96875 C 328.769531 114.566406 323.371094 114.566406 323.371094 110.96875 C 323.371094 107.367188 328.769531 107.367188 328.769531 110.96875 "/>
<path fill-rule="nonzero" fill="rgb(0%, 0%, 0%)" fill-opacity="0.501961" d="M 363.1875 115.445312 C 363.1875 119.042969 357.789062 119.042969 357.789062 115.445312 C 357.789062 111.84375 363.1875 111.84375 363.1875 115.445312 "/>
<path fill-rule="nonzero" fill="rgb(0%, 0%, 0%)" fill-opacity="0.501961" d="M 320.859375 87.414062 C 320.859375 91.015625 315.460938 91.015625 315.460938 87.414062 C 315.460938 83.8125 320.859375 83.8125 320.859375 87.414062 "/>
<path fill-rule="nonzero" fill="rgb(0%, 0%, 0%)" fill-opacity="0.501961" d="M 268.6875 110.882812 C 268.6875 114.484375 263.289062 114.484375 263.289062 110.882812 C 263.289062 107.285156 268.6875 107.285156 268.6875 110.882812 "/>
<path fill-rule="nonzero" fill="rgb(0%, 0%, 0%)" fill-opacity="0.501961" d="M 266.660156 105.742188 C 266.660156 109.34375 261.261719 109.34375 261.261719 105.742188 C 261.261719 102.140625 266.660156 102.140625 266.660156 105.742188 "/>
<path fill-rule="nonzero" fill="rgb(0%, 0%, 0%)" fill-opacity="0.501961" d="M 226.574219 128.261719 C 226.574219 131.859375 221.175781 131.859375 221.175781 128.261719 C 221.175781 124.660156 226.574219 124.660156 226.574219 128.261719 "/>
<path fill-rule="nonzero" fill="rgb(0%, 0%, 0%)" fill-opacity="0.501961" d="M 326.367188 97.574219 C 326.367188 101.175781 320.964844 101.175781 320.964844 97.574219 C 320.964844 93.976562 326.367188 93.976562 326.367188 97.574219 "/>
<path fill-rule="nonzero" fill="rgb(0%, 0%, 0%)" fill-opacity="0.501961" d="M 334.425781 97.921875 C 334.425781 101.519531 329.027344 101.519531 329.027344 97.921875 C 329.027344 94.320312 334.425781 94.320312 334.425781 97.921875 "/>
<path fill-rule="nonzero" fill="rgb(0%, 0%, 0%)" fill-opacity="0.501961" d="M 310.65625 100.691406 C 310.65625 104.289062 305.257812 104.289062 305.257812 100.691406 C 305.257812 97.089844 310.65625 97.089844 310.65625 100.691406 "/>
<path fill-rule="nonzero" fill="rgb(0%, 0%, 0%)" fill-opacity="0.501961" d="M 163.476562 191.691406 C 163.476562 195.292969 158.078125 195.292969 158.078125 191.691406 C 158.078125 188.09375 163.476562 188.09375 163.476562 191.691406 "/>
<path fill-rule="nonzero" fill="rgb(0%, 0%, 0%)" fill-opacity="0.501961" d="M 270.8125 108.382812 C 270.8125 111.980469 265.410156 111.980469 265.410156 108.382812 C 265.410156 104.78125 270.8125 104.78125 270.8125 108.382812 "/>
<path fill-rule="nonzero" fill="rgb(0%, 0%, 0%)" fill-opacity="0.501961" d="M 244.300781 134.332031 C 244.300781 137.933594 238.902344 137.933594 238.902344 134.332031 C 238.902344 130.734375 244.300781 130.734375 244.300781 134.332031 "/>
<path fill-rule="nonzero" fill="rgb(0%, 0%, 0%)" fill-opacity="0.501961" d="M 286.886719 101.757812 C 286.886719 105.355469 281.488281 105.355469 281.488281 101.757812 C 281.488281 98.15625 286.886719 98.15625 286.886719 101.757812 "/>
<path fill-rule="nonzero" fill="rgb(0%, 0%, 0%)" fill-opacity="0.501961" d="M 261.878906 116.125 C 261.878906 119.726562 256.476562 119.726562 256.476562 116.125 C 256.476562 112.527344 261.878906 112.527344 261.878906 116.125 "/>
<path fill-rule="nonzero" fill="rgb(0%, 0%, 0%)" fill-opacity="0.501961" d="M 321.8125 104.132812 C 321.8125 107.730469 316.414062 107.730469 316.414062 104.132812 C 316.414062 100.53125 321.8125 100.53125 321.8125 104.132812 "/>
<path fill-rule="nonzero" fill="rgb(0%, 0%, 0%)" fill-opacity="0.501961" d="M 291.222656 117.476562 C 291.222656 121.078125 285.824219 121.078125 285.824219 117.476562 C 285.824219 113.878906 291.222656 113.878906 291.222656 117.476562 "/>
<path fill-rule="nonzero" fill="rgb(0%, 0%, 0%)" fill-opacity="0.501961" d="M 287.527344 106.832031 C 287.527344 110.429688 282.128906 110.429688 282.128906 106.832031 C 282.128906 103.230469 287.527344 103.230469 287.527344 106.832031 "/>
<path fill-rule="nonzero" fill="rgb(0%, 0%, 0%)" fill-opacity="0.501961" d="M 290.816406 117.410156 C 290.816406 121.007812 285.417969 121.007812 285.417969 117.410156 C 285.417969 113.808594 290.816406 113.808594 290.816406 117.410156 "/>
<path fill-rule="nonzero" fill="rgb(0%, 0%, 0%)" fill-opacity="0.501961" d="M 292.511719 107.734375 C 292.511719 111.335938 287.109375 111.335938 287.109375 107.734375 C 287.109375 104.132812 292.511719 104.132812 292.511719 107.734375 "/>
<path fill-rule="nonzero" fill="rgb(0%, 0%, 0%)" fill-opacity="0.501961" d="M 255.152344 107.429688 C 255.152344 111.03125 249.75 111.03125 249.75 107.429688 C 249.75 103.828125 255.152344 103.828125 255.152344 107.429688 "/>
<path fill-rule="nonzero" fill="rgb(0%, 0%, 0%)" fill-opacity="0.501961" d="M 370.9375 110.363281 C 370.9375 113.964844 365.535156 113.964844 365.535156 110.363281 C 365.535156 106.765625 370.9375 106.765625 370.9375 110.363281 "/>
<path fill-rule="nonzero" fill="rgb(0%, 0%, 0%)" fill-opacity="0.501961" d="M 391.242188 105.347656 C 391.242188 108.945312 385.839844 108.945312 385.839844 105.347656 C 385.839844 101.746094 391.242188 101.746094 391.242188 105.347656 "/>
<path fill-rule="nonzero" fill="rgb(0%, 0%, 0%)" fill-opacity="0.501961" d="M 363.996094 105.246094 C 363.996094 108.847656 358.59375 108.847656 358.59375 105.246094 C 358.59375 101.644531 363.996094 101.644531 363.996094 105.246094 "/>
<path fill-rule="nonzero" fill="rgb(0%, 0%, 0%)" fill-opacity="0.501961" d="M 190.808594 160.105469 C 190.808594 163.707031 185.40625 163.707031 185.40625 160.105469 C 185.40625 156.503906 190.808594 156.503906 190.808594 160.105469 "/>
<path fill-rule="nonzero" fill="rgb(0%, 0%, 0%)" fill-opacity="0.501961" d="M 269.820312 94.179688 C 269.820312 97.777344 264.421875 97.777344 264.421875 94.179688 C 264.421875 90.578125 269.820312 90.578125 269.820312 94.179688 "/>
<path fill-rule="nonzero" fill="rgb(0%, 0%, 0%)" fill-opacity="0.501961" d="M 266.027344 93.039062 C 266.027344 96.636719 260.625 96.636719 260.625 93.039062 C 260.625 89.4375 266.027344 89.4375 266.027344 93.039062 "/>
<path fill-rule="nonzero" fill="rgb(0%, 0%, 0%)" fill-opacity="0.501961" d="M 339.523438 125.144531 C 339.523438 128.742188 334.125 128.742188 334.125 125.144531 C 334.125 121.542969 339.523438 121.542969 339.523438 125.144531 "/>
<path fill-rule="nonzero" fill="rgb(0%, 0%, 0%)" fill-opacity="0.501961" d="M 381.953125 103.789062 C 381.953125 107.386719 376.554688 107.386719 376.554688 103.789062 C 376.554688 100.1875 381.953125 100.1875 381.953125 103.789062 "/>
<path fill-rule="nonzero" fill="rgb(0%, 0%, 0%)" fill-opacity="0.501961" d="M 227.09375 122.238281 C 227.09375 125.839844 221.691406 125.839844 221.691406 122.238281 C 221.691406 118.640625 227.09375 118.640625 227.09375 122.238281 "/>
<path fill-rule="nonzero" fill="rgb(0%, 0%, 0%)" fill-opacity="0.501961" d="M 148.160156 178.636719 C 148.160156 182.234375 142.761719 182.234375 142.761719 178.636719 C 142.761719 175.035156 148.160156 175.035156 148.160156 178.636719 "/>
<path fill-rule="nonzero" fill="rgb(0%, 0%, 0%)" fill-opacity="0.501961" d="M 398.65625 131.277344 C 398.65625 134.875 393.257812 134.875 393.257812 131.277344 C 393.257812 127.675781 398.65625 127.675781 398.65625 131.277344 "/>
<path fill-rule="nonzero" fill="rgb(0%, 0%, 0%)" fill-opacity="0.501961" d="M 276.589844 72.382812 C 276.589844 75.984375 271.191406 75.984375 271.191406 72.382812 C 271.191406 68.78125 276.589844 68.78125 276.589844 72.382812 "/>
<path fill-rule="nonzero" fill="rgb(0%, 0%, 0%)" fill-opacity="0.501961" d="M 222.105469 172.539062 C 222.105469 176.140625 216.707031 176.140625 216.707031 172.539062 C 216.707031 168.9375 222.105469 168.9375 222.105469 172.539062 "/>
<path fill-rule="nonzero" fill="rgb(0%, 0%, 0%)" fill-opacity="0.501961" d="M 213.171875 143.644531 C 213.171875 147.246094 207.769531 147.246094 207.769531 143.644531 C 207.769531 140.046875 213.171875 140.046875 213.171875 143.644531 "/>
<path fill-rule="nonzero" fill="rgb(0%, 0%, 0%)" fill-opacity="0.501961" d="M 321.117188 100.777344 C 321.117188 104.375 315.71875 104.375 315.71875 100.777344 C 315.71875 97.175781 321.117188 97.175781 321.117188 100.777344 "/>
<path fill-rule="nonzero" fill="rgb(0%, 0%, 0%)" fill-opacity="0.501961" d="M 251.015625 119.054688 C 251.015625 122.65625 245.617188 122.65625 245.617188 119.054688 C 245.617188 115.457031 251.015625 115.457031 251.015625 119.054688 "/>
<path fill-rule="nonzero" fill="rgb(0%, 0%, 0%)" fill-opacity="0.501961" d="M 300.363281 91.117188 C 300.363281 94.714844 294.960938 94.714844 294.960938 91.117188 C 294.960938 87.515625 300.363281 87.515625 300.363281 91.117188 "/>
<path fill-rule="nonzero" fill="rgb(0%, 0%, 0%)" fill-opacity="0.501961" d="M 326.234375 101.457031 C 326.234375 105.058594 320.832031 105.058594 320.832031 101.457031 C 320.832031 97.859375 326.234375 97.859375 326.234375 101.457031 "/>
<path fill-rule="nonzero" fill="rgb(0%, 0%, 0%)" fill-opacity="0.501961" d="M 198.832031 165.980469 C 198.832031 169.582031 193.433594 169.582031 193.433594 165.980469 C 193.433594 162.382812 198.832031 162.382812 198.832031 165.980469 "/>
<path fill-rule="nonzero" fill="rgb(0%, 0%, 0%)" fill-opacity="0.501961" d="M 215.195312 122.683594 C 215.195312 126.28125 209.796875 126.28125 209.796875 122.683594 C 209.796875 119.082031 215.195312 119.082031 215.195312 122.683594 "/>
<path fill-rule="nonzero" fill="rgb(0%, 0%, 0%)" fill-opacity="0.501961" d="M 286.921875 107.09375 C 286.921875 110.695312 281.519531 110.695312 281.519531 107.09375 C 281.519531 103.496094 286.921875 103.496094 286.921875 107.09375 "/>
<path fill-rule="nonzero" fill="rgb(0%, 0%, 0%)" fill-opacity="0.501961" d="M 370.105469 105.058594 C 370.105469 108.65625 364.707031 108.65625 364.707031 105.058594 C 364.707031 101.457031 370.105469 101.457031 370.105469 105.058594 "/>
<path fill-rule="nonzero" fill="rgb(0%, 0%, 0%)" fill-opacity="0.501961" d="M 177.152344 181.363281 C 177.152344 184.964844 171.753906 184.964844 171.753906 181.363281 C 171.753906 177.761719 177.152344 177.761719 177.152344 181.363281 "/>
<path fill-rule="nonzero" fill="rgb(0%, 0%, 0%)" fill-opacity="0.501961" d="M 273.308594 121.308594 C 273.308594 124.90625 267.90625 124.90625 267.90625 121.308594 C 267.90625 117.707031 273.308594 117.707031 273.308594 121.308594 "/>
<path fill-rule="nonzero" fill="rgb(0%, 0%, 0%)" fill-opacity="0.501961" d="M 291.90625 110.578125 C 291.90625 114.175781 286.507812 114.175781 286.507812 110.578125 C 286.507812 106.976562 291.90625 106.976562 291.90625 110.578125 "/>
<path fill-rule="nonzero" fill="rgb(0%, 0%, 0%)" fill-opacity="0.501961" d="M 200.472656 168.507812 C 200.472656 172.109375 195.074219 172.109375 195.074219 168.507812 C 195.074219 164.90625 200.472656 164.90625 200.472656 168.507812 "/>
<path fill-rule="nonzero" fill="rgb(0%, 0%, 0%)" fill-opacity="0.501961" d="M 312.410156 94.1875 C 312.410156 97.789062 307.011719 97.789062 307.011719 94.1875 C 307.011719 90.589844 312.410156 90.589844 312.410156 94.1875 "/>
<path fill-rule="nonzero" fill="rgb(0%, 0%, 0%)" fill-opacity="0.501961" d="M 369.484375 134.746094 C 369.484375 138.347656 364.085938 138.347656 364.085938 134.746094 C 364.085938 131.148438 369.484375 131.148438 369.484375 134.746094 "/>
<path fill-rule="nonzero" fill="rgb(0%, 0%, 0%)" fill-opacity="0.501961" d="M 421.054688 133.367188 C 421.054688 136.964844 415.65625 136.964844 415.65625 133.367188 C 415.65625 129.765625 421.054688 129.765625 421.054688 133.367188 "/>
<path fill-rule="nonzero" fill="rgb(0%, 0%, 0%)" fill-opacity="0.501961" d="M 360.707031 110.765625 C 360.707031 114.367188 355.304688 114.367188 355.304688 110.765625 C 355.304688 107.167969 360.707031 107.167969 360.707031 110.765625 "/>
<path fill-rule="nonzero" fill="rgb(0%, 0%, 0%)" fill-opacity="0.501961" d="M 319.25 125.839844 C 319.25 129.441406 313.847656 129.441406 313.847656 125.839844 C 313.847656 122.238281 319.25 122.238281 319.25 125.839844 "/>
<path fill-rule="nonzero" fill="rgb(0%, 0%, 0%)" fill-opacity="0.501961" d="M 315.976562 108.789062 C 315.976562 112.390625 310.578125 112.390625 310.578125 108.789062 C 310.578125 105.191406 315.976562 105.191406 315.976562 108.789062 "/>
<path fill-rule="nonzero" fill="rgb(0%, 0%, 0%)" fill-opacity="0.501961" d="M 321.796875 106.703125 C 321.796875 110.304688 316.398438 110.304688 316.398438 106.703125 C 316.398438 103.105469 321.796875 103.105469 321.796875 106.703125 "/>
<path fill-rule="nonzero" fill="rgb(0%, 0%, 0%)" fill-opacity="0.501961" d="M 337.230469 86.75 C 337.230469 90.347656 331.832031 90.347656 331.832031 86.75 C 331.832031 83.148438 337.230469 83.148438 337.230469 86.75 "/>
<path fill-rule="nonzero" fill="rgb(0%, 0%, 0%)" fill-opacity="0.501961" d="M 471.003906 118.972656 C 471.003906 122.574219 465.601562 122.574219 465.601562 118.972656 C 465.601562 115.375 471.003906 115.375 471.003906 118.972656 "/>
<path fill-rule="nonzero" fill="rgb(0%, 0%, 0%)" fill-opacity="0.501961" d="M 105.9375 219.640625 C 105.9375 223.238281 100.539062 223.238281 100.539062 219.640625 C 100.539062 216.039062 105.9375 216.039062 105.9375 219.640625 "/>
<path fill-rule="nonzero" fill="rgb(0%, 0%, 0%)" fill-opacity="0.501961" d="M 270.5 116.84375 C 270.5 120.445312 265.101562 120.445312 265.101562 116.84375 C 265.101562 113.242188 270.5 113.242188 270.5 116.84375 "/>
<path fill-rule="nonzero" fill="rgb(0%, 0%, 0%)" fill-opacity="0.501961" d="M 390.640625 111.476562 C 390.640625 115.078125 385.242188 115.078125 385.242188 111.476562 C 385.242188 107.878906 390.640625 107.878906 390.640625 111.476562 "/>
<path fill-rule="nonzero" fill="rgb(0%, 0%, 0%)" fill-opacity="0.501961" d="M 198.453125 159.957031 C 198.453125 163.558594 193.054688 163.558594 193.054688 159.957031 C 193.054688 156.359375 198.453125 156.359375 198.453125 159.957031 "/>
<path fill-rule="nonzero" fill="rgb(0%, 0%, 0%)" fill-opacity="0.501961" d="M 257.738281 120.851562 C 257.738281 124.453125 252.335938 124.453125 252.335938 120.851562 C 252.335938 117.25 257.738281 117.25 257.738281 120.851562 "/>
<path fill-rule="nonzero" fill="rgb(0%, 0%, 0%)" fill-opacity="0.501961" d="M 235.039062 131.078125 C 235.039062 134.679688 229.636719 134.679688 229.636719 131.078125 C 229.636719 127.480469 235.039062 127.480469 235.039062 131.078125 "/>
<path fill-rule="nonzero" fill="rgb(0%, 0%, 0%)" fill-opacity="0.501961" d="M 301.121094 86.703125 C 301.121094 90.304688 295.722656 90.304688 295.722656 86.703125 C 295.722656 83.105469 301.121094 83.105469 301.121094 86.703125 "/>
<path fill-rule="nonzero" fill="rgb(0%, 0%, 0%)" fill-opacity="0.501961" d="M 186.394531 143.488281 C 186.394531 147.085938 180.992188 147.085938 180.992188 143.488281 C 180.992188 139.886719 186.394531 139.886719 186.394531 143.488281 "/>
<path fill-rule="nonzero" fill="rgb(0%, 0%, 0%)" fill-opacity="0.501961" d="M 210.304688 154.898438 C 210.304688 158.5 204.90625 158.5 204.90625 154.898438 C 204.90625 151.296875 210.304688 151.296875 210.304688 154.898438 "/>
<path fill-rule="nonzero" fill="rgb(0%, 0%, 0%)" fill-opacity="0.501961" d="M 377.105469 114.804688 C 377.105469 118.402344 371.707031 118.402344 371.707031 114.804688 C 371.707031 111.203125 377.105469 111.203125 377.105469 114.804688 "/>
<path fill-rule="nonzero" fill="rgb(0%, 0%, 0%)" fill-opacity="0.501961" d="M 149.429688 195.347656 C 149.429688 198.949219 144.03125 198.949219 144.03125 195.347656 C 144.03125 191.746094 149.429688 191.746094 149.429688 195.347656 "/>
<path fill-rule="nonzero" fill="rgb(0%, 0%, 0%)" fill-opacity="0.501961" d="M 363.273438 86.171875 C 363.273438 89.769531 357.875 89.769531 357.875 86.171875 C 357.875 82.570312 363.273438 82.570312 363.273438 86.171875 "/>
<path fill-rule="nonzero" fill="rgb(0%, 0%, 0%)" fill-opacity="0.501961" d="M 325.835938 94.953125 C 325.835938 98.554688 320.4375 98.554688 320.4375 94.953125 C 320.4375 91.355469 325.835938 91.355469 325.835938 94.953125 "/>
<path fill-rule="nonzero" fill="rgb(0%, 0%, 0%)" fill-opacity="0.501961" d="M 150.25 214.949219 C 150.25 218.550781 144.851562 218.550781 144.851562 214.949219 C 144.851562 211.347656 150.25 211.347656 150.25 214.949219 "/>
<path fill-rule="nonzero" fill="rgb(0%, 0%, 0%)" fill-opacity="0.501961" d="M 263.410156 116.613281 C 263.410156 120.214844 258.007812 120.214844 258.007812 116.613281 C 258.007812 113.011719 263.410156 113.011719 263.410156 116.613281 "/>
<path fill-rule="nonzero" fill="rgb(0%, 0%, 0%)" fill-opacity="0.501961" d="M 251.445312 148.375 C 251.445312 151.976562 246.046875 151.976562 246.046875 148.375 C 246.046875 144.777344 251.445312 144.777344 251.445312 148.375 "/>
<path fill-rule="nonzero" fill="rgb(0%, 0%, 0%)" fill-opacity="0.501961" d="M 354.554688 110.839844 C 354.554688 114.441406 349.152344 114.441406 349.152344 110.839844 C 349.152344 107.242188 354.554688 107.242188 354.554688 110.839844 "/>
<path fill-rule="nonzero" fill="rgb(0%, 0%, 0%)" fill-opacity="0.501961" d="M 315.464844 92.066406 C 315.464844 95.664062 310.066406 95.664062 310.066406 92.066406 C 310.066406 88.464844 315.464844 88.464844 315.464844 92.066406 "/>
<path fill-rule="nonzero" fill="rgb(0%, 0%, 0%)" fill-opacity="0.501961" d="M 248.707031 130.679688 C 248.707031 134.28125 243.304688 134.28125 243.304688 130.679688 C 243.304688 127.082031 248.707031 127.082031 248.707031 130.679688 "/>
<path fill-rule="nonzero" fill="rgb(0%, 0%, 0%)" fill-opacity="0.501961" d="M 299.226562 119.191406 C 299.226562 122.789062 293.824219 122.789062 293.824219 119.191406 C 293.824219 115.589844 299.226562 115.589844 299.226562 119.191406 "/>
<path fill-rule="nonzero" fill="rgb(0%, 0%, 0%)" fill-opacity="0.501961" d="M 326.558594 85.898438 C 326.558594 89.5 321.160156 89.5 321.160156 85.898438 C 321.160156 82.296875 326.558594 82.296875 326.558594 85.898438 "/>
<path fill-rule="nonzero" fill="rgb(0%, 0%, 0%)" fill-opacity="0.501961" d="M 320.65625 115.652344 C 320.65625 119.253906 315.253906 119.253906 315.253906 115.652344 C 315.253906 112.054688 320.65625 112.054688 320.65625 115.652344 "/>
<path fill-rule="nonzero" fill="rgb(0%, 0%, 0%)" fill-opacity="0.501961" d="M 277 92.96875 C 277 96.566406 271.597656 96.566406 271.597656 92.96875 C 271.597656 89.367188 277 89.367188 277 92.96875 "/>
<path fill-rule="nonzero" fill="rgb(0%, 0%, 0%)" fill-opacity="0.501961" d="M 234.769531 124.457031 C 234.769531 128.054688 229.367188 128.054688 229.367188 124.457031 C 229.367188 120.855469 234.769531 120.855469 234.769531 124.457031 "/>
<path fill-rule="nonzero" fill="rgb(0%, 0%, 0%)" fill-opacity="0.501961" d="M 329.738281 91.632812 C 329.738281 95.230469 324.339844 95.230469 324.339844 91.632812 C 324.339844 88.03125 329.738281 88.03125 329.738281 91.632812 "/>
<path fill-rule="nonzero" fill="rgb(0%, 0%, 0%)" fill-opacity="0.501961" d="M 299.589844 87.644531 C 299.589844 91.242188 294.191406 91.242188 294.191406 87.644531 C 294.191406 84.042969 299.589844 84.042969 299.589844 87.644531 "/>
<path fill-rule="nonzero" fill="rgb(0%, 0%, 0%)" fill-opacity="0.501961" d="M 265.769531 93.863281 C 265.769531 97.460938 260.371094 97.460938 260.371094 93.863281 C 260.371094 90.261719 265.769531 90.261719 265.769531 93.863281 "/>
<path fill-rule="nonzero" fill="rgb(0%, 0%, 0%)" fill-opacity="0.501961" d="M 250.886719 100.011719 C 250.886719 103.613281 245.488281 103.613281 245.488281 100.011719 C 245.488281 96.414062 250.886719 96.414062 250.886719 100.011719 "/>
<path fill-rule="nonzero" fill="rgb(0%, 0%, 0%)" fill-opacity="0.501961" d="M 257.59375 109.347656 C 257.59375 112.945312 252.195312 112.945312 252.195312 109.347656 C 252.195312 105.746094 257.59375 105.746094 257.59375 109.347656 "/>
<path fill-rule="nonzero" fill="rgb(0%, 0%, 0%)" fill-opacity="0.501961" d="M 254.371094 112.746094 C 254.371094 116.347656 248.972656 116.347656 248.972656 112.746094 C 248.972656 109.148438 254.371094 109.148438 254.371094 112.746094 "/>
<path fill-rule="nonzero" fill="rgb(0%, 0%, 0%)" fill-opacity="0.501961" d="M 339.128906 118.929688 C 339.128906 122.527344 333.730469 122.527344 333.730469 118.929688 C 333.730469 115.328125 339.128906 115.328125 339.128906 118.929688 "/>
<path fill-rule="nonzero" fill="rgb(0%, 0%, 0%)" fill-opacity="0.501961" d="M 238.746094 141.371094 C 238.746094 144.96875 233.347656 144.96875 233.347656 141.371094 C 233.347656 137.769531 238.746094 137.769531 238.746094 141.371094 "/>
<path fill-rule="nonzero" fill="rgb(0%, 0%, 0%)" fill-opacity="0.501961" d="M 367.496094 121.148438 C 367.496094 124.746094 362.09375 124.746094 362.09375 121.148438 C 362.09375 117.546875 367.496094 117.546875 367.496094 121.148438 "/>
<path fill-rule="nonzero" fill="rgb(0%, 0%, 0%)" fill-opacity="0.501961" d="M 295.078125 103.710938 C 295.078125 107.308594 289.675781 107.308594 289.675781 103.710938 C 289.675781 100.109375 295.078125 100.109375 295.078125 103.710938 "/>
<path fill-rule="nonzero" fill="rgb(0%, 0%, 0%)" fill-opacity="0.501961" d="M 149.761719 204.296875 C 149.761719 207.898438 144.359375 207.898438 144.359375 204.296875 C 144.359375 200.699219 149.761719 200.699219 149.761719 204.296875 "/>
<path fill-rule="nonzero" fill="rgb(0%, 0%, 0%)" fill-opacity="0.501961" d="M 328.355469 92.058594 C 328.355469 95.65625 322.953125 95.65625 322.953125 92.058594 C 322.953125 88.457031 328.355469 88.457031 328.355469 92.058594 "/>
<path fill-rule="nonzero" fill="rgb(0%, 0%, 0%)" fill-opacity="0.501961" d="M 233.007812 139.625 C 233.007812 143.222656 227.609375 143.222656 227.609375 139.625 C 227.609375 136.023438 233.007812 136.023438 233.007812 139.625 "/>
<path fill-rule="nonzero" fill="rgb(0%, 0%, 0%)" fill-opacity="0.501961" d="M 296.324219 97.019531 C 296.324219 100.617188 290.921875 100.617188 290.921875 97.019531 C 290.921875 93.417969 296.324219 93.417969 296.324219 97.019531 "/>
<path fill-rule="nonzero" fill="rgb(0%, 0%, 0%)" fill-opacity="0.501961" d="M 316.378906 89.851562 C 316.378906 93.453125 310.976562 93.453125 310.976562 89.851562 C 310.976562 86.253906 316.378906 86.253906 316.378906 89.851562 "/>
<path fill-rule="nonzero" fill="rgb(0%, 0%, 0%)" fill-opacity="0.501961" d="M 277.753906 121.574219 C 277.753906 125.175781 272.355469 125.175781 272.355469 121.574219 C 272.355469 117.976562 277.753906 117.976562 277.753906 121.574219 "/>
<path fill-rule="nonzero" fill="rgb(0%, 0%, 0%)" fill-opacity="0.501961" d="M 293.535156 87.898438 C 293.535156 91.496094 288.132812 91.496094 288.132812 87.898438 C 288.132812 84.296875 293.535156 84.296875 293.535156 87.898438 "/>
<path fill-rule="nonzero" fill="rgb(0%, 0%, 0%)" fill-opacity="0.501961" d="M 259.050781 141.777344 C 259.050781 145.375 253.652344 145.375 253.652344 141.777344 C 253.652344 138.175781 259.050781 138.175781 259.050781 141.777344 "/>
<path fill-rule="nonzero" fill="rgb(0%, 0%, 0%)" fill-opacity="0.501961" d="M 216.765625 137.730469 C 216.765625 141.328125 211.363281 141.328125 211.363281 137.730469 C 211.363281 134.128906 216.765625 134.128906 216.765625 137.730469 "/>
<path fill-rule="nonzero" fill="rgb(0%, 0%, 0%)" fill-opacity="0.501961" d="M 325.382812 82.175781 C 325.382812 85.773438 319.984375 85.773438 319.984375 82.175781 C 319.984375 78.574219 325.382812 78.574219 325.382812 82.175781 "/>
<path fill-rule="nonzero" fill="rgb(0%, 0%, 0%)" fill-opacity="0.501961" d="M 301.34375 93.726562 C 301.34375 97.328125 295.941406 97.328125 295.941406 93.726562 C 295.941406 90.128906 301.34375 90.128906 301.34375 93.726562 "/>
<path fill-rule="nonzero" fill="rgb(0%, 0%, 0%)" fill-opacity="0.501961" d="M 237.421875 112.949219 C 237.421875 116.550781 232.023438 116.550781 232.023438 112.949219 C 232.023438 109.347656 237.421875 109.347656 237.421875 112.949219 "/>
<path fill-rule="nonzero" fill="rgb(0%, 0%, 0%)" fill-opacity="0.501961" d="M 350.480469 116.148438 C 350.480469 119.75 345.082031 119.75 345.082031 116.148438 C 345.082031 112.550781 350.480469 112.550781 350.480469 116.148438 "/>
<path fill-rule="nonzero" fill="rgb(0%, 0%, 0%)" fill-opacity="0.501961" d="M 297.007812 97.539062 C 297.007812 101.140625 291.605469 101.140625 291.605469 97.539062 C 291.605469 93.941406 297.007812 93.941406 297.007812 97.539062 "/>
<path fill-rule="nonzero" fill="rgb(0%, 0%, 0%)" fill-opacity="0.501961" d="M 367.167969 97.503906 C 367.167969 101.105469 361.765625 101.105469 361.765625 97.503906 C 361.765625 93.90625 367.167969 93.90625 367.167969 97.503906 "/>
<path fill-rule="nonzero" fill="rgb(0%, 0%, 0%)" fill-opacity="0.501961" d="M 240.449219 141.871094 C 240.449219 145.472656 235.050781 145.472656 235.050781 141.871094 C 235.050781 138.269531 240.449219 138.269531 240.449219 141.871094 "/>
<path fill-rule="nonzero" fill="rgb(0%, 0%, 0%)" fill-opacity="0.501961" d="M 172.984375 161.414062 C 172.984375 165.015625 167.585938 165.015625 167.585938 161.414062 C 167.585938 157.816406 172.984375 157.816406 172.984375 161.414062 "/>
<path fill-rule="nonzero" fill="rgb(0%, 0%, 0%)" fill-opacity="0.501961" d="M 226.472656 152.878906 C 226.472656 156.480469 221.070312 156.480469 221.070312 152.878906 C 221.070312 149.277344 226.472656 149.277344 226.472656 152.878906 "/>
<path fill-rule="nonzero" fill="rgb(0%, 0%, 0%)" fill-opacity="0.501961" d="M 243.835938 128.21875 C 243.835938 131.816406 238.4375 131.816406 238.4375 128.21875 C 238.4375 124.617188 243.835938 124.617188 243.835938 128.21875 "/>
<path fill-rule="nonzero" fill="rgb(0%, 0%, 0%)" fill-opacity="0.501961" d="M 386.132812 80.703125 C 386.132812 84.304688 380.734375 84.304688 380.734375 80.703125 C 380.734375 77.101562 386.132812 77.101562 386.132812 80.703125 "/>
<path fill-rule="nonzero" fill="rgb(0%, 0%, 0%)" fill-opacity="0.501961" d="M 300.621094 94.375 C 300.621094 97.976562 295.222656 97.976562 295.222656 94.375 C 295.222656 90.777344 300.621094 90.777344 300.621094 94.375 "/>
<path fill-rule="nonzero" fill="rgb(0%, 0%, 0%)" fill-opacity="0.501961" d="M 308.722656 102.621094 C 308.722656 106.21875 303.324219 106.21875 303.324219 102.621094 C 303.324219 99.019531 308.722656 99.019531 308.722656 102.621094 "/>
<path fill-rule="nonzero" fill="rgb(0%, 0%, 0%)" fill-opacity="0.501961" d="M 244.058594 107.691406 C 244.058594 111.292969 238.65625 111.292969 238.65625 107.691406 C 238.65625 104.09375 244.058594 104.09375 244.058594 107.691406 "/>
<path fill-rule="nonzero" fill="rgb(0%, 0%, 0%)" fill-opacity="0.501961" d="M 313.238281 104.960938 C 313.238281 108.5625 307.839844 108.5625 307.839844 104.960938 C 307.839844 101.363281 313.238281 101.363281 313.238281 104.960938 "/>
<path fill-rule="nonzero" fill="rgb(0%, 0%, 0%)" fill-opacity="0.501961" d="M 288.292969 94.207031 C 288.292969 97.808594 282.894531 97.808594 282.894531 94.207031 C 282.894531 90.609375 288.292969 90.609375 288.292969 94.207031 "/>
<path fill-rule="nonzero" fill="rgb(0%, 0%, 0%)" fill-opacity="0.501961" d="M 232.878906 133.5 C 232.878906 137.101562 227.480469 137.101562 227.480469 133.5 C 227.480469 129.902344 232.878906 129.902344 232.878906 133.5 "/>
<path fill-rule="nonzero" fill="rgb(0%, 0%, 0%)" fill-opacity="0.501961" d="M 363.292969 144.296875 C 363.292969 147.894531 357.894531 147.894531 357.894531 144.296875 C 357.894531 140.695312 363.292969 140.695312 363.292969 144.296875 "/>
<path fill-rule="nonzero" fill="rgb(0%, 0%, 0%)" fill-opacity="0.501961" d="M 195.542969 151.367188 C 195.542969 154.96875 190.140625 154.96875 190.140625 151.367188 C 190.140625 147.765625 195.542969 147.765625 195.542969 151.367188 "/>
<path fill-rule="nonzero" fill="rgb(0%, 0%, 0%)" fill-opacity="0.501961" d="M 177.96875 178.617188 C 177.96875 182.214844 172.570312 182.214844 172.570312 178.617188 C 172.570312 175.015625 177.96875 175.015625 177.96875 178.617188 "/>
<path fill-rule="nonzero" fill="rgb(0%, 0%, 0%)" fill-opacity="0.501961" d="M 273.328125 114.589844 C 273.328125 118.191406 267.929688 118.191406 267.929688 114.589844 C 267.929688 110.992188 273.328125 110.992188 273.328125 114.589844 "/>
<path fill-rule="nonzero" fill="rgb(0%, 0%, 0%)" fill-opacity="0.501961" d="M 255.832031 114.285156 C 255.832031 117.882812 250.433594 117.882812 250.433594 114.285156 C 250.433594 110.683594 255.832031 110.683594 255.832031 114.285156 "/>
<path fill-rule="nonzero" fill="rgb(0%, 0%, 0%)" fill-opacity="0.501961" d="M 136.890625 179.40625 C 136.890625 183.007812 131.492188 183.007812 131.492188 179.40625 C 131.492188 175.808594 136.890625 175.808594 136.890625 179.40625 "/>
<path fill-rule="nonzero" fill="rgb(0%, 0%, 0%)" fill-opacity="0.501961" d="M 216.527344 137.007812 C 216.527344 140.609375 211.128906 140.609375 211.128906 137.007812 C 211.128906 133.410156 216.527344 133.410156 216.527344 137.007812 "/>
<path fill-rule="nonzero" fill="rgb(0%, 0%, 0%)" fill-opacity="0.501961" d="M 298.148438 89.953125 C 298.148438 93.554688 292.746094 93.554688 292.746094 89.953125 C 292.746094 86.355469 298.148438 86.355469 298.148438 89.953125 "/>
<path fill-rule="nonzero" fill="rgb(0%, 0%, 0%)" fill-opacity="0.501961" d="M 218.992188 130.476562 C 218.992188 134.078125 213.59375 134.078125 213.59375 130.476562 C 213.59375 126.878906 218.992188 126.878906 218.992188 130.476562 "/>
<path fill-rule="nonzero" fill="rgb(0%, 0%, 0%)" fill-opacity="0.501961" d="M 282.695312 102.546875 C 282.695312 106.148438 277.296875 106.148438 277.296875 102.546875 C 277.296875 98.949219 282.695312 98.949219 282.695312 102.546875 "/>
<path fill-rule="nonzero" fill="rgb(0%, 0%, 0%)" fill-opacity="0.501961" d="M 374.347656 105.214844 C 374.347656 108.816406 368.949219 108.816406 368.949219 105.214844 C 368.949219 101.613281 374.347656 101.613281 374.347656 105.214844 "/>
<path fill-rule="nonzero" fill="rgb(0%, 0%, 0%)" fill-opacity="0.501961" d="M 263.902344 112.3125 C 263.902344 115.910156 258.5 115.910156 258.5 112.3125 C 258.5 108.710938 263.902344 108.710938 263.902344 112.3125 "/>
<path fill-rule="nonzero" fill="rgb(0%, 0%, 0%)" fill-opacity="0.501961" d="M 158.660156 202.347656 C 158.660156 205.949219 153.261719 205.949219 153.261719 202.347656 C 153.261719 198.75 158.660156 198.75 158.660156 202.347656 "/>
<path fill-rule="nonzero" fill="rgb(0%, 0%, 0%)" fill-opacity="0.501961" d="M 395.785156 113.589844 C 395.785156 117.191406 390.386719 117.191406 390.386719 113.589844 C 390.386719 109.992188 395.785156 109.992188 395.785156 113.589844 "/>
<path fill-rule="nonzero" fill="rgb(0%, 0%, 0%)" fill-opacity="0.501961" d="M 177.582031 203.273438 C 177.582031 206.875 172.179688 206.875 172.179688 203.273438 C 172.179688 199.675781 177.582031 199.675781 177.582031 203.273438 "/>
<path fill-rule="nonzero" fill="rgb(0%, 0%, 0%)" fill-opacity="0.501961" d="M 147.929688 205.371094 C 147.929688 208.972656 142.527344 208.972656 142.527344 205.371094 C 142.527344 201.773438 147.929688 201.773438 147.929688 205.371094 "/>
<path fill-rule="nonzero" fill="rgb(0%, 0%, 0%)" fill-opacity="0.501961" d="M 173.492188 175.6875 C 173.492188 179.289062 168.09375 179.289062 168.09375 175.6875 C 168.09375 172.085938 173.492188 172.085938 173.492188 175.6875 "/>
<path fill-rule="nonzero" fill="rgb(0%, 0%, 0%)" fill-opacity="0.501961" d="M 263.210938 112.933594 C 263.210938 116.53125 257.808594 116.53125 257.808594 112.933594 C 257.808594 109.332031 263.210938 109.332031 263.210938 112.933594 "/>
<path fill-rule="nonzero" fill="rgb(0%, 0%, 0%)" fill-opacity="0.501961" d="M 237.867188 131.066406 C 237.867188 134.667969 232.46875 134.667969 232.46875 131.066406 C 232.46875 127.464844 237.867188 127.464844 237.867188 131.066406 "/>
<path fill-rule="nonzero" fill="rgb(0%, 0%, 0%)" fill-opacity="0.501961" d="M 226.824219 119.535156 C 226.824219 123.132812 221.421875 123.132812 221.421875 119.535156 C 221.421875 115.933594 226.824219 115.933594 226.824219 119.535156 "/>
<path fill-rule="nonzero" fill="rgb(0%, 0%, 0%)" fill-opacity="0.501961" d="M 313.988281 116.410156 C 313.988281 120.011719 308.589844 120.011719 308.589844 116.410156 C 308.589844 112.8125 313.988281 112.8125 313.988281 116.410156 "/>
<path fill-rule="nonzero" fill="rgb(0%, 0%, 0%)" fill-opacity="0.501961" d="M 213.394531 179.621094 C 213.394531 183.222656 207.996094 183.222656 207.996094 179.621094 C 207.996094 176.019531 213.394531 176.019531 213.394531 179.621094 "/>
<path fill-rule="nonzero" fill="rgb(0%, 0%, 0%)" fill-opacity="0.501961" d="M 155.953125 176.085938 C 155.953125 179.6875 150.554688 179.6875 150.554688 176.085938 C 150.554688 172.488281 155.953125 172.488281 155.953125 176.085938 "/>
<path fill-rule="nonzero" fill="rgb(0%, 0%, 0%)" fill-opacity="0.501961" d="M 132.761719 199.449219 C 132.761719 203.046875 127.363281 203.046875 127.363281 199.449219 C 127.363281 195.847656 132.761719 195.847656 132.761719 199.449219 "/>
<path fill-rule="nonzero" fill="rgb(0%, 0%, 0%)" fill-opacity="0.501961" d="M 262.976562 112.316406 C 262.976562 115.917969 257.574219 115.917969 257.574219 112.316406 C 257.574219 108.71875 262.976562 108.71875 262.976562 112.316406 "/>
<path fill-rule="nonzero" fill="rgb(0%, 0%, 0%)" fill-opacity="0.501961" d="M 349.683594 113.707031 C 349.683594 117.308594 344.28125 117.308594 344.28125 113.707031 C 344.28125 110.109375 349.683594 110.109375 349.683594 113.707031 "/>
<path fill-rule="nonzero" fill="rgb(0%, 0%, 0%)" fill-opacity="0.501961" d="M 119.902344 229.53125 C 119.902344 233.132812 114.503906 233.132812 114.503906 229.53125 C 114.503906 225.933594 119.902344 225.933594 119.902344 229.53125 "/>
<path fill-rule="nonzero" fill="rgb(0%, 0%, 0%)" fill-opacity="0.501961" d="M 305.25 114.457031 C 305.25 118.058594 299.851562 118.058594 299.851562 114.457031 C 299.851562 110.859375 305.25 110.859375 305.25 114.457031 "/>
<path fill-rule="nonzero" fill="rgb(0%, 0%, 0%)" fill-opacity="0.501961" d="M 267.808594 101.742188 C 267.808594 105.339844 262.410156 105.339844 262.410156 101.742188 C 262.410156 98.140625 267.808594 98.140625 267.808594 101.742188 "/>
<path fill-rule="nonzero" fill="rgb(0%, 0%, 0%)" fill-opacity="0.501961" d="M 290 102.242188 C 290 105.839844 284.601562 105.839844 284.601562 102.242188 C 284.601562 98.640625 290 98.640625 290 102.242188 "/>
<path fill-rule="nonzero" fill="rgb(0%, 0%, 0%)" fill-opacity="0.501961" d="M 342.933594 126.214844 C 342.933594 129.816406 337.53125 129.816406 337.53125 126.214844 C 337.53125 122.613281 342.933594 122.613281 342.933594 126.214844 "/>
<path fill-rule="nonzero" fill="rgb(0%, 0%, 0%)" fill-opacity="0.501961" d="M 261.230469 103.378906 C 261.230469 106.980469 255.828125 106.980469 255.828125 103.378906 C 255.828125 99.777344 261.230469 99.777344 261.230469 103.378906 "/>
<path fill-rule="nonzero" fill="rgb(0%, 0%, 0%)" fill-opacity="0.501961" d="M 391.828125 106.980469 C 391.828125 110.582031 386.429688 110.582031 386.429688 106.980469 C 386.429688 103.382812 391.828125 103.382812 391.828125 106.980469 "/>
<path fill-rule="nonzero" fill="rgb(0%, 0%, 0%)" fill-opacity="0.501961" d="M 243.988281 123.097656 C 243.988281 126.695312 238.589844 126.695312 238.589844 123.097656 C 238.589844 119.496094 243.988281 119.496094 243.988281 123.097656 "/>
<path fill-rule="nonzero" fill="rgb(0%, 0%, 0%)" fill-opacity="0.501961" d="M 308.710938 101.59375 C 308.710938 105.191406 303.3125 105.191406 303.3125 101.59375 C 303.3125 97.992188 308.710938 97.992188 308.710938 101.59375 "/>
<path fill-rule="nonzero" fill="rgb(0%, 0%, 0%)" fill-opacity="0.501961" d="M 341.460938 86.847656 C 341.460938 90.449219 336.0625 90.449219 336.0625 86.847656 C 336.0625 83.246094 341.460938 83.246094 341.460938 86.847656 "/>
<path fill-rule="nonzero" fill="rgb(0%, 0%, 0%)" fill-opacity="0.501961" d="M 425.085938 114.332031 C 425.085938 117.929688 419.6875 117.929688 419.6875 114.332031 C 419.6875 110.730469 425.085938 110.730469 425.085938 114.332031 "/>
<path fill-rule="nonzero" fill="rgb(0%, 0%, 0%)" fill-opacity="0.501961" d="M 215.945312 124.714844 C 215.945312 128.316406 210.542969 128.316406 210.542969 124.714844 C 210.542969 121.117188 215.945312 121.117188 215.945312 124.714844 "/>
<path fill-rule="nonzero" fill="rgb(0%, 0%, 0%)" fill-opacity="0.501961" d="M 258.261719 113.703125 C 258.261719 117.304688 252.863281 117.304688 252.863281 113.703125 C 252.863281 110.105469 258.261719 110.105469 258.261719 113.703125 "/>
<path fill-rule="nonzero" fill="rgb(0%, 0%, 0%)" fill-opacity="0.501961" d="M 283.164062 83.425781 C 283.164062 87.027344 277.761719 87.027344 277.761719 83.425781 C 277.761719 79.828125 283.164062 79.828125 283.164062 83.425781 "/>
<path fill-rule="nonzero" fill="rgb(0%, 0%, 0%)" fill-opacity="0.501961" d="M 206 150.523438 C 206 154.125 200.601562 154.125 200.601562 150.523438 C 200.601562 146.925781 206 146.925781 206 150.523438 "/>
<path fill-rule="nonzero" fill="rgb(0%, 0%, 0%)" fill-opacity="0.501961" d="M 326.078125 90.480469 C 326.078125 94.082031 320.679688 94.082031 320.679688 90.480469 C 320.679688 86.882812 326.078125 86.882812 326.078125 90.480469 "/>
<path fill-rule="nonzero" fill="rgb(0%, 0%, 0%)" fill-opacity="0.501961" d="M 335.917969 109.789062 C 335.917969 113.390625 330.515625 113.390625 330.515625 109.789062 C 330.515625 106.191406 335.917969 106.191406 335.917969 109.789062 "/>
<path fill-rule="nonzero" fill="rgb(0%, 0%, 0%)" fill-opacity="0.501961" d="M 173.585938 189.65625 C 173.585938 193.257812 168.183594 193.257812 168.183594 189.65625 C 168.183594 186.058594 173.585938 186.058594 173.585938 189.65625 "/>
<path fill-rule="nonzero" fill="rgb(0%, 0%, 0%)" fill-opacity="0.501961" d="M 157.273438 172.191406 C 157.273438 175.792969 151.875 175.792969 151.875 172.191406 C 151.875 168.589844 157.273438 168.589844 157.273438 172.191406 "/>
<path fill-rule="nonzero" fill="rgb(0%, 0%, 0%)" fill-opacity="0.501961" d="M 253.609375 83.859375 C 253.609375 87.457031 248.210938 87.457031 248.210938 83.859375 C 248.210938 80.257812 253.609375 80.257812 253.609375 83.859375 "/>
<path fill-rule="nonzero" fill="rgb(0%, 0%, 0%)" fill-opacity="0.501961" d="M 308.152344 105.847656 C 308.152344 109.445312 302.753906 109.445312 302.753906 105.847656 C 302.753906 102.246094 308.152344 102.246094 308.152344 105.847656 "/>
<path fill-rule="nonzero" fill="rgb(0%, 0%, 0%)" fill-opacity="0.501961" d="M 350.226562 88.183594 C 350.226562 91.785156 344.828125 91.785156 344.828125 88.183594 C 344.828125 84.585938 350.226562 84.585938 350.226562 88.183594 "/>
<path fill-rule="nonzero" fill="rgb(0%, 0%, 0%)" fill-opacity="0.501961" d="M 232.328125 132.410156 C 232.328125 136.007812 226.925781 136.007812 226.925781 132.410156 C 226.925781 128.808594 232.328125 128.808594 232.328125 132.410156 "/>
<path fill-rule="nonzero" fill="rgb(0%, 0%, 0%)" fill-opacity="0.501961" d="M 272.515625 94.21875 C 272.515625 97.820312 267.117188 97.820312 267.117188 94.21875 C 267.117188 90.621094 272.515625 90.621094 272.515625 94.21875 "/>
<path fill-rule="nonzero" fill="rgb(0%, 0%, 0%)" fill-opacity="0.501961" d="M 267.144531 122.660156 C 267.144531 126.257812 261.746094 126.257812 261.746094 122.660156 C 261.746094 119.058594 267.144531 119.058594 267.144531 122.660156 "/>
<path fill-rule="nonzero" fill="rgb(0%, 0%, 0%)" fill-opacity="0.501961" d="M 261.15625 107.863281 C 261.15625 111.464844 255.753906 111.464844 255.753906 107.863281 C 255.753906 104.265625 261.15625 104.265625 261.15625 107.863281 "/>
<path fill-rule="nonzero" fill="rgb(0%, 0%, 0%)" fill-opacity="0.501961" d="M 292.699219 112.648438 C 292.699219 116.25 287.296875 116.25 287.296875 112.648438 C 287.296875 109.046875 292.699219 109.046875 292.699219 112.648438 "/>
<path fill-rule="nonzero" fill="rgb(0%, 0%, 0%)" fill-opacity="0.501961" d="M 381.878906 134.734375 C 381.878906 138.335938 376.480469 138.335938 376.480469 134.734375 C 376.480469 131.136719 381.878906 131.136719 381.878906 134.734375 "/>
<path fill-rule="nonzero" fill="rgb(0%, 0%, 0%)" fill-opacity="0.501961" d="M 327.183594 94.292969 C 327.183594 97.894531 321.785156 97.894531 321.785156 94.292969 C 321.785156 90.691406 327.183594 90.691406 327.183594 94.292969 "/>
<path fill-rule="nonzero" fill="rgb(0%, 0%, 0%)" fill-opacity="0.501961" d="M 221.675781 114.871094 C 221.675781 118.46875 216.277344 118.46875 216.277344 114.871094 C 216.277344 111.269531 221.675781 111.269531 221.675781 114.871094 "/>
<path fill-rule="nonzero" fill="rgb(0%, 0%, 0%)" fill-opacity="0.501961" d="M 275.957031 116.691406 C 275.957031 120.292969 270.558594 120.292969 270.558594 116.691406 C 270.558594 113.09375 275.957031 113.09375 275.957031 116.691406 "/>
<path fill-rule="nonzero" fill="rgb(0%, 0%, 0%)" fill-opacity="0.501961" d="M 195.246094 170.316406 C 195.246094 173.917969 189.84375 173.917969 189.84375 170.316406 C 189.84375 166.71875 195.246094 166.71875 195.246094 170.316406 "/>
<path fill-rule="nonzero" fill="rgb(0%, 0%, 0%)" fill-opacity="0.501961" d="M 218.738281 154.152344 C 218.738281 157.75 213.339844 157.75 213.339844 154.152344 C 213.339844 150.550781 218.738281 150.550781 218.738281 154.152344 "/>
<path fill-rule="nonzero" fill="rgb(0%, 0%, 0%)" fill-opacity="0.501961" d="M 263.789062 116.773438 C 263.789062 120.375 258.390625 120.375 258.390625 116.773438 C 258.390625 113.171875 263.789062 113.171875 263.789062 116.773438 "/>
<path fill-rule="nonzero" fill="rgb(0%, 0%, 0%)" fill-opacity="0.501961" d="M 202.371094 143.21875 C 202.371094 146.816406 196.972656 146.816406 196.972656 143.21875 C 196.972656 139.617188 202.371094 139.617188 202.371094 143.21875 "/>
<path fill-rule="nonzero" fill="rgb(0%, 0%, 0%)" fill-opacity="0.501961" d="M 403.871094 109.429688 C 403.871094 113.03125 398.46875 113.03125 398.46875 109.429688 C 398.46875 105.832031 403.871094 105.832031 403.871094 109.429688 "/>
<path fill-rule="nonzero" fill="rgb(0%, 0%, 0%)" fill-opacity="0.501961" d="M 364.496094 105.992188 C 364.496094 109.59375 359.097656 109.59375 359.097656 105.992188 C 359.097656 102.394531 364.496094 102.394531 364.496094 105.992188 "/>
<path fill-rule="nonzero" fill="rgb(0%, 0%, 0%)" fill-opacity="0.501961" d="M 265.390625 99.269531 C 265.390625 102.871094 259.992188 102.871094 259.992188 99.269531 C 259.992188 95.671875 265.390625 95.671875 265.390625 99.269531 "/>
<path fill-rule="nonzero" fill="rgb(0%, 0%, 0%)" fill-opacity="0.501961" d="M 274.089844 112.886719 C 274.089844 116.488281 268.691406 116.488281 268.691406 112.886719 C 268.691406 109.289062 274.089844 109.289062 274.089844 112.886719 "/>
<path fill-rule="nonzero" fill="rgb(0%, 0%, 0%)" fill-opacity="0.501961" d="M 212.332031 146.789062 C 212.332031 150.390625 206.933594 150.390625 206.933594 146.789062 C 206.933594 143.191406 212.332031 143.191406 212.332031 146.789062 "/>
<path fill-rule="nonzero" fill="rgb(0%, 0%, 0%)" fill-opacity="0.501961" d="M 320.898438 92.964844 C 320.898438 96.566406 315.496094 96.566406 315.496094 92.964844 C 315.496094 89.367188 320.898438 89.367188 320.898438 92.964844 "/>
<path fill-rule="nonzero" fill="rgb(0%, 0%, 0%)" fill-opacity="0.501961" d="M 227.085938 136.863281 C 227.085938 140.464844 221.683594 140.464844 221.683594 136.863281 C 221.683594 133.261719 227.085938 133.261719 227.085938 136.863281 "/>
<path fill-rule="nonzero" fill="rgb(0%, 0%, 0%)" fill-opacity="0.501961" d="M 67.902344 243.464844 C 67.902344 247.066406 62.5 247.066406 62.5 243.464844 C 62.5 239.867188 67.902344 239.867188 67.902344 243.464844 "/>
<path fill-rule="nonzero" fill="rgb(0%, 0%, 0%)" fill-opacity="0.501961" d="M 212.480469 163.296875 C 212.480469 166.898438 207.078125 166.898438 207.078125 163.296875 C 207.078125 159.699219 212.480469 159.699219 212.480469 163.296875 "/>
<path fill-rule="nonzero" fill="rgb(0%, 0%, 0%)" fill-opacity="0.501961" d="M 285.371094 66.132812 C 285.371094 69.734375 279.972656 69.734375 279.972656 66.132812 C 279.972656 62.535156 285.371094 62.535156 285.371094 66.132812 "/>
<path fill-rule="nonzero" fill="rgb(0%, 0%, 0%)" fill-opacity="0.501961" d="M 184.9375 189.695312 C 184.9375 193.296875 179.539062 193.296875 179.539062 189.695312 C 179.539062 186.097656 184.9375 186.097656 184.9375 189.695312 "/>
<path fill="none" stroke-width="0.75" stroke-linecap="round" stroke-linejoin="round" stroke="rgb(0%, 0%, 0%)" stroke-opacity="1" stroke-miterlimit="10" d="M 75.179688 250.558594 L 478.621094 250.558594 "/>
<path fill="none" stroke-width="0.75" stroke-linecap="round" stroke-linejoin="round" stroke="rgb(0%, 0%, 0%)" stroke-opacity="1" stroke-miterlimit="10" d="M 75.179688 250.558594 L 75.179688 257.761719 "/>
<path fill="none" stroke-width="0.75" stroke-linecap="round" stroke-linejoin="round" stroke="rgb(0%, 0%, 0%)" stroke-opacity="1" stroke-miterlimit="10" d="M 176.039062 250.558594 L 176.039062 257.761719 "/>
<path fill="none" stroke-width="0.75" stroke-linecap="round" stroke-linejoin="round" stroke="rgb(0%, 0%, 0%)" stroke-opacity="1" stroke-miterlimit="10" d="M 276.898438 250.558594 L 276.898438 257.761719 "/>
<path fill="none" stroke-width="0.75" stroke-linecap="round" stroke-linejoin="round" stroke="rgb(0%, 0%, 0%)" stroke-opacity="1" stroke-miterlimit="10" d="M 377.761719 250.558594 L 377.761719 257.761719 "/>
<path fill="none" stroke-width="0.75" stroke-linecap="round" stroke-linejoin="round" stroke="rgb(0%, 0%, 0%)" stroke-opacity="1" stroke-miterlimit="10" d="M 478.621094 250.558594 L 478.621094 257.761719 "/>
<g fill="rgb(0%, 0%, 0%)" fill-opacity="1">
<use xlink:href="#glyph-0-0" x="69.679688" y="276.228516"/>
<use xlink:href="#glyph-0-1" x="73.679688" y="276.228516"/>
</g>
<g fill="rgb(0%, 0%, 0%)" fill-opacity="1">
<use xlink:href="#glyph-0-0" x="170.539062" y="276.228516"/>
<use xlink:href="#glyph-0-2" x="174.539062" y="276.228516"/>
</g>
<g fill="rgb(0%, 0%, 0%)" fill-opacity="1">
<use xlink:href="#glyph-0-3" x="273.398438" y="276.228516"/>
</g>
<g fill="rgb(0%, 0%, 0%)" fill-opacity="1">
<use xlink:href="#glyph-0-2" x="374.261719" y="276.228516"/>
</g>
<g fill="rgb(0%, 0%, 0%)" fill-opacity="1">
<use xlink:href="#glyph-0-1" x="475.121094" y="276.228516"/>
</g>
<path fill="none" stroke-width="0.75" stroke-linecap="round" stroke-linejoin="round" stroke="rgb(0%, 0%, 0%)" stroke-opacity="1" stroke-miterlimit="10" d="M 59.039062 228.910156 L 59.039062 63.355469 "/>
<path fill="none" stroke-width="0.75" stroke-linecap="round" stroke-linejoin="round" stroke="rgb(0%, 0%, 0%)" stroke-opacity="1" stroke-miterlimit="10" d="M 59.039062 228.910156 L 51.839844 228.910156 "/>
<path fill="none" stroke-width="0.75" stroke-linecap="round" stroke-linejoin="round" stroke="rgb(0%, 0%, 0%)" stroke-opacity="1" stroke-miterlimit="10" d="M 59.039062 201.316406 L 51.839844 201.316406 "/>
<path fill="none" stroke-width="0.75" stroke-linecap="round" stroke-linejoin="round" stroke="rgb(0%, 0%, 0%)" stroke-opacity="1" stroke-miterlimit="10" d="M 59.039062 173.722656 L 51.839844 173.722656 "/>
<path fill="none" stroke-width="0.75" stroke-linecap="round" stroke-linejoin="round" stroke="rgb(0%, 0%, 0%)" stroke-opacity="1" stroke-miterlimit="10" d="M 59.039062 146.132812 L 51.839844 146.132812 "/>
<path fill="none" stroke-width="0.75" stroke-linecap="round" stroke-linejoin="round" stroke="rgb(0%, 0%, 0%)" stroke-opacity="1" stroke-miterlimit="10" d="M 59.039062 118.539062 L 51.839844 118.539062 "/>
<path fill="none" stroke-width="0.75" stroke-linecap="round" stroke-linejoin="round" stroke="rgb(0%, 0%, 0%)" stroke-opacity="1" stroke-miterlimit="10" d="M 59.039062 90.945312 L 51.839844 90.945312 "/>
<path fill="none" stroke-width="0.75" stroke-linecap="round" stroke-linejoin="round" stroke="rgb(0%, 0%, 0%)" stroke-opacity="1" stroke-miterlimit="10" d="M 59.039062 63.355469 L 51.839844 63.355469 "/>
<g fill="rgb(0%, 0%, 0%)" fill-opacity="1">
<use xlink:href="#glyph-1-0" x="41.509766" y="234.410156"/>
<use xlink:href="#glyph-1-1" x="41.509766" y="230.410156"/>
</g>
<g fill="rgb(0%, 0%, 0%)" fill-opacity="1">
<use xlink:href="#glyph-1-0" x="41.509766" y="206.816406"/>
<use xlink:href="#glyph-1-2" x="41.509766" y="202.816406"/>
</g>
<g fill="rgb(0%, 0%, 0%)" fill-opacity="1">
<use xlink:href="#glyph-1-0" x="41.509766" y="179.222656"/>
<use xlink:href="#glyph-1-3" x="41.509766" y="175.222656"/>
</g>
<g fill="rgb(0%, 0%, 0%)" fill-opacity="1">
<use xlink:href="#glyph-1-0" x="41.509766" y="151.632812"/>
<use xlink:href="#glyph-1-4" x="41.509766" y="147.632812"/>
</g>
<g fill="rgb(0%, 0%, 0%)" fill-opacity="1">
<use xlink:href="#glyph-1-5" x="41.509766" y="122.039062"/>
</g>
<g fill="rgb(0%, 0%, 0%)" fill-opacity="1">
<use xlink:href="#glyph-1-4" x="41.509766" y="94.445312"/>
</g>
<g fill="rgb(0%, 0%, 0%)" fill-opacity="1">
<use xlink:href="#glyph-1-3" x="41.509766" y="66.855469"/>
</g>
<path fill="none" stroke-width="0.75" stroke-linecap="round" stroke-linejoin="round" stroke="rgb(0%, 0%, 0%)" stroke-opacity="1" stroke-miterlimit="10" d="M 59.039062 250.558594 L 494.761719 250.558594 L 494.761719 59.039062 L 59.039062 59.039062 Z M 59.039062 250.558594 "/>
<g fill="rgb(0%, 0%, 0%)" fill-opacity="1">
<use xlink:href="#glyph-2-0" x="270.398438" y="301.419922"/>
</g>
<g fill="rgb(0%, 0%, 0%)" fill-opacity="1">
<use xlink:href="#glyph-3-0" x="278.398438" y="304.404297"/>
</g>
<g fill="rgb(0%, 0%, 0%)" fill-opacity="1">
<use xlink:href="#glyph-4-0" x="9.099609" y="161.300781"/>
</g>
<g fill="rgb(0%, 0%, 0%)" fill-opacity="1">
<use xlink:href="#glyph-5-0" x="12.083984" y="153.300781"/>
</g>
<g clip-path="url(#clip-0)">
<path fill="none" stroke-width="3" stroke-linecap="round" stroke-linejoin="round" stroke="rgb(100%, 64.705882%, 0%)" stroke-opacity="1" stroke-dasharray="3 9" stroke-miterlimit="10" d="M 75.179688 198.835938 L 85.265625 194.921875 L 90.308594 192.960938 L 140.738281 173.390625 L 145.78125 171.429688 L 196.210938 151.859375 L 201.253906 149.898438 L 251.683594 130.328125 L 256.726562 128.367188 L 297.070312 112.710938 L 302.117188 110.753906 L 312.203125 106.839844 L 317.246094 104.878906 L 367.675781 85.308594 L 372.71875 83.347656 L 423.148438 63.777344 L 428.191406 61.816406 L 478.621094 42.246094 "/>
</g>
<g clip-path="url(#clip-1)">
<path fill="none" stroke-width="3" stroke-linecap="round" stroke-linejoin="round" stroke="rgb(54.509804%, 0%, 0%)" stroke-opacity="1" stroke-dasharray="3 9 12 9" stroke-miterlimit="10" d="M 75.179688 271.589844 L 80.222656 265.105469 L 85.265625 258.746094 L 90.308594 252.507812 L 95.351562 246.398438 L 100.394531 240.410156 L 105.4375 234.546875 L 110.480469 228.808594 L 115.523438 223.195312 L 120.566406 217.707031 L 125.609375 212.339844 L 130.652344 207.097656 L 135.695312 201.980469 L 140.738281 196.988281 L 145.78125 192.121094 L 150.824219 187.378906 L 155.867188 182.757812 L 160.910156 178.261719 L 165.953125 173.890625 L 170.996094 169.644531 L 176.039062 165.523438 L 181.082031 161.523438 L 186.125 157.652344 L 191.167969 153.902344 L 196.210938 150.277344 L 201.253906 146.777344 L 206.296875 143.398438 L 211.339844 140.148438 L 216.382812 137.019531 L 221.425781 134.015625 L 226.46875 131.136719 L 231.511719 128.382812 L 236.554688 125.75 L 241.597656 123.246094 L 246.640625 120.863281 L 251.683594 118.605469 L 256.726562 116.472656 L 261.769531 114.464844 L 266.8125 112.578125 L 271.855469 110.820312 L 276.898438 109.183594 L 281.941406 107.671875 L 286.984375 106.285156 L 292.027344 105.019531 L 297.070312 103.882812 L 302.117188 102.867188 L 307.160156 101.976562 L 312.203125 101.210938 L 317.246094 100.570312 L 322.289062 100.054688 L 327.332031 99.660156 L 332.375 99.394531 L 337.417969 99.25 L 342.460938 99.230469 L 347.503906 99.332031 L 352.546875 99.5625 L 357.589844 99.914062 L 362.632812 100.394531 L 367.675781 100.996094 L 372.71875 101.722656 L 377.761719 102.570312 L 382.804688 103.546875 L 387.847656 104.644531 L 392.890625 105.867188 L 397.933594 107.214844 L 402.976562 108.6875 L 408.019531 110.285156 L 413.0625 112.003906 L 418.105469 113.851562 L 423.148438 115.820312 L 428.191406 117.914062 L 433.234375 120.132812 L 438.277344 122.472656 L 443.320312 124.941406 L 448.363281 127.53125 L 453.40625 130.246094 L 458.449219 133.085938 L 463.492188 136.050781 L 468.535156 139.136719 L 473.578125 142.351562 L 478.621094 145.6875 "/>
<path fill="none" stroke-width="3" stroke-linecap="round" stroke-linejoin="round" stroke="rgb(0%, 39.215686%, 0%)" stroke-opacity="1" stroke-miterlimit="10" d="M 75.179688 251.136719 L 100.394531 231.390625 L 105.4375 227.445312 L 140.738281 199.800781 L 145.78125 195.847656 L 150.824219 191.898438 L 155.867188 187.945312 L 170.996094 176.074219 L 186.125 164.179688 L 191.167969 160.207031 L 201.253906 152.253906 L 206.296875 148.273438 L 211.339844 144.3125 L 216.382812 140.386719 L 221.425781 136.523438 L 226.46875 132.742188 L 231.511719 129.0625 L 236.554688 125.507812 L 241.597656 122.101562 L 246.640625 118.859375 L 251.683594 115.808594 L 256.726562 112.964844 L 261.769531 110.355469 L 266.8125 107.996094 L 271.855469 105.914062 L 276.898438 104.128906 L 281.941406 102.65625 L 286.984375 101.476562 L 292.027344 100.574219 L 297.070312 99.929688 L 302.117188 99.519531 L 307.160156 99.324219 L 312.203125 99.320312 L 317.246094 99.492188 L 322.289062 99.820312 L 327.332031 100.277344 L 332.375 100.847656 L 337.417969 101.507812 L 342.460938 102.238281 L 347.503906 103.019531 L 352.546875 103.832031 L 357.589844 104.65625 L 362.632812 105.488281 L 367.675781 106.328125 L 372.71875 107.175781 L 377.761719 108.03125 L 382.804688 108.890625 L 387.847656 109.757812 L 392.890625 110.628906 L 397.933594 111.503906 L 408.019531 113.261719 L 413.0625 114.148438 L 418.105469 115.03125 L 423.148438 115.917969 L 428.191406 116.808594 L 448.363281 120.355469 L 453.40625 121.246094 L 468.535156 123.90625 L 473.578125 124.796875 L 478.621094 125.683594 "/>
</g>
<path fill="none" stroke-width="3" stroke-linecap="round" stroke-linejoin="round" stroke="rgb(0%, 0%, 54.509804%)" stroke-opacity="1" stroke-dasharray="21 9" stroke-miterlimit="10" d="M 75.179688 244.128906 L 125.609375 212.292969 L 130.652344 209.101562 L 135.695312 205.886719 L 140.738281 202.609375 L 145.78125 199.242188 L 150.824219 195.761719 L 155.867188 192.128906 L 160.910156 188.320312 L 165.953125 184.308594 L 170.996094 180.058594 L 176.039062 175.582031 L 181.082031 170.929688 L 186.125 166.148438 L 191.167969 161.292969 L 196.210938 156.414062 L 201.253906 151.5625 L 206.296875 146.792969 L 211.339844 142.15625 L 216.382812 137.699219 L 221.425781 133.460938 L 226.46875 129.460938 L 231.511719 125.726562 L 236.554688 122.28125 L 241.597656 119.160156 L 246.640625 116.378906 L 251.683594 113.96875 L 256.726562 111.957031 L 261.769531 110.332031 L 266.8125 109.023438 L 271.855469 107.964844 L 276.898438 107.078125 L 281.941406 106.292969 L 286.984375 105.53125 L 292.027344 104.71875 L 297.070312 103.785156 L 302.117188 102.667969 L 307.160156 101.402344 L 312.203125 100.089844 L 317.246094 98.835938 L 322.289062 97.730469 L 327.332031 96.878906 L 332.375 96.382812 L 337.417969 96.335938 L 342.460938 96.84375 L 347.503906 97.949219 L 352.546875 99.554688 L 357.589844 101.539062 L 362.632812 103.789062 L 367.675781 106.175781 L 372.71875 108.589844 L 377.761719 110.902344 L 382.804688 113 L 387.847656 114.765625 L 392.890625 116.171875 L 397.933594 117.257812 L 402.976562 118.074219 L 408.019531 118.664062 L 413.0625 119.074219 L 418.105469 119.347656 L 423.148438 119.53125 L 428.191406 119.667969 L 453.40625 120.3125 L 458.449219 120.445312 L 478.621094 120.960938 "/>
<g clip-path="url(#clip-2)">
<path fill="none" stroke-width="0.75" stroke-linecap="round" stroke-linejoin="round" stroke="rgb(0%, 0%, 0%)" stroke-opacity="1" stroke-miterlimit="10" d="M 381.160156 178.558594 L 494.761719 178.558594 L 494.761719 250.558594 L 381.160156 250.558594 Z M 381.160156 178.558594 "/>
</g>
<path fill="none" stroke-width="2.25" stroke-linecap="round" stroke-linejoin="round" stroke="rgb(100%, 64.705882%, 0%)" stroke-opacity="1" stroke-dasharray="2.25 6.75" stroke-miterlimit="10" d="M 391.960938 192.960938 L 413.558594 192.960938 "/>
<path fill="none" stroke-width="2.25" stroke-linecap="round" stroke-linejoin="round" stroke="rgb(54.509804%, 0%, 0%)" stroke-opacity="1" stroke-dasharray="2.25 6.75 9 6.75" stroke-miterlimit="10" d="M 391.960938 207.359375 L 413.558594 207.359375 "/>
<path fill="none" stroke-width="2.25" stroke-linecap="round" stroke-linejoin="round" stroke="rgb(0%, 39.215686%, 0%)" stroke-opacity="1" stroke-miterlimit="10" d="M 391.960938 221.761719 L 413.558594 221.761719 "/>
<path fill="none" stroke-width="2.25" stroke-linecap="round" stroke-linejoin="round" stroke="rgb(0%, 0%, 54.509804%)" stroke-opacity="1" stroke-dasharray="15.75 6.75" stroke-miterlimit="10" d="M 391.960938 236.160156 L 413.558594 236.160156 "/>
<g fill="rgb(0%, 0%, 0%)" fill-opacity="1">
<use xlink:href="#glyph-0-4" x="424.359375" y="197.208984"/>
<use xlink:href="#glyph-0-5" x="427.359375" y="197.208984"/>
<use xlink:href="#glyph-0-6" x="430.359375" y="197.208984"/>
<use xlink:href="#glyph-0-7" x="437.359375" y="197.208984"/>
<use xlink:href="#glyph-0-8" x="444.359375" y="197.208984"/>
<use xlink:href="#glyph-0-9" x="451.359375" y="197.208984"/>
</g>
<g fill="rgb(0%, 0%, 0%)" fill-opacity="1">
<use xlink:href="#glyph-0-10" x="424.359375" y="211.607422"/>
<use xlink:href="#glyph-0-11" x="431.359375" y="211.607422"/>
<use xlink:href="#glyph-0-8" x="438.359375" y="211.607422"/>
<use xlink:href="#glyph-0-12" x="445.359375" y="211.607422"/>
<use xlink:href="#glyph-0-9" x="452.359375" y="211.607422"/>
<use xlink:href="#glyph-0-8" x="456.359375" y="211.607422"/>
<use xlink:href="#glyph-0-13" x="463.359375" y="211.607422"/>
<use xlink:href="#glyph-0-5" x="466.359375" y="211.607422"/>
<use xlink:href="#glyph-0-14" x="469.359375" y="211.607422"/>
</g>
<g fill="rgb(0%, 0%, 0%)" fill-opacity="1">
<use xlink:href="#glyph-0-15" x="424.359375" y="226.009766"/>
<use xlink:href="#glyph-0-16" x="430.359375" y="226.009766"/>
<use xlink:href="#glyph-0-4" x="437.359375" y="226.009766"/>
<use xlink:href="#glyph-0-5" x="440.359375" y="226.009766"/>
<use xlink:href="#glyph-0-6" x="443.359375" y="226.009766"/>
<use xlink:href="#glyph-0-7" x="450.359375" y="226.009766"/>
<use xlink:href="#glyph-0-17" x="457.359375" y="226.009766"/>
<use xlink:href="#glyph-0-12" x="461.359375" y="226.009766"/>
<use xlink:href="#glyph-0-18" x="468.359375" y="226.009766"/>
<use xlink:href="#glyph-0-19" x="471.359375" y="226.009766"/>
<use xlink:href="#glyph-0-1" x="478.359375" y="226.009766"/>
<use xlink:href="#glyph-0-20" x="485.359375" y="226.009766"/>
</g>
<g fill="rgb(0%, 0%, 0%)" fill-opacity="1">
<use xlink:href="#glyph-0-15" x="424.359375" y="240.408203"/>
<use xlink:href="#glyph-0-16" x="430.359375" y="240.408203"/>
<use xlink:href="#glyph-0-4" x="437.359375" y="240.408203"/>
<use xlink:href="#glyph-0-5" x="440.359375" y="240.408203"/>
<use xlink:href="#glyph-0-6" x="443.359375" y="240.408203"/>
<use xlink:href="#glyph-0-7" x="450.359375" y="240.408203"/>
<use xlink:href="#glyph-0-17" x="457.359375" y="240.408203"/>
<use xlink:href="#glyph-0-12" x="461.359375" y="240.408203"/>
<use xlink:href="#glyph-0-18" x="468.359375" y="240.408203"/>
<use xlink:href="#glyph-0-19" x="471.359375" y="240.408203"/>
<use xlink:href="#glyph-0-21" x="478.359375" y="240.408203"/>
<use xlink:href="#glyph-0-20" x="485.359375" y="240.408203"/>
</g>
</svg>
